<svg width="272" height="37" viewBox="0 0 272 37" fill="none" xmlns="http://www.w3.org/2000/svg">
<g clip-path="url(#clip0_78_509)">
<path d="M104.002 24.9521C100.878 24.7858 97.7523 24.6771 94.627 24.5529L92.2835 24.4576L89.941 24.4155C89.1571 24.3578 88.3732 24.4354 87.5954 24.4421C87.2071 24.4487 86.8177 24.3955 86.4252 24.3889C86.0338 24.3778 85.6424 24.3866 85.2509 24.4022C84.4691 24.431 83.6883 24.4909 82.9085 24.482C82.1256 24.4465 81.3427 24.5419 80.5639 24.5773C79.7862 24.5973 79.0023 24.564 78.2204 24.5729C77.829 24.5685 77.4386 24.5729 77.0482 24.5818L75.877 24.5685C75.0941 24.5485 74.3143 24.666 73.5335 24.615C72.7526 24.5884 71.9698 24.5419 71.1889 24.5906C70.4122 24.6039 69.6324 24.3556 68.8465 24.4088L67.6752 24.4443C67.2848 24.4532 66.8985 24.3911 66.5061 24.3911L47.7561 24.0407L43.066 23.9964L38.377 23.9897C37.593 24.0407 36.8153 24.0075 36.0335 24.0164C35.2516 23.9964 34.4687 24.074 33.6889 24.0984C33.2985 24.125 32.9112 24.0696 32.5187 24.0895L31.3454 24.1161C30.955 24.1317 30.5636 24.1161 30.1722 24.1738C29.7828 24.2203 29.3913 24.2736 29.005 24.1427L29.002 24.1827C29.3893 24.329 29.7848 24.2913 30.1742 24.258C30.5636 24.2159 30.954 24.2447 31.3444 24.2447L32.5157 24.2625C32.905 24.2603 33.2985 24.3179 33.6889 24.3002C34.4718 24.2891 35.2506 24.227 36.0324 24.2647C36.8133 24.2691 37.5992 24.3201 38.377 24.2846C41.5023 24.3689 44.6256 24.4155 47.7499 24.4354C49.3126 24.4554 50.8773 24.4399 52.4389 24.4909C53.9996 24.6017 55.5663 24.5795 57.127 24.5751C57.9078 24.5751 58.6886 24.5973 59.4674 24.6483C59.6595 24.6616 59.8619 24.6838 60.0591 24.6549C60.2564 24.6328 60.4475 24.6017 60.6407 24.6106L61.8139 24.6239C62.5968 24.6438 63.3766 24.6106 64.1574 24.5929C64.9383 24.5773 65.7181 24.6062 66.4989 24.6106C66.8883 24.6039 67.2817 24.6638 67.6732 24.6483L68.8454 24.5973C69.6242 24.5308 70.4009 24.7702 71.1869 24.7458C71.9677 24.686 72.7475 24.7237 73.5304 24.7392C73.9208 24.7436 74.3122 24.7525 74.7037 24.7348C75.0941 24.7104 75.4835 24.7059 75.8749 24.7192L77.0472 24.7525C77.4386 24.7481 77.829 24.7525 78.2194 24.7636C79.0002 24.768 79.779 24.8146 80.5639 24.8079C81.3468 24.7858 82.1256 24.7015 82.9064 24.7503C83.6893 24.7725 84.4711 24.7237 85.252 24.7059C85.6424 24.6971 86.0317 24.6948 86.4211 24.7126C86.8095 24.7259 87.1999 24.7835 87.5934 24.7835C88.3783 24.7902 89.1571 24.7281 89.9348 24.7636L92.2804 24.7702L94.6249 24.8301C97.7502 24.9121 100.875 24.9787 104.001 24.9897V24.9498L104.002 24.9521Z" fill="#2F3F36"/>
<path d="M242 24.9623C238.876 24.796 235.75 24.6874 232.625 24.5632L230.282 24.4678L227.939 24.4257C227.155 24.3681 226.371 24.4457 225.593 24.4523C225.205 24.459 224.816 24.4058 224.423 24.3991C224.032 24.388 223.64 24.3969 223.249 24.4124C222.467 24.4412 221.686 24.5011 220.907 24.4922C220.124 24.4568 219.341 24.5521 218.562 24.5876C217.784 24.6075 217 24.5743 216.218 24.5831C215.827 24.5787 215.437 24.5831 215.046 24.592L213.875 24.5787C213.092 24.5588 212.312 24.6763 211.532 24.6253C210.751 24.5987 209.968 24.5521 209.187 24.6009C208.41 24.6142 207.63 24.3659 206.845 24.4191L205.673 24.4545C205.283 24.4634 204.897 24.4013 204.504 24.4013L185.754 24.051L181.064 24.0067L176.375 24C175.591 24.051 174.813 24.0177 174.032 24.0266C173.25 24.0067 172.467 24.0843 171.687 24.1086C171.297 24.1353 170.909 24.0798 170.517 24.0998L169.343 24.1264C168.953 24.1419 168.562 24.1264 168.17 24.184C167.781 24.2306 167.389 24.2838 167.003 24.153L167 24.1929C167.387 24.3392 167.783 24.3016 168.172 24.2683C168.562 24.2262 168.952 24.255 169.342 24.255L170.514 24.2727C170.903 24.2705 171.297 24.3282 171.687 24.3104C172.47 24.2993 173.249 24.2373 174.03 24.2749C174.811 24.2794 175.597 24.3304 176.375 24.2949C179.5 24.3792 182.624 24.4257 185.748 24.4457C187.311 24.4656 188.875 24.4501 190.437 24.5011C191.998 24.612 193.564 24.5898 195.125 24.5854C195.906 24.5854 196.687 24.6075 197.465 24.6585C197.658 24.6718 197.86 24.694 198.057 24.6652C198.254 24.643 198.446 24.612 198.639 24.6208L199.812 24.6341C200.595 24.6541 201.375 24.6208 202.155 24.6031C202.936 24.5876 203.716 24.6164 204.497 24.6208C204.886 24.6142 205.28 24.6741 205.671 24.6585L206.843 24.6075C207.622 24.541 208.399 24.7805 209.185 24.7561C209.966 24.6962 210.746 24.7339 211.528 24.7494C211.919 24.7539 212.31 24.7627 212.702 24.745C213.092 24.7206 213.482 24.7162 213.873 24.7295L215.045 24.7627C215.437 24.7583 215.827 24.7628 216.217 24.7738C216.998 24.7783 217.777 24.8248 218.562 24.8182C219.345 24.796 220.124 24.7118 220.904 24.7605C221.687 24.7827 222.469 24.7339 223.25 24.7162C223.64 24.7073 224.03 24.7051 224.419 24.7228C224.808 24.7361 225.198 24.7938 225.591 24.7938C226.376 24.8004 227.155 24.7384 227.933 24.7738L230.278 24.7805L232.623 24.8404C235.748 24.9224 238.873 24.9889 241.999 25V24.9601L242 24.9623Z" fill="#2F3F36"/>
<path d="M28.2785 30.1367C27.8179 29.6542 27.3136 29.2102 26.7763 28.8127C26.2336 28.418 25.6716 28.0589 25.0604 27.7656L24.937 27.7053L24.8986 27.8341C24.5341 29.0539 24.6053 30.334 24.4984 31.51C24.2709 32.675 23.3965 33.6371 22.3905 34.2593C21.8834 34.5718 21.316 34.8021 20.7403 34.8761C20.1784 34.9556 19.5644 34.7994 19.0216 34.5938C17.9252 34.1579 17.0234 33.2479 16.4806 32.2172L16.4697 32.198L16.4587 32.1843C16.2065 31.828 16.1599 31.3346 16.2394 30.8713C16.3189 30.4053 16.5135 29.9503 16.7821 29.5528C17.3057 28.7552 18.2075 28.1713 19.1368 28.3193C19.611 28.3796 20.0578 28.555 20.384 28.8593C20.7047 29.1663 20.8801 29.6131 20.8801 30.0709C20.8829 30.2957 20.8445 30.5341 20.7623 30.7068C20.6691 30.8823 20.5073 31.0166 20.3155 31.0851C20.1949 31.129 20.066 31.1372 19.9344 31.129C20.1757 30.9837 20.3566 30.7644 20.4717 30.5287L20.4854 30.4985V30.4711C20.532 30.1339 20.5375 29.7365 20.3045 29.3993C20.0715 29.0594 19.6603 28.9306 19.3177 28.9169C18.9641 28.9004 18.6269 28.9635 18.3035 29.0676C17.9828 29.1773 17.673 29.3198 17.3989 29.561L17.3907 29.5693L17.3824 29.5802C17.0837 29.9338 16.9274 30.4053 16.9411 30.8631C16.9493 31.3236 17.1111 31.754 17.3358 32.1322C17.7881 32.8943 18.4899 33.4425 19.2355 33.8564L19.2437 33.8619H19.2546C19.9975 34.136 20.8829 34.2347 21.6285 33.8537C22.3795 33.4973 22.8949 32.8203 23.2375 32.1158C23.5911 31.4058 23.8077 30.6411 23.9392 29.8681C23.9995 29.4816 24.0489 29.1033 24.164 28.7442C24.2709 28.3878 24.482 28.0644 24.6574 27.7108L24.704 27.6148L24.6081 27.571C22.703 26.6911 20.7074 25.9784 18.6351 25.6028C16.5656 25.2136 14.4193 25.2602 12.3579 25.6714C10.3158 26.0825 8.19691 26.5431 6.43436 27.7738C5.56542 28.3769 4.79516 29.1937 4.40592 30.2162C4.03312 31.2386 4.04683 32.3899 4.46074 33.4041L4.46622 33.4151L4.47445 33.4288C4.89932 34.1086 5.49141 34.7281 6.25618 35.0652C7.01822 35.4024 7.91183 35.4271 8.69579 35.0899C8.79447 35.0488 8.89041 34.9912 8.98635 34.9282C9.09052 34.8487 9.16453 34.7692 9.22757 34.6952C9.36737 34.5472 9.49895 34.3882 9.61133 34.2127C9.83885 33.8701 10.0307 33.4781 10.0883 33.0505C10.1513 32.6256 10.0938 32.1788 9.92656 31.7868C9.74565 31.3894 9.54829 31.0467 9.13986 30.748L9.09874 30.7178H9.03569C8.71772 30.7178 8.35589 30.7671 8.07356 31.0111C7.78848 31.2551 7.68157 31.6059 7.64046 31.9157C7.56919 32.5324 7.67609 33.1026 7.8433 33.67C7.8433 33.7029 7.84056 33.7331 7.83782 33.7632C7.82685 33.7522 7.81589 33.7468 7.80492 33.7358C7.62949 33.5658 7.49243 33.3301 7.37731 33.119C7.17446 32.6668 7.16898 32.1322 7.31152 31.647C7.4568 31.1673 7.74188 30.6931 8.15305 30.4519C8.55874 30.197 9.04666 30.2326 9.42219 30.5616C9.80047 30.8713 10.1239 31.3291 10.2829 31.8033C10.4446 32.2857 10.4583 32.812 10.3432 33.3137C10.2199 33.8153 9.98413 34.3005 9.65793 34.6924C9.36463 35.0598 8.84381 35.2571 8.34767 35.3914C7.32797 35.6436 6.237 35.3832 5.4174 34.7144C5.01993 34.3717 4.64166 33.9852 4.35384 33.5275C4.03587 33.0861 3.84673 32.6119 3.73708 32.1076C3.60277 31.0824 4.01942 30.0353 4.68003 29.1855C5.32146 28.3221 6.16299 27.5792 7.04563 26.9652C9.20564 25.8523 11.5493 25.0711 13.9697 24.8107C16.3929 24.542 18.8654 24.8024 21.2063 25.5124L21.6093 25.6357L21.3955 25.2849C21.2639 25.0683 21.1104 24.923 20.9404 24.775C20.7705 24.6325 20.5868 24.5119 20.395 24.4077C20.384 24.4022 20.3703 24.3995 20.3593 24.3913L20.395 24.4022L20.3319 24.1665L20.288 24.0048L20.4416 24.0349L20.5101 24.0486L20.5594 24.002L20.5649 23.9965C20.5759 24.0788 20.5978 24.1583 20.6389 24.2268C20.7568 24.4351 20.9103 24.564 21.0528 24.7092C21.3489 24.9916 21.6559 25.252 21.9821 25.4932C22.311 25.7289 22.6399 25.9784 23.0484 26.11C23.4294 26.2251 23.8022 26.3649 24.1695 26.5211C25.6387 27.1516 26.949 28.0973 28.2291 29.0622L28.2593 29.021C27.0038 28.0288 25.71 27.0474 24.2353 26.3731C23.868 26.2086 23.4924 26.0551 23.1059 25.929C22.7496 25.8084 22.4261 25.559 22.1136 25.3205C21.8012 25.0766 21.4996 24.8161 21.2173 24.5393C21.083 24.4022 20.9295 24.257 20.8527 24.1117C20.7705 23.9691 20.7869 23.791 20.8719 23.6895L20.7952 23.6155C21.1899 23.2016 21.5216 22.7521 21.8231 22.2641C22.1739 21.6474 22.4892 20.9786 22.5687 20.2412C23.1059 20.3618 23.6651 20.4111 24.2271 20.3316C24.8356 20.2467 25.4661 20.0219 25.932 19.5614C26.4063 19.1091 26.6694 18.4814 26.7845 17.8646C26.9216 17.2479 26.8997 16.579 26.6941 15.9623C26.494 15.3455 26.113 14.7863 25.6333 14.3752C25.159 13.9558 24.6273 13.6159 24.0626 13.3664C23.8981 13.2897 23.7282 13.2294 23.5582 13.1608C23.7062 11.8862 23.6679 10.5924 23.5061 9.31503C23.3444 7.99106 22.9853 6.69176 22.47 5.45277C21.9464 4.21378 21.1488 3.08991 20.1811 2.15793C19.219 1.19853 17.9855 0.606445 16.7657 0.0883705H16.763H16.7602C15.9872 -0.0925443 15.1484 -0.00482804 14.4796 0.436495C14.1534 0.658526 13.8628 0.943604 13.6682 1.28625C13.5531 1.44797 13.49 1.63711 13.3996 1.8098L13.2104 2.35529C13.0761 2.70067 13.1282 3.0625 13.2269 3.3887C13.3311 3.71489 13.501 4.01642 13.7066 4.28505C14.1205 4.82505 14.6715 5.23896 15.2636 5.55419L15.6309 5.75155L15.524 5.35409C15.4061 4.91825 15.2389 4.5948 15.1128 4.22748C14.984 3.86839 14.8825 3.50382 14.8496 3.15022C14.814 2.79661 14.8661 2.44849 15.0607 2.20179C15.2471 1.95508 15.5623 1.81529 15.894 1.7166C16.4258 1.70564 17.0453 1.8893 17.5798 2.136C17.588 2.13874 17.5963 2.14422 17.6072 2.1497C17.9225 2.86788 18.139 3.59428 18.2925 4.34261C18.5036 5.21155 18.5913 6.11064 18.6955 7.0207C18.7475 7.47573 18.7503 7.93624 18.7064 8.39127C18.6489 8.84629 18.5365 9.2931 18.4378 9.7399C18.2788 10.6198 18.1774 11.5052 18.1116 12.4125C17.7141 12.4865 17.3276 12.6099 16.9548 12.7689C15.8502 13.2705 14.8661 14.1696 14.4467 15.3784C14.2548 15.9787 14.1863 16.6421 14.3562 17.2671C14.5234 17.9003 14.9017 18.4375 15.3403 18.8761C16.1763 19.6738 17.1933 20.2083 18.2541 20.5646C18.3254 21.2609 18.4789 21.9626 18.7996 22.6068C18.9613 22.9412 19.1998 23.2372 19.4712 23.4867C19.6165 23.61 19.7809 23.7087 19.9564 23.7855L19.9783 23.8705L20.0112 23.9965L19.0682 23.6703L18.6653 23.5306C18.1719 23.2647 17.6237 23.0947 17.0919 22.9412L14.9702 22.3546C13.5723 21.9489 12.2044 21.4308 10.9298 20.762C10.3048 20.4248 9.68534 20.0246 9.37559 19.4737C9.21935 19.1996 9.16453 18.8569 9.0494 18.4786C8.93153 18.1031 8.73965 17.7303 8.44635 17.4343C7.87345 16.8559 7.02644 16.5763 6.22603 16.7462C5.40917 16.9189 4.82805 17.6289 4.61699 18.3471C4.48541 18.7034 4.43059 19.0927 4.43881 19.4737C4.46896 19.8519 4.5512 20.2357 4.7376 20.5674C5.08298 21.2499 5.68329 21.7351 6.27537 22.1709C6.88664 22.5931 7.53903 22.9439 8.20239 23.2729C8.85204 23.6018 9.56747 23.9033 10.3076 24.0404C11.6809 24.3035 13.0652 24.3529 14.444 24.3693C14.2713 24.3803 14.0958 24.3885 13.9231 24.4077C11.4369 24.6435 9.02199 25.4165 6.79619 26.5294L6.78248 26.5348L6.77426 26.5403C5.82034 27.1954 4.96237 27.952 4.26338 28.884C3.56165 29.7858 3.06002 30.9672 3.21901 32.1898C3.33688 32.7819 3.5781 33.3575 3.918 33.8263C4.22774 34.3169 4.63892 34.7473 5.08572 35.1283C6.00126 35.8876 7.30056 36.2056 8.46554 35.9123C11.0915 35.4682 11.7768 31.6717 9.7292 30.1614C9.48524 29.964 9.17275 29.8215 8.83559 29.7831C8.49569 29.7639 8.15579 29.8516 7.88442 30.027C7.33071 30.3697 7.01 30.9344 6.83456 31.51C6.66735 32.0911 6.67284 32.7435 6.93324 33.3191C7.08401 33.596 7.23477 33.8509 7.45954 34.073C7.51437 34.1305 7.58289 34.1881 7.66787 34.2429C7.72543 34.2703 7.76381 34.3005 7.85975 34.3087C7.92553 34.3306 8.08726 34.284 8.1366 34.221C8.27914 34.0757 8.26543 33.977 8.28736 33.8893C8.30381 33.7934 8.29559 33.7248 8.30107 33.6399V33.6124L8.28736 33.5686C8.12838 33.0587 8.02147 32.4886 8.08178 31.9815C8.11193 31.7293 8.19691 31.4935 8.35863 31.3592C8.50391 31.2304 8.71772 31.192 8.94524 31.1783C9.16179 31.3483 9.38656 31.6608 9.50991 31.9568C9.65245 32.283 9.70179 32.6448 9.65519 32.9957C9.61407 33.3493 9.45509 33.6837 9.25773 33.9907C9.16179 34.147 9.04118 34.2922 8.91508 34.4293C8.85204 34.5061 8.79173 34.5691 8.73965 34.6102C8.67112 34.6541 8.59985 34.7007 8.51762 34.7336C7.86249 35.0269 7.05934 35.0214 6.38776 34.7308C5.71344 34.443 5.16247 33.8948 4.75678 33.2616C4.56765 32.8038 4.46348 32.3049 4.44155 31.806C4.43333 31.3017 4.51282 30.8 4.67455 30.3203C5.02542 29.3692 5.74085 28.5825 6.5769 27.9931C8.27092 26.787 10.3597 26.3073 12.3881 25.8824C14.4275 25.4603 16.5437 25.3945 18.5968 25.7618C20.6225 26.1045 22.555 26.8473 24.4107 27.7108C24.249 28.0178 24.0544 28.3221 23.9447 28.6757C23.8214 29.0567 23.7638 29.4514 23.7008 29.8297C23.5637 30.5807 23.3417 31.3236 22.999 32.0007C22.6646 32.6777 22.1685 33.2945 21.4996 33.6015C20.839 33.9304 20.0551 33.84 19.3588 33.585C18.6571 33.1876 18.0102 32.653 17.6154 31.9623C17.4181 31.6196 17.2865 31.2386 17.2865 30.8576C17.281 30.4848 17.4099 30.123 17.6483 29.8379C18.0787 29.4925 18.7174 29.2979 19.2766 29.3253C19.5589 29.3445 19.8166 29.4459 19.9482 29.6433C20.0797 29.8297 20.0907 30.101 20.0605 30.3724C19.9591 30.567 19.8138 30.7315 19.6329 30.811C19.4465 30.896 19.2355 30.8795 19.0847 30.7699L18.8215 31.107C19.2327 31.4634 19.855 31.7101 20.4443 31.5018C20.7321 31.4003 20.987 31.192 21.1323 30.9179C21.2721 30.6301 21.305 30.3532 21.3078 30.0736C21.3078 29.5172 21.0967 28.9415 20.68 28.5413C20.2606 28.1439 19.7069 27.952 19.1779 27.889C18.6269 27.8149 18.0485 27.9383 17.5771 28.2151C17.1001 28.4893 16.7164 28.884 16.4203 29.3308C16.127 29.7776 15.9159 30.2792 15.8282 30.8137C15.746 31.34 15.7844 31.9403 16.1352 32.4228L16.1133 32.3872C16.7218 33.5165 17.673 34.454 18.8736 34.9254C19.4739 35.142 20.0989 35.3037 20.7623 35.2133C21.4064 35.1228 22.0013 34.8679 22.5358 34.5335C23.5911 33.8674 24.5121 32.8477 24.7534 31.5676C24.8054 31.2468 24.8054 30.9261 24.8054 30.6273C24.8109 30.3231 24.8191 30.0161 24.8411 29.7118C24.8794 29.1581 24.937 28.5852 25.0741 28.0616C26.2034 28.6099 27.2615 29.3527 28.1551 30.2463C28.6266 30.7068 29.035 31.2304 29.3941 31.7814C29.7641 32.3296 30.0163 32.9436 30.2411 33.5658L30.2904 33.5521C30.0821 32.9217 29.8382 32.294 29.4791 31.7293C29.1309 31.1619 28.7307 30.6219 28.262 30.1422L28.2785 30.1367ZM20.7403 25.0053C20.7568 25.019 20.7705 25.0354 20.7869 25.0491C19.293 24.6215 17.747 24.3721 16.1901 24.3255C17.1741 24.2926 18.1582 24.2405 19.1368 24.1391L19.1176 24.2542C19.515 24.3392 19.9016 24.4762 20.2524 24.6654C20.4251 24.7641 20.5923 24.8737 20.7431 25.0025L20.7403 25.0053ZM15.8173 1.20949L15.8008 1.21498C15.3979 1.33833 14.9703 1.52198 14.6879 1.90574C14.4028 2.2895 14.359 2.77468 14.4083 3.18585C14.4577 3.60799 14.592 3.99449 14.74 4.36454C14.8222 4.57287 14.9154 4.78119 15.0059 4.98129C14.6084 4.74282 14.2411 4.44951 13.9451 4.09591C13.745 3.85743 13.5778 3.5888 13.4736 3.29824C13.3694 3.01316 13.3201 2.69245 13.4133 2.42108V2.41285L13.4188 2.40737C13.4736 2.2292 13.5202 2.04554 13.586 1.87011C13.671 1.70564 13.7258 1.52198 13.8327 1.36848C14.0136 1.03954 14.2795 0.770913 14.581 0.559846C15.195 0.132229 16.0146 0.0883705 16.7191 0.261062L17.5963 0.688679L18.0348 0.905228L18.435 1.18482C18.6982 1.3767 18.9723 1.55214 19.2272 1.75224L19.9317 2.42108C20.8226 3.3558 21.549 4.43855 22.089 5.61998C22.6208 6.80415 22.9607 8.07055 23.2019 9.35614C23.4157 10.5951 23.5308 11.8615 23.5116 13.1279C23.4294 13.0978 23.3499 13.0594 23.2704 13.0293L23.2019 11.3435C23.1224 10.713 23.0566 10.0771 22.9469 9.44934C22.7085 8.19664 22.3576 6.95217 21.8012 5.78445C21.2447 4.61947 20.4717 3.53946 19.4712 2.68971C19.2327 2.46493 18.9449 2.29772 18.6845 2.10036C18.3939 1.94412 18.1226 1.75772 17.8128 1.63711C17.2015 1.37944 16.5793 1.1766 15.8419 1.20949H15.8255H15.8173ZM18.8599 9.78376C18.8873 9.32051 18.8544 8.85178 18.8764 8.39127C18.8818 7.92801 18.9394 7.47024 18.9778 7.00699C19.0628 6.08323 19.0436 5.13206 18.8215 4.21104C18.6461 3.5422 18.3747 2.8761 17.9718 2.31143C18.1116 2.38818 18.2486 2.47042 18.3912 2.54443C18.6351 2.72808 18.9038 2.87885 19.1258 3.08717C20.0688 3.87388 20.7924 4.89358 21.3763 5.98729C21.9519 7.09197 22.3192 8.29533 22.6317 9.50965C22.7797 10.1209 22.8647 10.7459 22.9935 11.3627L23.1909 12.9991C22.3302 12.7031 21.4366 12.5304 20.5485 12.4207C19.9481 12.344 19.3451 12.3001 18.7338 12.3221C18.5529 12.3303 18.3747 12.3522 18.1993 12.3824C18.5694 11.5545 18.7832 10.6746 18.8627 9.77828L18.8599 9.78376ZM14.7948 17.1519C14.6742 16.6147 14.6879 16.0363 14.8551 15.4935C15.1621 14.4053 15.968 13.4158 17.0371 12.9169C17.5634 12.6565 18.1527 12.5112 18.7421 12.503C19.3287 12.4838 19.9207 12.5907 20.5073 12.6976C21.6696 12.9361 22.8236 13.2595 23.8652 13.7831C24.3915 14.0353 24.8712 14.3642 25.2824 14.7507C25.699 15.1317 26.0225 15.6004 26.1897 16.124C26.3021 16.3762 26.3158 16.6585 26.3597 16.9299C26.3487 17.2095 26.3706 17.4891 26.3103 17.7687C26.2336 18.3251 26.0362 18.8734 25.6552 19.2763C25.2797 19.6847 24.7534 19.9479 24.1859 20.0712C23.6679 20.1864 23.1196 20.2193 22.5769 20.1617C22.6098 19.8136 22.5796 19.4572 22.5029 19.1146C22.3905 18.7582 22.248 18.4211 22.0259 18.1305C21.623 17.5275 20.9322 17.1218 20.1784 17.0834C19.8056 17.0724 19.4109 17.1492 19.0765 17.363C18.7421 17.5686 18.4707 17.9112 18.3665 18.3059C18.213 19.057 18.2103 19.7286 18.2541 20.4468C17.281 19.9534 16.3518 19.364 15.6281 18.591C15.2361 18.1716 14.9182 17.681 14.7948 17.1437V17.1519ZM19.1669 22.4341C18.923 21.8119 18.8407 21.1266 18.7914 20.4495C18.7722 20.1096 18.7585 19.767 18.7612 19.4243C18.7667 19.0954 18.7612 18.7062 18.8243 18.4293C18.9449 17.8454 19.526 17.4206 20.1811 17.363C20.8335 17.3109 21.538 17.6399 21.8889 18.2265C22.2671 18.8076 22.3137 19.5148 22.1602 20.1617C21.93 21.3404 21.3242 22.456 20.68 23.5223L20.4306 23.7635L20.2743 23.7307C20.373 23.3222 20.3703 22.9412 20.2935 22.5629C20.236 22.3738 20.1483 22.1847 20.1154 21.99C20.0852 21.7954 20.1044 21.5981 20.1428 21.4007C20.2332 21.0087 20.2634 20.6249 20.3072 20.2494C20.3264 19.8684 20.3209 19.5011 20.3155 19.0817L20.2689 19.0625C19.9701 19.3777 19.8358 19.7944 19.7727 20.1973C19.7343 20.6058 19.7563 21.0142 19.8687 21.4089C19.9153 21.6063 19.9619 21.8009 19.9536 22.001C19.9509 22.1984 19.8933 22.4039 19.8796 22.6068C19.8824 22.9905 19.981 23.3661 20.1976 23.7142L20.1674 23.7087C19.981 23.5936 19.8056 23.4648 19.6576 23.2976C19.4465 23.0399 19.2848 22.7493 19.1669 22.4368V22.4341ZM8.32848 23.007C7.65142 22.7329 6.98807 22.4231 6.38502 22.0174C5.78471 21.62 5.21181 21.1266 4.90755 20.4797C4.56216 19.8437 4.61973 19.0844 4.88562 18.4348C5.12684 17.7714 5.6641 17.2479 6.31375 17.13C6.9634 17.0204 7.66787 17.2862 8.11467 17.755C8.33396 17.988 8.48747 18.2868 8.58067 18.613C8.67386 18.9364 8.7232 19.3366 8.92057 19.7121C9.33448 20.466 10.0472 20.8552 10.6941 21.2115C12.0208 21.9133 13.4407 22.3765 14.8798 22.7274C15.598 22.9028 16.3244 23.0289 17.0398 23.1797C17.5963 23.303 18.1609 23.4154 18.6817 23.6402L18.9394 23.8979C18.9888 23.9472 19.0408 23.9993 19.0737 24.0486C19.0902 24.0678 19.0984 24.1062 19.0929 24.0678C19.0847 24.0459 19.1231 23.9938 19.1477 23.9828L19.1697 23.9911L19.1505 24.098V24.0925C16.2175 24.013 13.2653 24.0349 10.398 23.6237C9.6826 23.5278 9.01651 23.303 8.33396 23.0125L8.32848 23.007Z" fill="#2F3F36"/>
<path d="M3.85215 26.472C4.39764 26.3842 4.72931 25.9621 4.97327 25.6332C5.21998 25.2933 5.43653 24.926 5.69693 24.7615C5.92719 24.5641 6.2945 24.7149 6.5878 24.9068C6.81532 25.074 6.83724 25.5263 6.54668 25.7236C6.44252 25.7949 6.21227 25.8031 6.03683 25.7593C5.8477 25.7236 5.69145 25.5756 5.84495 25.3974L5.80658 25.3645C5.73257 25.4303 5.64211 25.5592 5.71064 25.688C5.77094 25.8059 5.87785 25.8662 5.97927 25.9128C6.19034 25.9923 6.40963 26.0608 6.67826 25.9429C7.1278 25.7099 7.26212 25.0082 6.84547 24.6162C6.63988 24.46 6.47267 24.3421 6.22323 24.2653C6.11084 24.2187 5.96282 24.2215 5.83399 24.2188C5.69967 24.2462 5.55988 24.2708 5.45297 24.3421C4.99246 24.608 4.79784 25.0082 4.54017 25.3152C4.30444 25.6387 4.04951 25.91 3.75347 25.9594C3.6822 25.984 3.60271 25.9786 3.52047 25.9731C3.43276 25.9731 3.37519 25.9594 3.29296 25.9265C3.12849 25.8607 2.95306 25.7483 2.73651 25.6578C2.62686 25.614 2.50625 25.5674 2.35823 25.5592C2.21021 25.5482 2.043 25.5975 1.92513 25.6853C1.70584 25.8552 1.58523 26.0635 1.49477 26.2719C1.31934 26.6885 1.28371 27.0997 1.08635 27.4204C0.894466 27.7301 0.532637 27.9768 0.148878 27.848C-0.0430017 27.8014 -0.243104 27.7247 -0.456913 27.6918C-0.657015 27.6397 -0.942093 27.6863 -1.10108 27.8508C-1.43276 28.1523 -1.589 28.5744 -1.88504 28.7992C-2.18109 29.0569 -2.5484 29.1884 -2.91845 29.2295C-3.6613 29.3145 -4.448 29.0377 -5.12781 28.632C-5.81857 28.2263 -6.44903 27.6972 -6.95614 27.0449L-7 27.0695C-6.64091 27.8316 -6.03786 28.473 -5.33613 28.9582C-4.98253 29.1994 -4.59328 29.3968 -4.17663 29.5338C-3.76546 29.6791 -3.30221 29.7312 -2.85541 29.6435C-2.41134 29.553 -1.99195 29.3282 -1.69316 29.002C-1.36971 28.6676 -1.27377 28.24 -0.991434 27.9714C-0.714579 27.6753 -0.286963 27.9111 0.107761 28.018C0.313346 28.081 0.56553 28.0865 0.78208 27.996C0.993147 27.9083 1.1768 27.7603 1.3166 27.5766C1.59346 27.2066 1.69214 26.7735 1.86209 26.4391C1.94158 26.2746 2.06219 26.1266 2.17732 26.0526C2.27052 25.995 2.37468 26.0087 2.54737 26.0882C2.7091 26.165 2.88179 26.2828 3.09834 26.3842C3.20524 26.4336 3.34778 26.4774 3.46839 26.4829C3.59448 26.4994 3.72058 26.5076 3.85215 26.4774V26.472Z" fill="#2F3F36"/>
<path d="M20.2129 2.3652L20.2155 2.35468V2.35205L20.2129 2.3652Z" fill="#2F3F36"/>
<path d="M263.218 26.5398L263.21 26.5343L263.196 26.5289C260.97 25.416 258.555 24.6402 256.069 24.4072C255.897 24.3908 255.721 24.3826 255.548 24.3688C256.927 24.3524 258.312 24.3058 259.685 24.0399C260.425 23.9029 261.14 23.6013 261.79 23.2724C262.453 22.9435 263.106 22.5926 263.717 22.1705C264.309 21.7346 264.909 21.2494 265.255 20.5669C265.441 20.2352 265.523 19.8515 265.556 19.4732C265.565 19.0922 265.51 18.7029 265.378 18.3466C265.167 17.6284 264.586 16.9184 263.769 16.7458C262.969 16.5785 262.122 16.8581 261.549 17.4338C261.258 17.7271 261.064 18.0999 260.946 18.4782C260.831 18.8564 260.779 19.1991 260.62 19.4732C260.307 20.0242 259.69 20.4244 259.065 20.7615C257.791 21.4304 256.423 21.9484 255.025 22.3541L252.903 22.9407C252.371 23.0942 251.823 23.2642 251.33 23.5301L250.927 23.6699L249.984 23.9961L250.017 23.87L250.039 23.785C250.214 23.7082 250.379 23.6096 250.524 23.4862C250.795 23.234 251.034 22.938 251.196 22.6063C251.516 21.9621 251.667 21.2604 251.741 20.5642C252.802 20.2078 253.819 19.676 254.655 18.8756C255.091 18.437 255.472 17.8998 255.639 17.2666C255.809 16.6389 255.74 15.9755 255.548 15.3779C255.129 14.1691 254.145 13.27 253.04 12.7684C252.67 12.6094 252.281 12.4888 251.884 12.412C251.821 11.502 251.719 10.6166 251.557 9.73942C251.459 9.29261 251.346 8.84581 251.289 8.39078C251.245 7.93575 251.25 7.47524 251.3 7.02021C251.407 6.11015 251.492 5.21106 251.703 4.34212C251.859 3.59379 252.073 2.86465 252.388 2.14922C252.396 2.14647 252.404 2.14099 252.415 2.13551C252.95 1.88881 253.567 1.70515 254.101 1.71612C254.433 1.8148 254.748 1.95459 254.934 2.2013C255.129 2.448 255.178 2.79338 255.146 3.14973C255.113 3.50608 255.011 3.87065 254.882 4.22699C254.756 4.59705 254.589 4.91776 254.471 5.3536L254.364 5.75107L254.732 5.5537C255.324 5.23847 255.875 4.82456 256.289 4.28456C256.494 4.01593 256.664 3.7144 256.768 3.38821C256.867 3.06475 256.919 2.70292 256.785 2.3548L256.596 1.80931C256.505 1.63388 256.442 1.44748 256.327 1.28576C256.13 0.943116 255.839 0.658038 255.516 0.436006C254.847 -0.00531632 254.005 -0.0930326 253.235 0.0878822H253.232H253.229C252.01 0.603215 250.779 1.1953 249.817 2.15744C248.852 3.08942 248.054 4.21329 247.528 5.45228C247.013 6.69127 246.653 7.99057 246.492 9.31454C246.33 10.5919 246.292 11.8857 246.44 13.1604C246.272 13.2261 246.1 13.2864 245.935 13.3659C245.371 13.6154 244.839 13.9553 244.365 14.3747C243.885 14.7858 243.504 15.3423 243.304 15.9618C243.098 16.5785 243.079 17.2474 243.213 17.8641C243.328 18.4809 243.592 19.1086 244.066 19.5609C244.535 20.0214 245.165 20.2462 245.771 20.3312C246.33 20.4079 246.889 20.3613 247.429 20.2407C247.511 20.9781 247.827 21.6469 248.175 22.2637C248.476 22.7516 248.805 23.2011 249.203 23.615L249.126 23.689C249.211 23.7905 249.227 23.9686 249.145 24.1112C249.068 24.2565 248.918 24.4017 248.781 24.5388C248.498 24.8157 248.194 25.0761 247.884 25.32C247.572 25.5585 247.248 25.8079 246.892 25.9286C246.508 26.0546 246.133 26.2081 245.763 26.3726C244.288 27.0469 242.994 28.0283 241.739 29.0206L241.769 29.0617C243.046 28.0968 244.359 27.1511 245.828 26.5206C246.196 26.3644 246.568 26.2246 246.95 26.1095C247.361 25.9779 247.687 25.7285 248.016 25.4927C248.342 25.2515 248.652 24.9911 248.945 24.7087C249.088 24.5607 249.241 24.4346 249.359 24.2263C249.397 24.1578 249.419 24.0783 249.433 23.9961L249.438 24.0015L249.488 24.0481L249.556 24.0344L249.71 24.0043L249.666 24.166L249.603 24.4017L249.639 24.3908C249.639 24.3908 249.614 24.399 249.603 24.4072C249.411 24.5114 249.227 24.632 249.057 24.7745C248.887 24.9226 248.734 25.0678 248.602 25.2844L248.389 25.6353L248.792 25.5119C251.13 24.8047 253.605 24.5415 256.028 24.8102C258.449 25.0706 260.792 25.8518 262.952 26.9647C263.835 27.576 264.676 28.3216 265.318 29.185C265.976 30.0375 266.395 31.0819 266.261 32.1071C266.151 32.6114 265.962 33.0884 265.644 33.527C265.356 33.9847 264.978 34.3712 264.58 34.7139C263.764 35.3827 262.673 35.6431 261.65 35.3909C261.154 35.2566 260.633 35.0593 260.34 34.692C260.014 34.3 259.778 33.8121 259.655 33.3132C259.537 32.8088 259.551 32.2825 259.715 31.8028C259.871 31.3286 260.197 30.8681 260.576 30.5611C260.951 30.2321 261.442 30.1965 261.845 30.4514C262.256 30.6954 262.541 31.1669 262.686 31.6466C262.829 32.1345 262.823 32.669 262.621 33.1185C262.505 33.3296 262.368 33.5654 262.193 33.7353C262.182 33.749 262.171 33.7518 262.16 33.7627C262.16 33.7326 262.157 33.6997 262.155 33.6695C262.322 33.1048 262.429 32.5347 262.357 31.9152C262.316 31.6082 262.209 31.2546 261.924 31.0106C261.639 30.7667 261.28 30.7201 260.962 30.7173H260.899L260.858 30.7475C260.447 31.0463 260.25 31.3889 260.071 31.7864C259.904 32.1783 259.847 32.6251 259.91 33.05C259.967 33.4804 260.156 33.8696 260.387 34.2123C260.499 34.3877 260.631 34.5439 260.77 34.6947C260.833 34.7687 260.905 34.8482 261.012 34.9277C261.107 34.9907 261.203 35.0456 261.302 35.0894C262.083 35.4266 262.98 35.4019 263.742 35.0648C264.506 34.7276 265.099 34.1081 265.523 33.4283L265.532 33.4146L265.537 33.4036C265.951 32.3894 265.965 31.2381 265.592 30.2157C265.203 29.1932 264.432 28.3764 263.564 27.7733C261.798 26.5426 259.682 26.0821 257.64 25.6709C255.576 25.2597 253.432 25.2131 251.363 25.6024C249.29 25.9779 247.298 26.6906 245.39 27.5705L245.294 27.6144L245.34 27.7103C245.516 28.0666 245.727 28.3874 245.834 28.7437C245.946 29.1028 245.996 29.4811 246.059 29.8676C246.19 30.6433 246.41 31.4053 246.76 32.1153C247.103 32.8225 247.618 33.4968 248.369 33.8532C249.118 34.2314 250.003 34.1328 250.746 33.8641H250.757L250.765 33.8559C251.511 33.4447 252.215 32.8938 252.665 32.1317C252.89 31.7562 253.049 31.3231 253.06 30.8626C253.073 30.4048 252.917 29.9334 252.618 29.5797L252.61 29.5688L252.602 29.5606C252.328 29.3193 252.018 29.1768 251.697 29.0672C251.376 28.963 251.037 28.8972 250.686 28.9164C250.343 28.9301 249.935 29.0589 249.699 29.3988C249.466 29.7387 249.474 30.1335 249.515 30.4706V30.498L249.534 30.5282C249.65 30.7639 249.828 30.9832 250.072 31.1285C249.943 31.1367 249.811 31.1285 249.691 31.0846C249.499 31.0161 249.337 30.879 249.244 30.7064C249.162 30.5337 249.12 30.2952 249.126 30.0704C249.126 29.6126 249.301 29.1658 249.622 28.8588C249.948 28.5573 250.395 28.3819 250.869 28.3188C251.799 28.1708 252.7 28.7547 253.224 29.5523C253.493 29.9498 253.684 30.4048 253.767 30.8708C253.846 31.3341 253.802 31.8275 253.547 32.1838L253.536 32.1975L253.526 32.2167C252.985 33.2446 252.084 34.1574 250.984 34.5933C250.442 34.7989 249.828 34.9551 249.266 34.8756C248.687 34.8016 248.123 34.5714 247.616 34.2589C246.61 33.6394 245.735 32.6745 245.508 31.5095C245.401 30.3336 245.472 29.0534 245.107 27.8336L245.069 27.7048L244.946 27.7651C244.332 28.0584 243.77 28.4175 243.23 28.8122C242.693 29.2097 242.188 29.6538 241.728 30.1362C241.262 30.6159 240.859 31.1559 240.511 31.7233C240.151 32.288 239.91 32.9157 239.699 33.5462L239.749 33.5599C239.973 32.9376 240.226 32.3236 240.596 31.7754C240.955 31.2217 241.363 30.7009 241.835 30.2404C242.731 29.3467 243.786 28.6039 244.916 28.0557C245.053 28.5792 245.11 29.1494 245.149 29.7058C245.171 30.0101 245.179 30.3144 245.184 30.6214C245.184 30.9202 245.184 31.2436 245.236 31.5616C245.478 32.8417 246.401 33.8614 247.454 34.5275C247.988 34.8619 248.583 35.1168 249.227 35.2073C249.891 35.3005 250.516 35.136 251.116 34.9195C252.314 34.448 253.268 33.5133 253.876 32.3812L253.854 32.4168C254.203 31.9344 254.244 31.3368 254.161 30.8078C254.074 30.2733 253.863 29.7716 253.569 29.3248C253.273 28.8808 252.89 28.4833 252.413 28.2092C251.941 27.9323 251.363 27.809 250.812 27.883C250.283 27.946 249.729 28.1379 249.31 28.5354C248.893 28.9356 248.679 29.5112 248.682 30.0677C248.682 30.35 248.718 30.6269 248.855 30.9119C249 31.1888 249.258 31.3971 249.545 31.4958C250.137 31.7041 250.76 31.4574 251.168 31.1011L250.905 30.7639C250.754 30.8736 250.543 30.89 250.357 30.805C250.176 30.7255 250.031 30.5611 249.929 30.3664C249.896 30.0951 249.91 29.8237 250.042 29.6373C250.17 29.4427 250.428 29.3385 250.713 29.3193C251.272 29.2919 251.911 29.4865 252.341 29.8319C252.58 30.1143 252.709 30.4761 252.703 30.8516C252.703 31.2327 252.572 31.6137 252.374 31.9563C251.979 32.6471 251.333 33.1816 250.631 33.5791C249.937 33.8367 249.153 33.9244 248.49 33.5955C247.821 33.2885 247.325 32.6717 246.991 31.9947C246.645 31.3176 246.423 30.5748 246.286 29.8237C246.223 29.4454 246.168 29.0507 246.042 28.6697C245.933 28.3161 245.738 28.0118 245.576 27.7048C247.435 26.8386 249.367 26.0985 251.39 25.7559C253.443 25.3885 255.559 25.4516 257.599 25.8765C259.63 26.3013 261.716 26.781 263.41 27.9871C264.246 28.5765 264.962 29.3632 265.312 30.3144C265.474 30.7941 265.556 31.2957 265.545 31.8001C265.526 32.299 265.419 32.7978 265.23 33.2556C264.822 33.8888 264.273 34.437 263.599 34.7249C262.928 35.0182 262.124 35.0209 261.469 34.7276C261.387 34.692 261.316 34.6481 261.247 34.6042C261.198 34.5659 261.135 34.5001 261.072 34.4233C260.943 34.2835 260.825 34.141 260.729 33.9847C260.529 33.6777 260.373 33.3433 260.332 32.9897C260.285 32.6389 260.332 32.2798 260.477 31.9508C260.6 31.6548 260.825 31.3423 261.042 31.1723C261.266 31.1861 261.483 31.2244 261.628 31.3533C261.79 31.4876 261.875 31.7233 261.905 31.9755C261.965 32.4826 261.859 33.0528 261.7 33.5626L261.686 33.6065V33.6339C261.691 33.7189 261.686 33.7874 261.702 33.8833C261.724 33.9738 261.713 34.0725 261.853 34.215C261.905 34.278 262.064 34.3246 262.13 34.3027C262.229 34.2918 262.264 34.2616 262.322 34.2369C262.407 34.1821 262.475 34.1245 262.53 34.067C262.758 33.8449 262.906 33.59 263.056 33.3132C263.317 32.7375 263.322 32.0851 263.155 31.504C262.98 30.9284 262.659 30.3637 262.105 30.0211C261.834 29.8456 261.494 29.7579 261.154 29.7771C260.817 29.8155 260.504 29.9553 260.26 30.1554C258.213 31.6657 258.898 35.4622 261.524 35.9063C262.689 36.1996 263.988 35.8816 264.904 35.1223C265.351 34.7386 265.762 34.3082 266.072 33.8203C266.412 33.3515 266.653 32.7759 266.771 32.1838C266.93 30.9585 266.425 29.7798 265.726 28.878C265.027 27.9488 264.169 27.1922 263.215 26.5343L263.218 26.5398ZM252.966 23.1902C253.682 23.0394 254.408 22.9133 255.126 22.7379C256.563 22.3897 257.985 21.9238 259.312 21.222C259.959 20.8657 260.672 20.4764 261.086 19.7226C261.283 19.3471 261.332 18.9469 261.425 18.6234C261.519 18.3 261.669 17.9985 261.891 17.7655C262.338 17.294 263.04 17.0281 263.692 17.1405C264.342 17.2583 264.879 17.7819 265.12 18.4453C265.386 19.0922 265.444 19.8542 265.099 20.4901C264.792 21.1371 264.219 21.6305 263.621 22.0279C263.018 22.4336 262.355 22.7461 261.678 23.0175C260.995 23.308 260.329 23.5328 259.614 23.6287C256.746 24.0399 253.794 24.018 250.861 24.0975V24.103L250.842 23.9961L250.864 23.9878C250.889 23.9988 250.927 24.0481 250.919 24.0728C250.913 24.1112 250.919 24.0728 250.938 24.0536C250.971 24.007 251.023 23.9549 251.072 23.9029L251.33 23.6452C251.851 23.4204 252.415 23.308 252.972 23.1847L252.966 23.1902ZM251.179 4.22425C250.957 5.14527 250.938 6.09371 251.023 7.02021C251.058 7.48346 251.119 7.94123 251.124 8.40448C251.146 8.86499 251.113 9.33373 251.141 9.79698C251.22 10.6906 251.434 11.5732 251.804 12.4011C251.626 12.3709 251.448 12.3462 251.27 12.3408C250.658 12.3188 250.052 12.3627 249.455 12.4394C248.564 12.5491 247.67 12.719 246.812 13.0178L247.01 11.3814C247.141 10.7646 247.226 10.1396 247.372 9.52835C247.684 8.31403 248.051 7.11067 248.627 6.00599C249.211 4.91502 249.935 3.89258 250.878 3.10587C251.102 2.8948 251.371 2.74678 251.612 2.56313C251.755 2.48912 251.892 2.40688 252.032 2.33013C251.629 2.8948 251.357 3.5609 251.182 4.22974L251.179 4.22425ZM246.807 9.36662C247.048 8.08103 247.388 6.81737 247.92 5.63046C248.46 4.44903 249.186 3.36628 250.077 2.43155L250.782 1.76272C251.037 1.56261 251.308 1.38718 251.574 1.1953L251.974 0.915705L252.413 0.699155L253.29 0.271538C253.994 0.0988468 254.814 0.142705 255.428 0.570322C255.729 0.78413 255.995 1.05276 256.176 1.37896C256.283 1.53246 256.338 1.71337 256.423 1.88058C256.486 2.05602 256.535 2.23967 256.59 2.41785V2.42333L256.596 2.43155C256.689 2.70292 256.639 3.02364 256.535 3.30871C256.431 3.59928 256.264 3.86791 256.064 4.10638C255.768 4.46273 255.403 4.75329 255.003 4.99177C255.091 4.78893 255.187 4.58334 255.266 4.37502C255.414 4.00496 255.548 3.61846 255.598 3.19633C255.647 2.78516 255.601 2.29724 255.318 1.91622C255.036 1.53246 254.606 1.3488 254.205 1.22545L254.189 1.21997H254.172C253.438 1.18708 252.816 1.38992 252.202 1.64759C251.892 1.7682 251.618 1.95459 251.33 2.11084C251.069 2.3082 250.782 2.47541 250.543 2.70018C249.543 3.54993 248.77 4.62994 248.213 5.79492C247.657 6.96265 247.306 8.20712 247.067 9.45982C246.955 10.0875 246.892 10.7235 246.812 11.3539L246.744 13.0397C246.662 13.0699 246.582 13.1083 246.5 13.1384C246.481 11.872 246.599 10.6056 246.81 9.36662H246.807ZM245.817 20.0845C245.25 19.9611 244.721 19.698 244.348 19.2895C243.964 18.8866 243.767 18.3411 243.693 17.7819C243.633 17.5023 243.655 17.2227 243.644 16.9431C243.688 16.6717 243.701 16.3894 243.814 16.1372C243.981 15.6137 244.304 15.1449 244.721 14.7639C245.132 14.3774 245.612 14.0485 246.138 13.7963C247.18 13.2727 248.334 12.9493 249.496 12.7108C250.08 12.6039 250.675 12.497 251.261 12.5162C251.851 12.5244 252.437 12.6697 252.966 12.9301C254.035 13.429 254.841 14.4158 255.148 15.5068C255.315 16.0495 255.329 16.6279 255.209 17.1651C255.085 17.7024 254.77 18.1931 254.375 18.6125C253.652 19.3827 252.722 19.9748 251.749 20.4682C251.79 19.75 251.79 19.0785 251.637 18.3274C251.533 17.9327 251.261 17.59 250.927 17.3844C250.592 17.1706 250.198 17.0939 249.825 17.1048C249.074 17.1432 248.38 17.5489 247.977 18.152C247.755 18.4425 247.613 18.7797 247.5 19.136C247.424 19.4759 247.394 19.8323 247.426 20.1831C246.884 20.2407 246.336 20.2078 245.817 20.0927V20.0845ZM247.84 20.1722C247.687 19.528 247.733 18.8181 248.112 18.2369C248.465 17.6503 249.167 17.3214 249.819 17.3735C250.475 17.431 251.056 17.8559 251.176 18.4398C251.239 18.7166 251.234 19.1059 251.239 19.4348C251.242 19.7775 251.231 20.1201 251.209 20.46C251.157 21.1371 251.075 21.8196 250.834 22.4446C250.713 22.7571 250.554 23.0476 250.343 23.3053C250.195 23.4725 250.02 23.6013 249.833 23.7165L249.803 23.7219C250.022 23.3738 250.118 22.9983 250.121 22.6145C250.107 22.4117 250.05 22.2088 250.047 22.0087C250.039 21.8086 250.083 21.614 250.132 21.4166C250.244 21.0219 250.266 20.6135 250.228 20.2051C250.165 19.8049 250.031 19.3855 249.732 19.0702L249.685 19.0894C249.68 19.5088 249.671 19.8761 249.693 20.2571C249.737 20.6327 249.767 21.0164 249.858 21.4084C249.899 21.6058 249.915 21.8031 249.885 21.9978C249.852 22.1924 249.762 22.3815 249.707 22.5707C249.628 22.9489 249.628 23.33 249.726 23.7384L249.57 23.7713L249.321 23.5301C248.676 22.4665 248.071 21.3481 247.84 20.1694V20.1722ZM249.751 24.6786C250.102 24.4867 250.488 24.3524 250.886 24.2674L250.864 24.1523C251.842 24.2537 252.827 24.3058 253.811 24.3387C252.254 24.3853 250.708 24.6347 249.216 25.0624C249.233 25.0487 249.247 25.0322 249.263 25.0185C249.414 24.8897 249.578 24.78 249.754 24.6813L249.751 24.6786Z" fill="#2F3F36"/>
<path d="M276.957 27.0522C276.45 27.7018 275.819 28.2336 275.128 28.6393C274.449 29.0477 273.665 29.3218 272.919 29.2369C272.549 29.1958 272.182 29.0614 271.886 28.8065C271.587 28.5817 271.431 28.1596 271.102 27.8581C270.943 27.6936 270.658 27.647 270.458 27.6991C270.244 27.732 270.044 27.8087 269.852 27.8553C269.471 27.9842 269.106 27.7375 268.914 27.4277C268.717 27.107 268.681 26.6958 268.506 26.2792C268.418 26.0681 268.295 25.8598 268.076 25.6926C267.958 25.6049 267.79 25.5555 267.642 25.5665C267.494 25.5747 267.374 25.6186 267.264 25.6652C267.048 25.7584 266.872 25.8708 266.708 25.9338C266.625 25.9667 266.565 25.9831 266.48 25.9804C266.398 25.9886 266.318 25.9941 266.247 25.9667C265.951 25.9174 265.696 25.646 265.46 25.3225C265.203 25.0183 265.011 24.6153 264.548 24.3494C264.438 24.2782 264.298 24.2507 264.167 24.2261C264.038 24.2288 263.89 24.2261 263.777 24.2727C263.528 24.3494 263.361 24.4673 263.155 24.6235C262.739 25.0155 262.873 25.7173 263.322 25.9502C263.591 26.0709 263.81 25.9996 264.021 25.9201C264.123 25.8735 264.23 25.8104 264.29 25.6953C264.359 25.5665 264.268 25.4349 264.194 25.3719L264.156 25.4048C264.309 25.5857 264.153 25.731 263.964 25.7666C263.788 25.8132 263.558 25.805 263.454 25.731C263.166 25.5363 263.185 25.0813 263.413 24.9141C263.706 24.7222 264.073 24.5715 264.304 24.7688C264.564 24.9333 264.781 25.3006 265.027 25.6405C265.271 25.9694 265.603 26.3916 266.149 26.4793C266.28 26.5094 266.406 26.5012 266.532 26.4848C266.653 26.482 266.795 26.4382 266.902 26.3861C267.119 26.2874 267.289 26.1668 267.453 26.09C267.623 26.0078 267.73 25.9968 267.823 26.0544C267.941 26.1284 268.059 26.2764 268.139 26.4409C268.309 26.7753 268.407 27.2084 268.684 27.5785C268.824 27.7621 269.005 27.9102 269.219 27.9979C269.435 28.0911 269.687 28.0829 269.893 28.0198C270.285 27.9102 270.713 27.6772 270.992 27.9732C271.274 28.2418 271.37 28.6695 271.694 29.0039C271.993 29.3301 272.412 29.5521 272.856 29.6453C273.303 29.7358 273.766 29.6809 274.177 29.5357C274.594 29.3959 274.983 29.2012 275.337 28.96C276.039 28.4748 276.642 27.8361 277.001 27.0714L276.957 27.0467V27.0522Z" fill="#2F3F36"/>
<path d="M251.781 2.35205L251.784 2.35468L251.786 2.3652L251.781 2.35205Z" fill="#2F3F36"/>
<path d="M121.137 23.5452C121.137 23.4969 120.678 23.3519 120.606 23.3278C120.34 23.2312 119.977 23.2312 119.688 23.2312H119.591C118.866 23.2312 118.214 23.6902 117.513 23.8834C117.054 24.0284 116.764 24.4632 116.281 24.6323C115.871 24.8014 115.557 25.1155 115.17 25.3329C114.808 25.5262 115.001 25.5986 114.783 25.8402C114.711 25.9127 114.639 25.961 114.639 26.0576C114.639 26.2267 114.856 26.2751 114.977 26.2751C115.629 26.2751 117.827 25.4295 118.552 25.1638C118.987 24.9947 119.132 24.6082 119.615 24.4632C119.857 24.3907 121.137 23.7868 121.137 23.5452ZM131.791 16.1287C131.791 16.3462 131.646 16.5153 131.501 16.6602C131.332 16.8293 131.259 17.0467 131.138 17.24C130.897 17.6024 129.423 19.0035 129.061 19.2693C128.553 19.5833 128.288 19.9457 127.95 20.4288C127.635 20.8878 126.814 21.3952 126.379 21.7817C125.848 22.289 125.389 22.7963 124.761 23.1828C124.471 23.3761 124.35 23.9076 123.939 24.1975C123.553 24.4874 123.311 24.8739 122.925 25.1879C122.635 25.4295 122.417 25.9368 122.417 26.3234C122.417 26.9032 122.925 26.9032 123.36 26.9032C124.229 26.9032 125.171 26.7341 125.969 26.3958C126.693 26.1059 127.466 25.9368 128.167 25.5745C128.457 25.4295 128.747 25.2846 129.061 25.1879C129.399 25.043 129.737 24.9705 130.075 24.7773C130.196 24.6806 130.365 24.6082 130.534 24.6082C130.631 24.6082 130.776 24.6565 130.776 24.7773C130.776 24.9705 130.317 25.1155 130.172 25.1879C129.81 25.3329 129.496 25.5745 129.109 25.7194C128.674 25.8885 128.264 26.1301 127.805 26.2509C127.321 26.3958 126.911 26.6857 126.452 26.879C125.896 27.0723 125.316 27.1931 124.761 27.4105C124.616 27.4588 123.456 27.6521 123.311 27.6521C122.828 27.6521 122.272 27.5071 121.862 27.2897C121.209 26.9273 120.702 27.0239 120.388 26.2509C120.316 26.0576 120.195 25.1879 120.002 25.1879C119.784 25.1879 119.277 25.5503 119.059 25.6711C118.286 26.0818 115.701 27.338 114.953 27.4588C114.204 27.5554 113.624 28.2802 112.851 28.2802C112.295 28.2802 111.401 27.9661 111.401 27.3138C111.401 26.6616 112.15 25.4537 112.803 25.2363C113.382 25.0672 113.213 24.7289 113.624 24.5357C114.107 24.3424 114.494 24.0042 114.977 23.8109C115.991 23.4244 117.006 22.8929 118.117 22.7722C118.963 22.6755 119.808 22.5789 120.63 22.5789C120.968 22.5789 121.306 22.6514 121.644 22.6514C121.862 22.6514 122.079 22.6514 122.297 22.6272C122.659 22.5547 123.07 21.9991 123.311 21.7334C124.374 20.5255 127.925 17.2642 129.23 16.5877C129.641 16.3703 130.172 15.863 130.631 15.8147C130.8 15.8147 130.993 15.7905 131.187 15.7905C131.404 15.7905 131.791 15.8147 131.791 16.1287Z" fill="#5E5A5A"/>
<path d="M139.187 22.3373C139.187 22.0474 138.97 21.7817 138.68 21.7817C138.366 21.7817 138.076 21.7092 137.762 21.7092C137.254 21.7092 136.626 22.289 136.119 22.4823C135.467 22.7238 135.008 23.3036 134.356 23.5694C133.8 23.8109 133.317 24.2699 132.834 24.6323C132.52 24.8739 132.447 25.2604 132.181 25.5503C132.133 25.5986 132.061 25.6711 132.061 25.7436C132.061 25.961 132.495 26.1059 132.664 26.1059C132.93 26.1059 133.172 26.0576 133.413 25.9368C134.066 25.6228 134.742 25.3812 135.394 25.0913C136.047 24.8256 136.602 24.5115 137.134 24.0525C137.448 23.7626 137.713 23.4969 138.148 23.3761C138.559 23.2553 139.187 22.7963 139.187 22.3373ZM145.396 24.7289C145.396 24.9464 144.598 25.2604 144.405 25.3571C144.067 25.502 143.753 25.6711 143.415 25.7919C142.883 25.961 142.448 26.2509 141.941 26.4442C141.265 26.6857 140.588 27.0239 139.888 27.1931C139.018 27.4105 138.197 27.8695 137.303 27.8695C136.795 27.8695 136.53 27.5554 136.167 27.2655C136.022 27.1447 135.853 26.9998 135.853 26.8065C135.853 26.7341 135.877 26.6374 135.877 26.5649C135.877 26.4683 135.781 26.3717 135.708 26.3717C135.66 26.3717 135.612 26.3958 135.563 26.42C135.153 26.6133 134.718 26.5649 134.307 26.8065C133.727 27.1689 133.051 27.1206 132.423 27.338C131.94 27.5071 131.118 27.7004 130.611 27.7004C130.225 27.7004 130.152 27.5313 129.838 27.3863C129.476 27.1689 129.162 27.2172 128.92 26.7824C128.848 26.6133 128.751 26.3958 128.751 26.2026C128.751 25.8644 129.041 25.6228 129.282 25.4054C129.621 25.1155 129.886 24.7773 130.273 24.5115C130.901 24.1008 131.481 23.6177 132.157 23.2553C133.051 22.7722 133.969 22.0474 134.959 21.7817C135.539 21.6126 136.095 21.2744 136.699 21.2019C137.375 21.1053 138.028 21.0811 138.704 21.0811C139.429 21.0811 139.864 21.1777 139.864 22.0233C139.864 22.6755 139.405 22.9413 139.405 23.1587C139.525 23.3278 139.598 23.2553 139.598 23.5452C139.598 23.7868 139.525 23.9801 139.332 24.1492C138.921 24.5115 138.583 25.0188 138.1 25.3087C137.786 25.4778 137.738 25.4778 137.617 25.7919C137.544 25.961 137.399 26.1059 137.399 26.2992C137.399 26.6857 137.762 26.9756 138.124 26.9756C138.97 26.9756 139.308 26.7582 140.057 26.6133C140.661 26.4925 141.192 26.1784 141.772 25.9368C142.424 25.6711 143.077 25.4537 143.705 25.1638C144.043 24.9947 144.84 24.584 145.178 24.584C145.275 24.584 145.396 24.6323 145.396 24.7289Z" fill="#5E5A5A"/>
<path d="M164.28 24.7048C164.28 24.8981 163.99 25.0672 163.845 25.1396C163.241 25.4537 162.613 25.7436 161.985 26.0093C161.502 26.2267 161.043 26.4925 160.511 26.6374C160.101 26.7582 159.738 26.9515 159.328 27.0723C159.038 27.1689 158.772 27.338 158.482 27.4588C158.144 27.5796 156.791 27.8936 156.429 27.8936C156.356 27.8936 156.308 27.8936 156.26 27.8695C155.921 27.8212 155.583 27.8695 155.269 27.7487C154.931 27.6279 154.738 27.0239 154.738 26.7099C154.738 26.0818 155.245 25.7436 155.631 25.3087L155.752 25.1396C155.921 24.8014 156.864 24.0525 156.864 23.8351C156.864 23.7868 156.864 23.7385 156.791 23.7385C156.622 23.7385 154.52 24.8014 153.94 24.9222C153.312 25.0913 152.757 25.4778 152.129 25.6469C151.742 25.7677 151.356 25.8402 150.993 26.0335C150.51 26.2751 150.003 26.4683 149.495 26.7099C148.577 27.1206 147.539 27.9178 146.476 27.9178C145.92 27.9178 145.703 27.5313 145.703 26.9998C145.703 26.3234 146.5 25.961 146.838 25.4295C146.983 25.1879 147.08 24.9947 147.297 24.8014C147.514 24.6082 148.674 23.4727 148.65 23.2312C148.263 23.2312 147.973 23.5452 147.611 23.6418C147.321 23.7385 147.104 23.8834 146.862 24.0525C146.548 24.2699 146.162 24.3183 145.872 24.5357C145.558 24.7531 144.036 25.5745 143.746 25.5745C143.649 25.5745 143.456 25.5262 143.456 25.4054C143.456 25.2121 144.76 24.6082 145.002 24.4874C145.606 24.1492 146.162 23.7626 146.79 23.4244C147.176 23.2312 147.418 22.8446 147.853 22.7238C148.191 22.6514 148.457 22.2165 148.722 22.2165C148.916 22.2165 149.205 21.8058 149.544 21.8058C149.568 21.8058 149.616 21.8058 149.64 21.83C150.317 21.9508 151.331 21.8058 151.331 22.7722C151.331 23.5452 149.979 24.1733 149.568 24.8014C149.326 25.1638 149.181 25.502 148.819 25.7677C148.674 25.8885 148.336 26.1059 148.336 26.3234C148.336 26.3958 148.408 26.4442 148.481 26.4442C148.674 26.4442 149.205 26.1301 149.447 26.0576C149.882 25.9368 150.293 25.7919 150.679 25.5503C151.549 25.0188 152.636 24.9947 153.53 24.4391C153.916 24.1975 154.472 23.8351 154.931 23.7385C155.462 23.6177 155.897 23.1345 156.453 22.9896C156.96 22.8446 157.492 22.3856 158.047 22.3856C158.385 22.3856 159.569 22.748 159.569 23.207C159.569 23.5452 158.82 24.3183 158.53 24.5115C157.999 24.8256 157.999 25.1396 157.588 25.5262C157.347 25.7677 156.984 25.9852 156.815 26.2992C156.743 26.4683 156.574 26.6616 156.574 26.8548C156.574 27.1206 156.888 27.1206 157.105 27.1206C157.733 27.1206 158.265 26.8548 158.869 26.7341C159.352 26.6374 159.787 26.3475 160.294 26.2267C160.729 26.1301 161.067 25.8644 161.478 25.7194C161.985 25.5262 163.797 24.6323 164.135 24.6323C164.183 24.6323 164.28 24.6323 164.28 24.7048Z" fill="#5E5A5A"/>
</g>
<defs>
<clipPath id="clip0_78_509">
<rect width="272" height="36.0212" fill="white"/>
</clipPath>
</defs>
</svg>
