<svg width="54" height="21" viewBox="0 0 54 21" fill="none" xmlns="http://www.w3.org/2000/svg">
<mask id="path-1-outside-1_580_182" maskUnits="userSpaceOnUse" x="0" y="0" width="54" height="21" fill="black">
<rect fill="white" width="54" height="21"/>
<path d="M8.23429 19.3886C9.32 19.3886 10.1657 19.0857 10.7714 18.48C11.3886 17.8743 11.6971 17.0229 11.6971 15.9257C11.6971 14.2 10.92 13.3371 9.36571 13.3371C8.55429 13.3371 7.81714 13.6857 7.15429 14.3829L6.89714 14.0571L10.36 8.84572H9.02286C8.33714 8.84572 7.83429 9.01143 7.51429 9.34286C7.19429 9.68571 6.69714 10.5257 6.02286 11.8629L5.71429 11.7086L7.15429 8.43429H13.9429V8.84572H13.1886L10.2571 12.7371C10.3143 12.7257 10.4686 12.72 10.72 12.72C11.4514 12.72 12.1829 12.9429 12.9143 13.3886C13.7486 13.9029 14.1657 14.7371 14.1657 15.8914C14.1657 18.4971 12.1886 19.8 8.23429 19.8C6.50857 19.8 5.05714 19.4857 3.88 18.8571C2.70286 18.2171 1.88 17.28 1.41143 16.0457C1.13714 15.3257 1 14.5086 1 13.5943C1 12.1657 1.42857 10.9771 2.28571 10.0286C3.15429 9.08 4.25714 8.43429 5.59429 8.09143L5.73143 8.4C4.96571 8.84571 4.42286 9.54857 4.10286 10.5086C3.77143 11.48 3.60571 12.5086 3.60571 13.5943C3.60571 15.2743 3.98857 16.6571 4.75429 17.7429C5.52 18.84 6.68 19.3886 8.23429 19.3886Z"/>
<path d="M25.0482 14.0229C25.5625 14.0229 25.9111 14.1429 26.0939 14.3829C26.1282 14.44 26.2196 14.5829 26.3682 14.8114L29.1454 19.3886H26.8996C26.6368 19.3886 26.3796 19.3486 26.1282 19.2686C25.8882 19.1886 25.7282 19.08 25.6482 18.9429C25.5111 18.7143 24.9625 17.7771 24.0025 16.1314L22.6482 19.3886H13.8539V18.9771H14.5225L18.8596 10.2C19.0882 9.72 19.2025 9.40571 19.2025 9.25714C19.2025 8.97143 18.9225 8.82857 18.3625 8.82857V8.41714C18.3625 8.41714 21.0654 8.41714 26.4711 8.41714L27.8768 12.3771L27.5854 12.5314C27.1282 11.2971 26.6939 10.3714 26.2825 9.75429C25.8711 9.13714 25.3568 8.82857 24.7396 8.82857H23.2654C22.9454 8.82857 22.7168 8.88572 22.5796 9C22.5339 9.04572 22.4768 9.08571 22.4082 9.12C22.3511 9.14286 22.2996 9.17143 22.2539 9.20572C22.2196 9.24 22.1796 9.29714 22.1339 9.37714C22.0196 9.58286 21.9111 9.78857 21.8082 9.99429L21.6368 10.3371L17.3682 18.9771H20.3854C21.2539 18.9771 21.9225 18.7257 22.3911 18.2229C22.8482 17.7314 23.3168 16.9086 23.7968 15.7543L23.6768 15.5486C23.4711 15.16 23.2996 14.8971 23.1625 14.76C22.9454 14.5429 22.5625 14.4343 22.0139 14.4343H21.8768V14.0229H25.0482Z"/>
<path d="M20.061 3.02286L19.7524 2.88571L20.541 1H26.4896V1.41143H25.8896L23.7981 5.78286L19.4096 4.24L19.5467 3.86286L21.5524 4.56571L23.0438 1.41143H22.4096C21.701 1.41143 21.2153 1.50286 20.9524 1.68571C20.6896 1.86857 20.3924 2.31429 20.061 3.02286Z"/>
<path d="M36.6608 18.9771H37.5865L42.6093 8.82857H40.9465C40.2265 8.82857 39.695 8.97714 39.3522 9.27429C39.295 9.32 39.2379 9.36572 39.1808 9.41143C39.1236 9.45714 39.0779 9.49143 39.0436 9.51429C39.0208 9.53714 38.9922 9.56571 38.9579 9.6C38.9236 9.63429 38.8893 9.68 38.855 9.73714C38.8208 9.78286 38.7808 9.84571 38.735 9.92571C38.6322 10.12 38.3922 10.5886 38.015 11.3314L34.2265 18.9771H35.2722V19.3886H30.2836V18.9771H31.3636L35.2722 11.1257C35.5693 10.5543 35.8665 10.0914 36.1636 9.73714C36.4608 9.37143 36.8265 9.06857 37.2608 8.82857C37.7636 8.55429 38.7008 8.41714 40.0722 8.41714H46.055V8.82857H45.455L40.4322 18.9771H41.8208C42.3808 18.9771 42.8265 18.9143 43.1579 18.7886C43.5008 18.6629 43.7693 18.44 43.9636 18.12C44.0436 17.9829 44.4036 17.28 45.0436 16.0114L48.6093 8.82857H47.5122V8.41714H52.2608V8.82857H51.455L46.9808 17.88C46.7065 18.4514 46.3979 18.8457 46.055 19.0629C45.7236 19.28 45.1236 19.3886 44.255 19.3886H36.6608V18.9771Z"/>
</mask>
<path d="M8.23429 19.3886C9.32 19.3886 10.1657 19.0857 10.7714 18.48C11.3886 17.8743 11.6971 17.0229 11.6971 15.9257C11.6971 14.2 10.92 13.3371 9.36571 13.3371C8.55429 13.3371 7.81714 13.6857 7.15429 14.3829L6.89714 14.0571L10.36 8.84572H9.02286C8.33714 8.84572 7.83429 9.01143 7.51429 9.34286C7.19429 9.68571 6.69714 10.5257 6.02286 11.8629L5.71429 11.7086L7.15429 8.43429H13.9429V8.84572H13.1886L10.2571 12.7371C10.3143 12.7257 10.4686 12.72 10.72 12.72C11.4514 12.72 12.1829 12.9429 12.9143 13.3886C13.7486 13.9029 14.1657 14.7371 14.1657 15.8914C14.1657 18.4971 12.1886 19.8 8.23429 19.8C6.50857 19.8 5.05714 19.4857 3.88 18.8571C2.70286 18.2171 1.88 17.28 1.41143 16.0457C1.13714 15.3257 1 14.5086 1 13.5943C1 12.1657 1.42857 10.9771 2.28571 10.0286C3.15429 9.08 4.25714 8.43429 5.59429 8.09143L5.73143 8.4C4.96571 8.84571 4.42286 9.54857 4.10286 10.5086C3.77143 11.48 3.60571 12.5086 3.60571 13.5943C3.60571 15.2743 3.98857 16.6571 4.75429 17.7429C5.52 18.84 6.68 19.3886 8.23429 19.3886Z" fill="url(#paint0_linear_580_182)"/>
<path d="M25.0482 14.0229C25.5625 14.0229 25.9111 14.1429 26.0939 14.3829C26.1282 14.44 26.2196 14.5829 26.3682 14.8114L29.1454 19.3886H26.8996C26.6368 19.3886 26.3796 19.3486 26.1282 19.2686C25.8882 19.1886 25.7282 19.08 25.6482 18.9429C25.5111 18.7143 24.9625 17.7771 24.0025 16.1314L22.6482 19.3886H13.8539V18.9771H14.5225L18.8596 10.2C19.0882 9.72 19.2025 9.40571 19.2025 9.25714C19.2025 8.97143 18.9225 8.82857 18.3625 8.82857V8.41714C18.3625 8.41714 21.0654 8.41714 26.4711 8.41714L27.8768 12.3771L27.5854 12.5314C27.1282 11.2971 26.6939 10.3714 26.2825 9.75429C25.8711 9.13714 25.3568 8.82857 24.7396 8.82857H23.2654C22.9454 8.82857 22.7168 8.88572 22.5796 9C22.5339 9.04572 22.4768 9.08571 22.4082 9.12C22.3511 9.14286 22.2996 9.17143 22.2539 9.20572C22.2196 9.24 22.1796 9.29714 22.1339 9.37714C22.0196 9.58286 21.9111 9.78857 21.8082 9.99429L21.6368 10.3371L17.3682 18.9771H20.3854C21.2539 18.9771 21.9225 18.7257 22.3911 18.2229C22.8482 17.7314 23.3168 16.9086 23.7968 15.7543L23.6768 15.5486C23.4711 15.16 23.2996 14.8971 23.1625 14.76C22.9454 14.5429 22.5625 14.4343 22.0139 14.4343H21.8768V14.0229H25.0482Z" fill="url(#paint1_linear_580_182)"/>
<path d="M20.061 3.02286L19.7524 2.88571L20.541 1H26.4896V1.41143H25.8896L23.7981 5.78286L19.4096 4.24L19.5467 3.86286L21.5524 4.56571L23.0438 1.41143H22.4096C21.701 1.41143 21.2153 1.50286 20.9524 1.68571C20.6896 1.86857 20.3924 2.31429 20.061 3.02286Z" fill="url(#paint2_linear_580_182)"/>
<path d="M36.6608 18.9771H37.5865L42.6093 8.82857H40.9465C40.2265 8.82857 39.695 8.97714 39.3522 9.27429C39.295 9.32 39.2379 9.36572 39.1808 9.41143C39.1236 9.45714 39.0779 9.49143 39.0436 9.51429C39.0208 9.53714 38.9922 9.56571 38.9579 9.6C38.9236 9.63429 38.8893 9.68 38.855 9.73714C38.8208 9.78286 38.7808 9.84571 38.735 9.92571C38.6322 10.12 38.3922 10.5886 38.015 11.3314L34.2265 18.9771H35.2722V19.3886H30.2836V18.9771H31.3636L35.2722 11.1257C35.5693 10.5543 35.8665 10.0914 36.1636 9.73714C36.4608 9.37143 36.8265 9.06857 37.2608 8.82857C37.7636 8.55429 38.7008 8.41714 40.0722 8.41714H46.055V8.82857H45.455L40.4322 18.9771H41.8208C42.3808 18.9771 42.8265 18.9143 43.1579 18.7886C43.5008 18.6629 43.7693 18.44 43.9636 18.12C44.0436 17.9829 44.4036 17.28 45.0436 16.0114L48.6093 8.82857H47.5122V8.41714H52.2608V8.82857H51.455L46.9808 17.88C46.7065 18.4514 46.3979 18.8457 46.055 19.0629C45.7236 19.28 45.1236 19.3886 44.255 19.3886H36.6608V18.9771Z" fill="url(#paint3_linear_580_182)"/>
<path d="M8.23429 19.3886C9.32 19.3886 10.1657 19.0857 10.7714 18.48C11.3886 17.8743 11.6971 17.0229 11.6971 15.9257C11.6971 14.2 10.92 13.3371 9.36571 13.3371C8.55429 13.3371 7.81714 13.6857 7.15429 14.3829L6.89714 14.0571L10.36 8.84572H9.02286C8.33714 8.84572 7.83429 9.01143 7.51429 9.34286C7.19429 9.68571 6.69714 10.5257 6.02286 11.8629L5.71429 11.7086L7.15429 8.43429H13.9429V8.84572H13.1886L10.2571 12.7371C10.3143 12.7257 10.4686 12.72 10.72 12.72C11.4514 12.72 12.1829 12.9429 12.9143 13.3886C13.7486 13.9029 14.1657 14.7371 14.1657 15.8914C14.1657 18.4971 12.1886 19.8 8.23429 19.8C6.50857 19.8 5.05714 19.4857 3.88 18.8571C2.70286 18.2171 1.88 17.28 1.41143 16.0457C1.13714 15.3257 1 14.5086 1 13.5943C1 12.1657 1.42857 10.9771 2.28571 10.0286C3.15429 9.08 4.25714 8.43429 5.59429 8.09143L5.73143 8.4C4.96571 8.84571 4.42286 9.54857 4.10286 10.5086C3.77143 11.48 3.60571 12.5086 3.60571 13.5943C3.60571 15.2743 3.98857 16.6571 4.75429 17.7429C5.52 18.84 6.68 19.3886 8.23429 19.3886Z" stroke="url(#paint4_linear_580_182)" stroke-width="2" mask="url(#path-1-outside-1_580_182)"/>
<path d="M25.0482 14.0229C25.5625 14.0229 25.9111 14.1429 26.0939 14.3829C26.1282 14.44 26.2196 14.5829 26.3682 14.8114L29.1454 19.3886H26.8996C26.6368 19.3886 26.3796 19.3486 26.1282 19.2686C25.8882 19.1886 25.7282 19.08 25.6482 18.9429C25.5111 18.7143 24.9625 17.7771 24.0025 16.1314L22.6482 19.3886H13.8539V18.9771H14.5225L18.8596 10.2C19.0882 9.72 19.2025 9.40571 19.2025 9.25714C19.2025 8.97143 18.9225 8.82857 18.3625 8.82857V8.41714C18.3625 8.41714 21.0654 8.41714 26.4711 8.41714L27.8768 12.3771L27.5854 12.5314C27.1282 11.2971 26.6939 10.3714 26.2825 9.75429C25.8711 9.13714 25.3568 8.82857 24.7396 8.82857H23.2654C22.9454 8.82857 22.7168 8.88572 22.5796 9C22.5339 9.04572 22.4768 9.08571 22.4082 9.12C22.3511 9.14286 22.2996 9.17143 22.2539 9.20572C22.2196 9.24 22.1796 9.29714 22.1339 9.37714C22.0196 9.58286 21.9111 9.78857 21.8082 9.99429L21.6368 10.3371L17.3682 18.9771H20.3854C21.2539 18.9771 21.9225 18.7257 22.3911 18.2229C22.8482 17.7314 23.3168 16.9086 23.7968 15.7543L23.6768 15.5486C23.4711 15.16 23.2996 14.8971 23.1625 14.76C22.9454 14.5429 22.5625 14.4343 22.0139 14.4343H21.8768V14.0229H25.0482Z" stroke="url(#paint5_linear_580_182)" stroke-width="2" mask="url(#path-1-outside-1_580_182)"/>
<path d="M20.061 3.02286L19.7524 2.88571L20.541 1H26.4896V1.41143H25.8896L23.7981 5.78286L19.4096 4.24L19.5467 3.86286L21.5524 4.56571L23.0438 1.41143H22.4096C21.701 1.41143 21.2153 1.50286 20.9524 1.68571C20.6896 1.86857 20.3924 2.31429 20.061 3.02286Z" stroke="url(#paint6_linear_580_182)" stroke-width="2" mask="url(#path-1-outside-1_580_182)"/>
<path d="M36.6608 18.9771H37.5865L42.6093 8.82857H40.9465C40.2265 8.82857 39.695 8.97714 39.3522 9.27429C39.295 9.32 39.2379 9.36572 39.1808 9.41143C39.1236 9.45714 39.0779 9.49143 39.0436 9.51429C39.0208 9.53714 38.9922 9.56571 38.9579 9.6C38.9236 9.63429 38.8893 9.68 38.855 9.73714C38.8208 9.78286 38.7808 9.84571 38.735 9.92571C38.6322 10.12 38.3922 10.5886 38.015 11.3314L34.2265 18.9771H35.2722V19.3886H30.2836V18.9771H31.3636L35.2722 11.1257C35.5693 10.5543 35.8665 10.0914 36.1636 9.73714C36.4608 9.37143 36.8265 9.06857 37.2608 8.82857C37.7636 8.55429 38.7008 8.41714 40.0722 8.41714H46.055V8.82857H45.455L40.4322 18.9771H41.8208C42.3808 18.9771 42.8265 18.9143 43.1579 18.7886C43.5008 18.6629 43.7693 18.44 43.9636 18.12C44.0436 17.9829 44.4036 17.28 45.0436 16.0114L48.6093 8.82857H47.5122V8.41714H52.2608V8.82857H51.455L46.9808 17.88C46.7065 18.4514 46.3979 18.8457 46.055 19.0629C45.7236 19.28 45.1236 19.3886 44.255 19.3886H36.6608V18.9771Z" stroke="url(#paint7_linear_580_182)" stroke-width="2" mask="url(#path-1-outside-1_580_182)"/>
<defs>
<linearGradient id="paint0_linear_580_182" x1="168.345" y1="28.3887" x2="168.345" y2="-3.61133" gradientUnits="userSpaceOnUse">
<stop offset="0.0104167" stop-color="#FFF0DA"/>
<stop offset="0.0416667" stop-color="#94641E"/>
<stop offset="0.828125" stop-color="#FFF2DB"/>
<stop offset="0.9375" stop-color="#EAC885"/>
<stop offset="0.979167" stop-color="#FBF5D1"/>
<stop offset="0.9999" stop-color="#BD9A4B"/>
<stop offset="1" stop-color="#ECD8A3"/>
</linearGradient>
<linearGradient id="paint1_linear_580_182" x1="168.345" y1="28.3887" x2="168.345" y2="-3.61133" gradientUnits="userSpaceOnUse">
<stop offset="0.0104167" stop-color="#FFF0DA"/>
<stop offset="0.0416667" stop-color="#94641E"/>
<stop offset="0.828125" stop-color="#FFF2DB"/>
<stop offset="0.9375" stop-color="#EAC885"/>
<stop offset="0.979167" stop-color="#FBF5D1"/>
<stop offset="0.9999" stop-color="#BD9A4B"/>
<stop offset="1" stop-color="#ECD8A3"/>
</linearGradient>
<linearGradient id="paint2_linear_580_182" x1="168.345" y1="28.3887" x2="168.345" y2="-3.61133" gradientUnits="userSpaceOnUse">
<stop offset="0.0104167" stop-color="#FFF0DA"/>
<stop offset="0.0416667" stop-color="#94641E"/>
<stop offset="0.828125" stop-color="#FFF2DB"/>
<stop offset="0.9375" stop-color="#EAC885"/>
<stop offset="0.979167" stop-color="#FBF5D1"/>
<stop offset="0.9999" stop-color="#BD9A4B"/>
<stop offset="1" stop-color="#ECD8A3"/>
</linearGradient>
<linearGradient id="paint3_linear_580_182" x1="168.345" y1="28.3887" x2="168.345" y2="-3.61133" gradientUnits="userSpaceOnUse">
<stop offset="0.0104167" stop-color="#FFF0DA"/>
<stop offset="0.0416667" stop-color="#94641E"/>
<stop offset="0.828125" stop-color="#FFF2DB"/>
<stop offset="0.9375" stop-color="#EAC885"/>
<stop offset="0.979167" stop-color="#FBF5D1"/>
<stop offset="0.9999" stop-color="#BD9A4B"/>
<stop offset="1" stop-color="#ECD8A3"/>
</linearGradient>
<linearGradient id="paint4_linear_580_182" x1="100.951" y1="-3.61133" x2="100.951" y2="28.3887" gradientUnits="userSpaceOnUse">
<stop stop-color="#FCF6D1"/>
<stop offset="0.104167" stop-color="#BD9457"/>
<stop offset="0.25" stop-color="#E3CA89"/>
<stop offset="0.697917" stop-color="#FEE8C8"/>
<stop offset="0.854167" stop-color="#4D3A1A"/>
<stop offset="1" stop-color="#FCF0D1"/>
</linearGradient>
<linearGradient id="paint5_linear_580_182" x1="100.951" y1="-3.61133" x2="100.951" y2="28.3887" gradientUnits="userSpaceOnUse">
<stop stop-color="#FCF6D1"/>
<stop offset="0.104167" stop-color="#BD9457"/>
<stop offset="0.25" stop-color="#E3CA89"/>
<stop offset="0.697917" stop-color="#FEE8C8"/>
<stop offset="0.854167" stop-color="#4D3A1A"/>
<stop offset="1" stop-color="#FCF0D1"/>
</linearGradient>
<linearGradient id="paint6_linear_580_182" x1="100.951" y1="-3.61133" x2="100.951" y2="28.3887" gradientUnits="userSpaceOnUse">
<stop stop-color="#FCF6D1"/>
<stop offset="0.104167" stop-color="#BD9457"/>
<stop offset="0.25" stop-color="#E3CA89"/>
<stop offset="0.697917" stop-color="#FEE8C8"/>
<stop offset="0.854167" stop-color="#4D3A1A"/>
<stop offset="1" stop-color="#FCF0D1"/>
</linearGradient>
<linearGradient id="paint7_linear_580_182" x1="100.951" y1="-3.61133" x2="100.951" y2="28.3887" gradientUnits="userSpaceOnUse">
<stop stop-color="#FCF6D1"/>
<stop offset="0.104167" stop-color="#BD9457"/>
<stop offset="0.25" stop-color="#E3CA89"/>
<stop offset="0.697917" stop-color="#FEE8C8"/>
<stop offset="0.854167" stop-color="#4D3A1A"/>
<stop offset="1" stop-color="#FCF0D1"/>
</linearGradient>
</defs>
</svg>
