<svg width="62" height="29" viewBox="0 0 62 29" fill="none" xmlns="http://www.w3.org/2000/svg">
<g filter="url(#filter0_dd_459_415)">
<mask id="path-1-outside-1_459_415" maskUnits="userSpaceOnUse" x="4" y="0" width="54" height="21" fill="black">
<rect fill="white" x="4" width="54" height="21"/>
<path d="M12.2343 19.3886C13.32 19.3886 14.1657 19.0857 14.7714 18.48C15.3886 17.8743 15.6971 17.0229 15.6971 15.9257C15.6971 14.2 14.92 13.3371 13.3657 13.3371C12.5543 13.3371 11.8171 13.6857 11.1543 14.3829L10.8971 14.0571L14.36 8.84572H13.0229C12.3371 8.84572 11.8343 9.01143 11.5143 9.34286C11.1943 9.68571 10.6971 10.5257 10.0229 11.8629L9.71429 11.7086L11.1543 8.43429H17.9429V8.84572H17.1886L14.2571 12.7371C14.3143 12.7257 14.4686 12.72 14.72 12.72C15.4514 12.72 16.1829 12.9429 16.9143 13.3886C17.7486 13.9029 18.1657 14.7371 18.1657 15.8914C18.1657 18.4971 16.1886 19.8 12.2343 19.8C10.5086 19.8 9.05714 19.4857 7.88 18.8571C6.70286 18.2171 5.88 17.28 5.41143 16.0457C5.13714 15.3257 5 14.5086 5 13.5943C5 12.1657 5.42857 10.9771 6.28571 10.0286C7.15429 9.08 8.25714 8.43429 9.59429 8.09143L9.73143 8.4C8.96571 8.84571 8.42286 9.54857 8.10286 10.5086C7.77143 11.48 7.60571 12.5086 7.60571 13.5943C7.60571 15.2743 7.98857 16.6571 8.75429 17.7429C9.52 18.84 10.68 19.3886 12.2343 19.3886Z"/>
<path d="M29.0482 14.0229C29.5625 14.0229 29.9111 14.1429 30.0939 14.3829C30.1282 14.44 30.2196 14.5829 30.3682 14.8114L33.1454 19.3886H30.8996C30.6368 19.3886 30.3796 19.3486 30.1282 19.2686C29.8882 19.1886 29.7282 19.08 29.6482 18.9429C29.5111 18.7143 28.9625 17.7771 28.0025 16.1314L26.6482 19.3886H17.8539V18.9771H18.5225L22.8596 10.2C23.0882 9.72 23.2025 9.40571 23.2025 9.25714C23.2025 8.97143 22.9225 8.82857 22.3625 8.82857V8.41714C22.3625 8.41714 25.0654 8.41714 30.4711 8.41714L31.8768 12.3771L31.5854 12.5314C31.1282 11.2971 30.6939 10.3714 30.2825 9.75429C29.8711 9.13714 29.3568 8.82857 28.7396 8.82857H27.2654C26.9454 8.82857 26.7168 8.88572 26.5796 9C26.5339 9.04572 26.4768 9.08571 26.4082 9.12C26.3511 9.14286 26.2996 9.17143 26.2539 9.20572C26.2196 9.24 26.1796 9.29714 26.1339 9.37714C26.0196 9.58286 25.9111 9.78857 25.8082 9.99429L25.6368 10.3371L21.3682 18.9771H24.3854C25.2539 18.9771 25.9225 18.7257 26.3911 18.2229C26.8482 17.7314 27.3168 16.9086 27.7968 15.7543L27.6768 15.5486C27.4711 15.16 27.2996 14.8971 27.1625 14.76C26.9454 14.5429 26.5625 14.4343 26.0139 14.4343H25.8768V14.0229H29.0482Z"/>
<path d="M24.061 3.02286L23.7524 2.88571L24.541 1H30.4896V1.41143H29.8896L27.7981 5.78286L23.4096 4.24L23.5467 3.86286L25.5524 4.56571L27.0438 1.41143H26.4096C25.701 1.41143 25.2153 1.50286 24.9524 1.68571C24.6896 1.86857 24.3924 2.31429 24.061 3.02286Z"/>
<path d="M40.6608 18.9771H41.5865L46.6093 8.82857H44.9465C44.2265 8.82857 43.695 8.97714 43.3522 9.27429C43.295 9.32 43.2379 9.36572 43.1808 9.41143C43.1236 9.45714 43.0779 9.49143 43.0436 9.51429C43.0208 9.53714 42.9922 9.56571 42.9579 9.6C42.9236 9.63429 42.8893 9.68 42.855 9.73714C42.8208 9.78286 42.7808 9.84571 42.735 9.92571C42.6322 10.12 42.3922 10.5886 42.015 11.3314L38.2265 18.9771H39.2722V19.3886H34.2836V18.9771H35.3636L39.2722 11.1257C39.5693 10.5543 39.8665 10.0914 40.1636 9.73714C40.4608 9.37143 40.8265 9.06857 41.2608 8.82857C41.7636 8.55429 42.7008 8.41714 44.0722 8.41714H50.055V8.82857H49.455L44.4322 18.9771H45.8208C46.3808 18.9771 46.8265 18.9143 47.1579 18.7886C47.5008 18.6629 47.7693 18.44 47.9636 18.12C48.0436 17.9829 48.4036 17.28 49.0436 16.0114L52.6093 8.82857H51.5122V8.41714H56.2608V8.82857H55.455L50.9808 17.88C50.7065 18.4514 50.3979 18.8457 50.055 19.0629C49.7236 19.28 49.1236 19.3886 48.255 19.3886H40.6608V18.9771Z"/>
</mask>
<path d="M12.2343 19.3886C13.32 19.3886 14.1657 19.0857 14.7714 18.48C15.3886 17.8743 15.6971 17.0229 15.6971 15.9257C15.6971 14.2 14.92 13.3371 13.3657 13.3371C12.5543 13.3371 11.8171 13.6857 11.1543 14.3829L10.8971 14.0571L14.36 8.84572H13.0229C12.3371 8.84572 11.8343 9.01143 11.5143 9.34286C11.1943 9.68571 10.6971 10.5257 10.0229 11.8629L9.71429 11.7086L11.1543 8.43429H17.9429V8.84572H17.1886L14.2571 12.7371C14.3143 12.7257 14.4686 12.72 14.72 12.72C15.4514 12.72 16.1829 12.9429 16.9143 13.3886C17.7486 13.9029 18.1657 14.7371 18.1657 15.8914C18.1657 18.4971 16.1886 19.8 12.2343 19.8C10.5086 19.8 9.05714 19.4857 7.88 18.8571C6.70286 18.2171 5.88 17.28 5.41143 16.0457C5.13714 15.3257 5 14.5086 5 13.5943C5 12.1657 5.42857 10.9771 6.28571 10.0286C7.15429 9.08 8.25714 8.43429 9.59429 8.09143L9.73143 8.4C8.96571 8.84571 8.42286 9.54857 8.10286 10.5086C7.77143 11.48 7.60571 12.5086 7.60571 13.5943C7.60571 15.2743 7.98857 16.6571 8.75429 17.7429C9.52 18.84 10.68 19.3886 12.2343 19.3886Z" fill="url(#paint0_linear_459_415)"/>
<path d="M29.0482 14.0229C29.5625 14.0229 29.9111 14.1429 30.0939 14.3829C30.1282 14.44 30.2196 14.5829 30.3682 14.8114L33.1454 19.3886H30.8996C30.6368 19.3886 30.3796 19.3486 30.1282 19.2686C29.8882 19.1886 29.7282 19.08 29.6482 18.9429C29.5111 18.7143 28.9625 17.7771 28.0025 16.1314L26.6482 19.3886H17.8539V18.9771H18.5225L22.8596 10.2C23.0882 9.72 23.2025 9.40571 23.2025 9.25714C23.2025 8.97143 22.9225 8.82857 22.3625 8.82857V8.41714C22.3625 8.41714 25.0654 8.41714 30.4711 8.41714L31.8768 12.3771L31.5854 12.5314C31.1282 11.2971 30.6939 10.3714 30.2825 9.75429C29.8711 9.13714 29.3568 8.82857 28.7396 8.82857H27.2654C26.9454 8.82857 26.7168 8.88572 26.5796 9C26.5339 9.04572 26.4768 9.08571 26.4082 9.12C26.3511 9.14286 26.2996 9.17143 26.2539 9.20572C26.2196 9.24 26.1796 9.29714 26.1339 9.37714C26.0196 9.58286 25.9111 9.78857 25.8082 9.99429L25.6368 10.3371L21.3682 18.9771H24.3854C25.2539 18.9771 25.9225 18.7257 26.3911 18.2229C26.8482 17.7314 27.3168 16.9086 27.7968 15.7543L27.6768 15.5486C27.4711 15.16 27.2996 14.8971 27.1625 14.76C26.9454 14.5429 26.5625 14.4343 26.0139 14.4343H25.8768V14.0229H29.0482Z" fill="url(#paint1_linear_459_415)"/>
<path d="M24.061 3.02286L23.7524 2.88571L24.541 1H30.4896V1.41143H29.8896L27.7981 5.78286L23.4096 4.24L23.5467 3.86286L25.5524 4.56571L27.0438 1.41143H26.4096C25.701 1.41143 25.2153 1.50286 24.9524 1.68571C24.6896 1.86857 24.3924 2.31429 24.061 3.02286Z" fill="url(#paint2_linear_459_415)"/>
<path d="M40.6608 18.9771H41.5865L46.6093 8.82857H44.9465C44.2265 8.82857 43.695 8.97714 43.3522 9.27429C43.295 9.32 43.2379 9.36572 43.1808 9.41143C43.1236 9.45714 43.0779 9.49143 43.0436 9.51429C43.0208 9.53714 42.9922 9.56571 42.9579 9.6C42.9236 9.63429 42.8893 9.68 42.855 9.73714C42.8208 9.78286 42.7808 9.84571 42.735 9.92571C42.6322 10.12 42.3922 10.5886 42.015 11.3314L38.2265 18.9771H39.2722V19.3886H34.2836V18.9771H35.3636L39.2722 11.1257C39.5693 10.5543 39.8665 10.0914 40.1636 9.73714C40.4608 9.37143 40.8265 9.06857 41.2608 8.82857C41.7636 8.55429 42.7008 8.41714 44.0722 8.41714H50.055V8.82857H49.455L44.4322 18.9771H45.8208C46.3808 18.9771 46.8265 18.9143 47.1579 18.7886C47.5008 18.6629 47.7693 18.44 47.9636 18.12C48.0436 17.9829 48.4036 17.28 49.0436 16.0114L52.6093 8.82857H51.5122V8.41714H56.2608V8.82857H55.455L50.9808 17.88C50.7065 18.4514 50.3979 18.8457 50.055 19.0629C49.7236 19.28 49.1236 19.3886 48.255 19.3886H40.6608V18.9771Z" fill="url(#paint3_linear_459_415)"/>
<path d="M12.2343 19.3886C13.32 19.3886 14.1657 19.0857 14.7714 18.48C15.3886 17.8743 15.6971 17.0229 15.6971 15.9257C15.6971 14.2 14.92 13.3371 13.3657 13.3371C12.5543 13.3371 11.8171 13.6857 11.1543 14.3829L10.8971 14.0571L14.36 8.84572H13.0229C12.3371 8.84572 11.8343 9.01143 11.5143 9.34286C11.1943 9.68571 10.6971 10.5257 10.0229 11.8629L9.71429 11.7086L11.1543 8.43429H17.9429V8.84572H17.1886L14.2571 12.7371C14.3143 12.7257 14.4686 12.72 14.72 12.72C15.4514 12.72 16.1829 12.9429 16.9143 13.3886C17.7486 13.9029 18.1657 14.7371 18.1657 15.8914C18.1657 18.4971 16.1886 19.8 12.2343 19.8C10.5086 19.8 9.05714 19.4857 7.88 18.8571C6.70286 18.2171 5.88 17.28 5.41143 16.0457C5.13714 15.3257 5 14.5086 5 13.5943C5 12.1657 5.42857 10.9771 6.28571 10.0286C7.15429 9.08 8.25714 8.43429 9.59429 8.09143L9.73143 8.4C8.96571 8.84571 8.42286 9.54857 8.10286 10.5086C7.77143 11.48 7.60571 12.5086 7.60571 13.5943C7.60571 15.2743 7.98857 16.6571 8.75429 17.7429C9.52 18.84 10.68 19.3886 12.2343 19.3886Z" stroke="url(#paint4_linear_459_415)" stroke-width="2" mask="url(#path-1-outside-1_459_415)"/>
<path d="M29.0482 14.0229C29.5625 14.0229 29.9111 14.1429 30.0939 14.3829C30.1282 14.44 30.2196 14.5829 30.3682 14.8114L33.1454 19.3886H30.8996C30.6368 19.3886 30.3796 19.3486 30.1282 19.2686C29.8882 19.1886 29.7282 19.08 29.6482 18.9429C29.5111 18.7143 28.9625 17.7771 28.0025 16.1314L26.6482 19.3886H17.8539V18.9771H18.5225L22.8596 10.2C23.0882 9.72 23.2025 9.40571 23.2025 9.25714C23.2025 8.97143 22.9225 8.82857 22.3625 8.82857V8.41714C22.3625 8.41714 25.0654 8.41714 30.4711 8.41714L31.8768 12.3771L31.5854 12.5314C31.1282 11.2971 30.6939 10.3714 30.2825 9.75429C29.8711 9.13714 29.3568 8.82857 28.7396 8.82857H27.2654C26.9454 8.82857 26.7168 8.88572 26.5796 9C26.5339 9.04572 26.4768 9.08571 26.4082 9.12C26.3511 9.14286 26.2996 9.17143 26.2539 9.20572C26.2196 9.24 26.1796 9.29714 26.1339 9.37714C26.0196 9.58286 25.9111 9.78857 25.8082 9.99429L25.6368 10.3371L21.3682 18.9771H24.3854C25.2539 18.9771 25.9225 18.7257 26.3911 18.2229C26.8482 17.7314 27.3168 16.9086 27.7968 15.7543L27.6768 15.5486C27.4711 15.16 27.2996 14.8971 27.1625 14.76C26.9454 14.5429 26.5625 14.4343 26.0139 14.4343H25.8768V14.0229H29.0482Z" stroke="url(#paint5_linear_459_415)" stroke-width="2" mask="url(#path-1-outside-1_459_415)"/>
<path d="M24.061 3.02286L23.7524 2.88571L24.541 1H30.4896V1.41143H29.8896L27.7981 5.78286L23.4096 4.24L23.5467 3.86286L25.5524 4.56571L27.0438 1.41143H26.4096C25.701 1.41143 25.2153 1.50286 24.9524 1.68571C24.6896 1.86857 24.3924 2.31429 24.061 3.02286Z" stroke="url(#paint6_linear_459_415)" stroke-width="2" mask="url(#path-1-outside-1_459_415)"/>
<path d="M40.6608 18.9771H41.5865L46.6093 8.82857H44.9465C44.2265 8.82857 43.695 8.97714 43.3522 9.27429C43.295 9.32 43.2379 9.36572 43.1808 9.41143C43.1236 9.45714 43.0779 9.49143 43.0436 9.51429C43.0208 9.53714 42.9922 9.56571 42.9579 9.6C42.9236 9.63429 42.8893 9.68 42.855 9.73714C42.8208 9.78286 42.7808 9.84571 42.735 9.92571C42.6322 10.12 42.3922 10.5886 42.015 11.3314L38.2265 18.9771H39.2722V19.3886H34.2836V18.9771H35.3636L39.2722 11.1257C39.5693 10.5543 39.8665 10.0914 40.1636 9.73714C40.4608 9.37143 40.8265 9.06857 41.2608 8.82857C41.7636 8.55429 42.7008 8.41714 44.0722 8.41714H50.055V8.82857H49.455L44.4322 18.9771H45.8208C46.3808 18.9771 46.8265 18.9143 47.1579 18.7886C47.5008 18.6629 47.7693 18.44 47.9636 18.12C48.0436 17.9829 48.4036 17.28 49.0436 16.0114L52.6093 8.82857H51.5122V8.41714H56.2608V8.82857H55.455L50.9808 17.88C50.7065 18.4514 50.3979 18.8457 50.055 19.0629C49.7236 19.28 49.1236 19.3886 48.255 19.3886H40.6608V18.9771Z" stroke="url(#paint7_linear_459_415)" stroke-width="2" mask="url(#path-1-outside-1_459_415)"/>
</g>
<defs>
<filter id="filter0_dd_459_415" x="0" y="0" width="61.2607" height="28.7998" filterUnits="userSpaceOnUse" color-interpolation-filters="sRGB">
<feFlood flood-opacity="0" result="BackgroundImageFix"/>
<feColorMatrix in="SourceAlpha" type="matrix" values="0 0 0 0 0 0 0 0 0 0 0 0 0 0 0 0 0 0 127 0" result="hardAlpha"/>
<feOffset dy="1"/>
<feGaussianBlur stdDeviation="0.05"/>
<feComposite in2="hardAlpha" operator="out"/>
<feColorMatrix type="matrix" values="0 0 0 0 0 0 0 0 0 0 0 0 0 0 0 0 0 0 0.25 0"/>
<feBlend mode="normal" in2="BackgroundImageFix" result="effect1_dropShadow_459_415"/>
<feColorMatrix in="SourceAlpha" type="matrix" values="0 0 0 0 0 0 0 0 0 0 0 0 0 0 0 0 0 0 127 0" result="hardAlpha"/>
<feOffset dy="4"/>
<feGaussianBlur stdDeviation="2"/>
<feComposite in2="hardAlpha" operator="out"/>
<feColorMatrix type="matrix" values="0 0 0 0 0 0 0 0 0 0 0 0 0 0 0 0 0 0 0.25 0"/>
<feBlend mode="normal" in2="effect1_dropShadow_459_415" result="effect2_dropShadow_459_415"/>
<feBlend mode="normal" in="SourceGraphic" in2="effect2_dropShadow_459_415" result="shape"/>
</filter>
<linearGradient id="paint0_linear_459_415" x1="172.345" y1="28.3887" x2="172.345" y2="-3.61133" gradientUnits="userSpaceOnUse">
<stop offset="0.0104167" stop-color="#FFF0DA"/>
<stop offset="0.0416667" stop-color="#94641E"/>
<stop offset="0.828125" stop-color="#FFF2DB"/>
<stop offset="0.9375" stop-color="#EAC885"/>
<stop offset="0.979167" stop-color="#FBF5D1"/>
<stop offset="0.9999" stop-color="#BD9A4B"/>
<stop offset="1" stop-color="#ECD8A3"/>
</linearGradient>
<linearGradient id="paint1_linear_459_415" x1="172.345" y1="28.3887" x2="172.345" y2="-3.61133" gradientUnits="userSpaceOnUse">
<stop offset="0.0104167" stop-color="#FFF0DA"/>
<stop offset="0.0416667" stop-color="#94641E"/>
<stop offset="0.828125" stop-color="#FFF2DB"/>
<stop offset="0.9375" stop-color="#EAC885"/>
<stop offset="0.979167" stop-color="#FBF5D1"/>
<stop offset="0.9999" stop-color="#BD9A4B"/>
<stop offset="1" stop-color="#ECD8A3"/>
</linearGradient>
<linearGradient id="paint2_linear_459_415" x1="172.345" y1="28.3887" x2="172.345" y2="-3.61133" gradientUnits="userSpaceOnUse">
<stop offset="0.0104167" stop-color="#FFF0DA"/>
<stop offset="0.0416667" stop-color="#94641E"/>
<stop offset="0.828125" stop-color="#FFF2DB"/>
<stop offset="0.9375" stop-color="#EAC885"/>
<stop offset="0.979167" stop-color="#FBF5D1"/>
<stop offset="0.9999" stop-color="#BD9A4B"/>
<stop offset="1" stop-color="#ECD8A3"/>
</linearGradient>
<linearGradient id="paint3_linear_459_415" x1="172.345" y1="28.3887" x2="172.345" y2="-3.61133" gradientUnits="userSpaceOnUse">
<stop offset="0.0104167" stop-color="#FFF0DA"/>
<stop offset="0.0416667" stop-color="#94641E"/>
<stop offset="0.828125" stop-color="#FFF2DB"/>
<stop offset="0.9375" stop-color="#EAC885"/>
<stop offset="0.979167" stop-color="#FBF5D1"/>
<stop offset="0.9999" stop-color="#BD9A4B"/>
<stop offset="1" stop-color="#ECD8A3"/>
</linearGradient>
<linearGradient id="paint4_linear_459_415" x1="104.951" y1="-3.61133" x2="104.951" y2="28.3887" gradientUnits="userSpaceOnUse">
<stop stop-color="#FCF6D1"/>
<stop offset="0.104167" stop-color="#BD9457"/>
<stop offset="0.25" stop-color="#E3CA89"/>
<stop offset="0.697917" stop-color="#FEE8C8"/>
<stop offset="0.854167" stop-color="#4D3A1A"/>
<stop offset="1" stop-color="#FCF0D1"/>
</linearGradient>
<linearGradient id="paint5_linear_459_415" x1="104.951" y1="-3.61133" x2="104.951" y2="28.3887" gradientUnits="userSpaceOnUse">
<stop stop-color="#FCF6D1"/>
<stop offset="0.104167" stop-color="#BD9457"/>
<stop offset="0.25" stop-color="#E3CA89"/>
<stop offset="0.697917" stop-color="#FEE8C8"/>
<stop offset="0.854167" stop-color="#4D3A1A"/>
<stop offset="1" stop-color="#FCF0D1"/>
</linearGradient>
<linearGradient id="paint6_linear_459_415" x1="104.951" y1="-3.61133" x2="104.951" y2="28.3887" gradientUnits="userSpaceOnUse">
<stop stop-color="#FCF6D1"/>
<stop offset="0.104167" stop-color="#BD9457"/>
<stop offset="0.25" stop-color="#E3CA89"/>
<stop offset="0.697917" stop-color="#FEE8C8"/>
<stop offset="0.854167" stop-color="#4D3A1A"/>
<stop offset="1" stop-color="#FCF0D1"/>
</linearGradient>
<linearGradient id="paint7_linear_459_415" x1="104.951" y1="-3.61133" x2="104.951" y2="28.3887" gradientUnits="userSpaceOnUse">
<stop stop-color="#FCF6D1"/>
<stop offset="0.104167" stop-color="#BD9457"/>
<stop offset="0.25" stop-color="#E3CA89"/>
<stop offset="0.697917" stop-color="#FEE8C8"/>
<stop offset="0.854167" stop-color="#4D3A1A"/>
<stop offset="1" stop-color="#FCF0D1"/>
</linearGradient>
</defs>
</svg>
