<svg width="115" height="45" viewBox="0 0 115 45" fill="none" xmlns="http://www.w3.org/2000/svg">
<mask id="path-1-inside-1_138_36485" fill="white">
<path d="M110.883 21.9989C112.03 21.5258 113.277 21.6443 114.493 21.7872C114.067 21.6171 113.656 21.4248 113.253 21.2365C113.076 21.1536 112.899 21.071 112.722 20.9906C111.151 20.2781 109.609 19.6849 108.023 20.2335C106.165 20.8763 104.524 22.4153 103.301 23.6841C103.257 23.7305 103.222 23.7851 103.185 23.8381C103.113 23.942 103.022 24.0712 102.895 24.1873C100.599 26.2908 96.0133 28.5373 92.802 26.1084C91.7578 25.319 91.0089 24.2388 90.3889 23.2882C88.5149 20.4142 86.2971 17.9069 82.7965 19.004C82.7133 19.0302 82.6276 19.0714 82.5284 19.1191C82.4136 19.1746 82.2984 19.2286 82.1754 19.2719C82.126 19.2894 82.0613 19.3154 81.9888 19.3441C81.5427 19.5219 81.2017 19.6436 80.9105 19.6021C80.7143 19.5741 80.5479 19.444 80.4732 19.2608C80.2352 18.6782 80.7528 18.2159 81.031 17.9675C81.076 17.9275 81.117 17.8922 81.1446 17.8626C81.3157 17.6773 81.503 17.5319 81.6847 17.3911C81.895 17.2278 82.0936 17.0735 82.2084 16.8946C83.4328 14.985 83.4633 13.1007 82.2967 11.4451C80.5011 8.89701 76.1609 7.396 72.8184 8.16952C71.1929 8.54508 69.1572 9.60023 68.6913 12.4928L68.3488 14.6191C68.3006 14.922 68.0193 15.1302 67.7128 15.0818C67.41 15.0349 67.2014 14.7523 67.2464 14.4487C67.5163 12.6278 67.8222 10.5638 67.2098 8.74834C66.8197 7.59241 66.024 6.44744 64.7768 5.24822C60.2921 0.935582 53.4997 -0.844159 47.4765 0.71384C44.6438 1.44664 42.3248 2.95435 40.1784 5.45885C38.7968 7.07091 37.1332 9.24537 36.5293 11.7738C35.6514 15.4471 37.1808 19.6114 40.3353 22.1361C43.2874 24.4987 47.4561 25.3777 51.4859 24.4864C52.6333 24.233 53.6693 23.8505 54.5737 23.3608C55.0786 22.9264 55.6407 22.527 56.2619 22.1763C56.388 22.0615 56.5138 21.9463 56.6296 21.825C59.1978 19.1366 58.8215 14.8547 57.0004 12.4296C55.3914 10.2875 53.008 9.82025 50.4613 11.1464C49.6681 11.5593 48.7387 12.4445 48.5725 13.4116C48.4861 13.9166 48.6288 14.3604 49.0098 14.7685C49.2201 14.9937 49.2078 15.3468 48.9826 15.5571C48.7578 15.767 48.4052 15.7552 48.1942 15.5299C47.5771 14.8686 47.3276 14.071 47.4729 13.223C47.7042 11.8739 48.8817 10.711 49.9463 10.1568C52.9815 8.57707 55.9521 9.1759 57.8923 11.7596C59.7021 14.1695 60.2573 18.1802 58.4595 21.2335C60.1894 20.6982 62.2373 20.4982 64.6165 20.8034C67.0772 21.1191 70.3599 22.5852 71.5134 25.6795C72.7515 28.9989 70.7496 32.4792 68.2369 34.0681C66.5804 35.1156 64.25 35.3621 62.5695 34.6694C61.2889 34.141 60.4485 33.1461 60.1393 31.792C59.6589 29.6867 60.9085 27.5199 62.8679 27.0602C63.9493 26.8066 64.964 26.9618 65.5829 27.4749C65.9122 27.748 66.2965 28.2592 66.2573 29.1438C66.233 29.6913 65.9177 30.2334 65.435 30.5589C64.9905 30.8585 64.4697 30.9371 64.0052 30.773C63.7147 30.6705 63.5621 30.3518 63.6649 30.0614C63.7674 29.7707 64.0866 29.619 64.3765 29.7209C64.5585 29.7853 64.7411 29.6816 64.8112 29.634C65.0041 29.5041 65.1341 29.2922 65.1432 29.094C65.1584 28.7472 65.0694 28.4984 64.8708 28.3338C64.5294 28.0507 63.8444 27.9768 63.123 28.1465C61.6063 28.502 60.9185 30.1902 61.2271 31.5438C61.4552 32.5435 62.0501 33.2481 62.9952 33.6378C64.3612 34.2017 66.2724 33.9906 67.6406 33.1252C69.7821 31.7708 71.5007 28.8377 70.4682 26.0692C69.4883 23.441 66.6274 22.186 64.475 21.9101C61.3204 21.5056 58.8097 22.0574 56.9058 23.1038C56.4133 23.5365 55.853 23.9209 55.2432 24.263C54.154 25.2134 53.3728 26.343 52.8896 27.4823C51.3906 31.0163 52.3063 35.8614 54.8011 39.284C54.8497 39.2999 54.8974 39.3201 54.9417 39.3504C55.0908 39.4515 55.1731 39.6122 55.1833 39.779C55.7957 40.5362 56.489 41.2116 57.2555 41.7687C60.5747 44.1802 66.0457 44.7407 69.4532 43.0176C71.8402 41.8102 73.8282 39.612 75.0996 36.7901C74.4862 36.6012 73.9306 36.3367 73.4509 36.0003C72.2604 35.1655 71.518 33.837 71.5136 32.5331C71.5124 32.2251 71.7617 31.9744 72.0696 31.9734C72.0703 31.9734 72.0707 31.9734 72.0715 31.9734C72.3788 31.9734 72.6283 32.222 72.6295 32.5295C72.6327 33.4767 73.1927 34.4567 74.0916 35.087C74.8848 35.6434 75.9552 35.9625 77.1868 36.0099C79.8324 36.1141 82.2822 34.9984 84.9109 32.5074C85.1347 32.2954 85.4877 32.3048 85.6995 32.5286C85.9113 32.7522 85.9019 33.1054 85.6781 33.3174C82.9722 35.8812 80.2947 37.1318 77.5054 37.1318C77.3851 37.1318 77.2646 37.1294 77.144 37.1249C76.8388 37.1131 76.5429 37.0834 76.2541 37.0423C75.8505 38.8836 77.7131 40.6711 78.9588 41.4785C81.0103 42.8069 83.8508 43.0296 86.3724 42.0592C88.7012 41.1631 90.7187 39.0958 92.0629 36.2356C91.2144 35.2798 90.8625 33.9995 90.9942 32.892C91.1638 31.463 92.1946 29.917 94.5775 29.8629C94.868 29.8564 95.8901 29.9006 96.6814 30.7495C97.3326 31.4478 97.6028 32.4467 97.4844 33.7177C97.4557 34.0245 97.1774 34.25 96.8775 34.2214C96.5706 34.1929 96.3451 33.9212 96.3738 33.6142C96.4614 32.6737 96.2903 31.9659 95.8657 31.5104C95.4879 31.1056 94.9595 30.9718 94.6028 30.9783C92.5594 31.0248 92.1731 32.4242 92.1019 33.0236C91.9443 34.3491 92.7688 35.982 94.4216 36.4207C96.5728 36.9915 99.9945 36.2306 101.465 34.2252C101.811 33.7543 101.752 33.3788 101.663 32.8101C101.592 32.3505 101.51 31.8292 101.669 31.2194C102.056 29.7269 103.404 29.8012 104.207 29.8448C104.47 29.8595 104.713 29.859 104.994 29.8756C105.192 29.887 105.417 29.9006 105.539 29.864C106.649 29.5331 106.926 28.4606 107.221 26.8617C107.298 26.4424 107.372 26.0463 107.475 25.6714C107.944 23.9738 109.091 22.7383 110.883 21.9989Z"/>
</mask>
<path d="M110.883 21.9989C112.03 21.5258 113.277 21.6443 114.493 21.7872C114.067 21.6171 113.656 21.4248 113.253 21.2365C113.076 21.1536 112.899 21.071 112.722 20.9906C111.151 20.2781 109.609 19.6849 108.023 20.2335C106.165 20.8763 104.524 22.4153 103.301 23.6841C103.257 23.7305 103.222 23.7851 103.185 23.8381C103.113 23.942 103.022 24.0712 102.895 24.1873C100.599 26.2908 96.0133 28.5373 92.802 26.1084C91.7578 25.319 91.0089 24.2388 90.3889 23.2882C88.5149 20.4142 86.2971 17.9069 82.7965 19.004C82.7133 19.0302 82.6276 19.0714 82.5284 19.1191C82.4136 19.1746 82.2984 19.2286 82.1754 19.2719C82.126 19.2894 82.0613 19.3154 81.9888 19.3441C81.5427 19.5219 81.2017 19.6436 80.9105 19.6021C80.7143 19.5741 80.5479 19.444 80.4732 19.2608C80.2352 18.6782 80.7528 18.2159 81.031 17.9675C81.076 17.9275 81.117 17.8922 81.1446 17.8626C81.3157 17.6773 81.503 17.5319 81.6847 17.3911C81.895 17.2278 82.0936 17.0735 82.2084 16.8946C83.4328 14.985 83.4633 13.1007 82.2967 11.4451C80.5011 8.89701 76.1609 7.396 72.8184 8.16952C71.1929 8.54508 69.1572 9.60023 68.6913 12.4928L68.3488 14.6191C68.3006 14.922 68.0193 15.1302 67.7128 15.0818C67.41 15.0349 67.2014 14.7523 67.2464 14.4487C67.5163 12.6278 67.8222 10.5638 67.2098 8.74834C66.8197 7.59241 66.024 6.44744 64.7768 5.24822C60.2921 0.935582 53.4997 -0.844159 47.4765 0.71384C44.6438 1.44664 42.3248 2.95435 40.1784 5.45885C38.7968 7.07091 37.1332 9.24537 36.5293 11.7738C35.6514 15.4471 37.1808 19.6114 40.3353 22.1361C43.2874 24.4987 47.4561 25.3777 51.4859 24.4864C52.6333 24.233 53.6693 23.8505 54.5737 23.3608C55.0786 22.9264 55.6407 22.527 56.2619 22.1763C56.388 22.0615 56.5138 21.9463 56.6296 21.825C59.1978 19.1366 58.8215 14.8547 57.0004 12.4296C55.3914 10.2875 53.008 9.82025 50.4613 11.1464C49.6681 11.5593 48.7387 12.4445 48.5725 13.4116C48.4861 13.9166 48.6288 14.3604 49.0098 14.7685C49.2201 14.9937 49.2078 15.3468 48.9826 15.5571C48.7578 15.767 48.4052 15.7552 48.1942 15.5299C47.5771 14.8686 47.3276 14.071 47.4729 13.223C47.7042 11.8739 48.8817 10.711 49.9463 10.1568C52.9815 8.57707 55.9521 9.1759 57.8923 11.7596C59.7021 14.1695 60.2573 18.1802 58.4595 21.2335C60.1894 20.6982 62.2373 20.4982 64.6165 20.8034C67.0772 21.1191 70.3599 22.5852 71.5134 25.6795C72.7515 28.9989 70.7496 32.4792 68.2369 34.0681C66.5804 35.1156 64.25 35.3621 62.5695 34.6694C61.2889 34.141 60.4485 33.1461 60.1393 31.792C59.6589 29.6867 60.9085 27.5199 62.8679 27.0602C63.9493 26.8066 64.964 26.9618 65.5829 27.4749C65.9122 27.748 66.2965 28.2592 66.2573 29.1438C66.233 29.6913 65.9177 30.2334 65.435 30.5589C64.9905 30.8585 64.4697 30.9371 64.0052 30.773C63.7147 30.6705 63.5621 30.3518 63.6649 30.0614C63.7674 29.7707 64.0866 29.619 64.3765 29.7209C64.5585 29.7853 64.7411 29.6816 64.8112 29.634C65.0041 29.5041 65.1341 29.2922 65.1432 29.094C65.1584 28.7472 65.0694 28.4984 64.8708 28.3338C64.5294 28.0507 63.8444 27.9768 63.123 28.1465C61.6063 28.502 60.9185 30.1902 61.2271 31.5438C61.4552 32.5435 62.0501 33.2481 62.9952 33.6378C64.3612 34.2017 66.2724 33.9906 67.6406 33.1252C69.7821 31.7708 71.5007 28.8377 70.4682 26.0692C69.4883 23.441 66.6274 22.186 64.475 21.9101C61.3204 21.5056 58.8097 22.0574 56.9058 23.1038C56.4133 23.5365 55.853 23.9209 55.2432 24.263C54.154 25.2134 53.3728 26.343 52.8896 27.4823C51.3906 31.0163 52.3063 35.8614 54.8011 39.284C54.8497 39.2999 54.8974 39.3201 54.9417 39.3504C55.0908 39.4515 55.1731 39.6122 55.1833 39.779C55.7957 40.5362 56.489 41.2116 57.2555 41.7687C60.5747 44.1802 66.0457 44.7407 69.4532 43.0176C71.8402 41.8102 73.8282 39.612 75.0996 36.7901C74.4862 36.6012 73.9306 36.3367 73.4509 36.0003C72.2604 35.1655 71.518 33.837 71.5136 32.5331C71.5124 32.2251 71.7617 31.9744 72.0696 31.9734C72.0703 31.9734 72.0707 31.9734 72.0715 31.9734C72.3788 31.9734 72.6283 32.222 72.6295 32.5295C72.6327 33.4767 73.1927 34.4567 74.0916 35.087C74.8848 35.6434 75.9552 35.9625 77.1868 36.0099C79.8324 36.1141 82.2822 34.9984 84.9109 32.5074C85.1347 32.2954 85.4877 32.3048 85.6995 32.5286C85.9113 32.7522 85.9019 33.1054 85.6781 33.3174C82.9722 35.8812 80.2947 37.1318 77.5054 37.1318C77.3851 37.1318 77.2646 37.1294 77.144 37.1249C76.8388 37.1131 76.5429 37.0834 76.2541 37.0423C75.8505 38.8836 77.7131 40.6711 78.9588 41.4785C81.0103 42.8069 83.8508 43.0296 86.3724 42.0592C88.7012 41.1631 90.7187 39.0958 92.0629 36.2356C91.2144 35.2798 90.8625 33.9995 90.9942 32.892C91.1638 31.463 92.1946 29.917 94.5775 29.8629C94.868 29.8564 95.8901 29.9006 96.6814 30.7495C97.3326 31.4478 97.6028 32.4467 97.4844 33.7177C97.4557 34.0245 97.1774 34.25 96.8775 34.2214C96.5706 34.1929 96.3451 33.9212 96.3738 33.6142C96.4614 32.6737 96.2903 31.9659 95.8657 31.5104C95.4879 31.1056 94.9595 30.9718 94.6028 30.9783C92.5594 31.0248 92.1731 32.4242 92.1019 33.0236C91.9443 34.3491 92.7688 35.982 94.4216 36.4207C96.5728 36.9915 99.9945 36.2306 101.465 34.2252C101.811 33.7543 101.752 33.3788 101.663 32.8101C101.592 32.3505 101.51 31.8292 101.669 31.2194C102.056 29.7269 103.404 29.8012 104.207 29.8448C104.47 29.8595 104.713 29.859 104.994 29.8756C105.192 29.887 105.417 29.9006 105.539 29.864C106.649 29.5331 106.926 28.4606 107.221 26.8617C107.298 26.4424 107.372 26.0463 107.475 25.6714C107.944 23.9738 109.091 22.7383 110.883 21.9989Z" fill="url(#paint0_linear_138_36485)" stroke="url(#paint1_linear_138_36485)" stroke-width="1.02658" mask="url(#path-1-inside-1_138_36485)"/>
<path d="M28.9831 20.091L28.983 20.091C27.9188 20.941 26.9017 22.2025 26.2099 23.637C25.5178 25.0718 25.1596 26.6615 25.3858 28.1718L25.3858 28.1719C25.594 29.5626 26.3457 30.8649 27.446 31.7414C28.2154 32.3542 29.3598 32.7581 30.5796 32.8977C31.7979 33.037 33.0587 32.9088 34.0514 32.4909C35.2762 31.9754 35.9318 31.1254 36.0509 29.9541C36.2043 28.4438 35.127 27.404 34.0299 27.0826L34.0298 27.0826C33.5604 26.945 33.0225 26.9244 32.524 27.0976C32.0314 27.2688 31.56 27.6348 31.221 28.3042C31.0176 28.7065 30.5262 28.8655 30.1265 28.6629C29.7251 28.4596 29.5644 27.9695 29.768 27.568C30.6848 25.7586 32.5449 24.9495 34.4881 25.5191C36.1827 26.0156 37.9214 27.6634 37.6717 30.1183C37.6717 30.1184 37.6716 30.1184 37.6716 30.1184L37.4163 30.0924C37.2474 31.757 36.2414 33.0578 34.5842 33.7554L28.9831 20.091ZM28.9831 20.091C30.6118 18.7898 32.9712 18.0328 35.6717 17.9512C36.4289 19.9624 37.7304 21.8095 39.4771 23.2074C42.7558 25.8314 47.3554 26.8048 51.7812 25.8264C51.9422 25.7909 52.1004 25.7523 52.2562 25.7115C52.0122 26.1175 51.8019 26.531 51.6258 26.9462C49.9399 30.921 50.8666 36.1341 53.5462 39.9078C52.6519 41.0357 51.4888 41.9643 50.2301 42.4101C48.9252 42.8722 47.5144 42.8181 46.1611 41.9228L46.1611 41.9228C45.8168 41.6952 45.4743 41.4404 45.1946 41.2099C44.963 41.0191 44.7878 40.8557 44.688 40.7434C44.6943 40.5098 44.6003 40.2748 44.4104 40.1086C44.0737 39.8138 43.5616 39.8463 43.2653 40.18C43.2612 40.1844 43.2577 40.1886 43.2545 40.1925C43.0654 40.4087 42.884 40.6216 42.7075 40.829L42.7041 40.833C42.704 40.833 42.704 40.833 42.704 40.833C41.6831 42.0316 40.8404 43.0159 39.3573 43.6221L39.3573 43.6221C37.9106 44.2136 36.1893 44.3911 34.6434 44.1092C32.2354 43.6698 30.9295 42.5284 29.0539 40.8822L29.0539 40.8821L29.0442 40.8736C28.8131 40.6709 28.5754 40.4623 28.3285 40.249L28.3285 40.249M28.9831 20.091L28.3285 40.249M7.93335 33.6913L7.93331 33.6913C6.52543 33.8018 5.61431 33.3975 4.6999 32.9917L4.68668 32.9858L4.68664 32.9858L4.68632 32.9857C4.33098 32.8281 3.97431 32.6699 3.57178 32.5315C3.57172 32.5315 3.57166 32.5315 3.57159 32.5315L3.655 32.2888C3.49776 32.2349 3.34583 32.1741 3.19527 32.1139L7.93335 33.6913ZM7.93335 33.6913C8.74922 33.6272 9.65682 33.5302 10.4838 33.1155C12.1335 32.2884 13.1097 30.8461 14.0129 29.5119L14.0286 29.4888C14.7521 28.42 15.407 27.4572 16.3272 26.78C18.4736 25.2012 21.5581 25.1272 23.7235 26.5731L7.93335 33.6913ZM1.27358 32.1322C1.79044 32.4604 2.20236 32.9074 2.53198 33.3699C2.99287 34.0165 3.3067 34.7134 3.52486 35.1979L3.52766 35.2041L3.52769 35.2042C4.04749 36.3594 4.57706 37.2708 5.25905 37.9109C5.93209 38.5426 6.76723 38.9227 7.92877 38.9884C10.057 39.1084 11.7069 38.0425 13.5354 36.8482L13.5354 36.8481L13.5461 36.8412C14.5125 36.2101 15.5335 35.5435 16.6607 35.0641M1.27358 32.1322L16.6607 35.0641M1.27358 32.1322C1.54539 32.0958 1.8379 32.084 2.18206 32.0941L1.27358 32.1322ZM16.6607 35.0641C16.9523 34.9399 17.2381 34.8447 17.5187 34.7634M16.6607 35.0641C16.6606 35.0641 16.6606 35.0641 16.6606 35.0641L17.5187 34.7634M17.5187 34.7634C17.6163 34.6862 17.7341 34.6286 17.8676 34.6029L17.868 34.6028C18.3134 34.5176 18.7447 34.4801 19.1638 34.4797C21.7578 34.3446 24.1195 35.633 26.3435 36.8464L26.3528 36.8514C28.0861 37.797 29.8257 38.7425 31.5749 38.9984C34.2936 39.3956 36.9459 38.6795 38.683 37.1118L17.5187 34.7634ZM28.3285 40.249C27.9671 39.9369 27.5746 39.5487 27.1543 39.1256M28.3285 40.249L27.1543 39.1256M27.1543 39.1256C28.4842 39.8038 29.8751 40.3964 31.3393 40.6106C31.9097 40.694 32.4794 40.7349 33.0424 40.7349C35.6073 40.7349 38.0421 39.8848 39.7745 38.3207C40.1086 38.0193 40.1353 37.5042 39.8333 37.1703C39.5318 36.8361 39.017 36.8096 38.6833 37.1115L27.1543 39.1256Z" fill="url(#paint2_linear_138_36485)" stroke="url(#paint3_linear_138_36485)" stroke-width="0.513288"/>
<defs>
<linearGradient id="paint0_linear_138_36485" x1="101.611" y1="44.0173" x2="101.611" y2="0.157717" gradientUnits="userSpaceOnUse">
<stop offset="0.0104167" stop-color="#FFF0DA"/>
<stop offset="0.0416667" stop-color="#94641E"/>
<stop offset="0.828125" stop-color="#FFF2DB"/>
<stop offset="0.9375" stop-color="#EAC885"/>
<stop offset="0.979167" stop-color="#FBF5D1"/>
<stop offset="0.9999" stop-color="#BD9A4B"/>
<stop offset="1" stop-color="#ECD8A3"/>
</linearGradient>
<linearGradient id="paint1_linear_138_36485" x1="75.3885" y1="0.157715" x2="75.3885" y2="44.0173" gradientUnits="userSpaceOnUse">
<stop stop-color="#FCF6D1"/>
<stop offset="0.104167" stop-color="#BD9457"/>
<stop offset="0.25" stop-color="#E3CA89"/>
<stop offset="0.697917" stop-color="#FEE8C8"/>
<stop offset="0.854167" stop-color="#4D3A1A"/>
<stop offset="1" stop-color="#FCF0D1"/>
</linearGradient>
<linearGradient id="paint2_linear_138_36485" x1="45.0779" y1="44.4969" x2="45.0779" y2="17.6902" gradientUnits="userSpaceOnUse">
<stop offset="0.0104167" stop-color="#FFF0DA"/>
<stop offset="0.0416667" stop-color="#94641E"/>
<stop offset="0.828125" stop-color="#FFF2DB"/>
<stop offset="0.9375" stop-color="#EAC885"/>
<stop offset="0.979167" stop-color="#FBF5D1"/>
<stop offset="0.9999" stop-color="#BD9A4B"/>
<stop offset="1" stop-color="#ECD8A3"/>
</linearGradient>
<linearGradient id="paint3_linear_138_36485" x1="27.1868" y1="17.6902" x2="27.1868" y2="44.4969" gradientUnits="userSpaceOnUse">
<stop stop-color="#FCF6D1"/>
<stop offset="0.104167" stop-color="#BD9457"/>
<stop offset="0.25" stop-color="#E3CA89"/>
<stop offset="0.697917" stop-color="#FEE8C8"/>
<stop offset="0.854167" stop-color="#4D3A1A"/>
<stop offset="1" stop-color="#FCF0D1"/>
</linearGradient>
</defs>
</svg>
