<svg width="273" height="30" viewBox="0 0 273 30" fill="none" xmlns="http://www.w3.org/2000/svg">
<g clip-path="url(#clip0_114_2123)">
<path d="M273 21.8279C272.39 21.8539 271.781 21.8279 271.171 21.7961L269.342 21.7036C268.733 21.6776 268.12 21.6661 267.511 21.669C266.901 21.669 266.292 21.6487 265.682 21.6314C265.073 21.6141 264.457 21.6054 263.851 21.6141C263.241 21.6141 262.631 21.591 262.022 21.5707C260.803 21.5216 259.566 21.5765 258.367 21.5043C258.061 21.4696 257.749 21.4783 257.446 21.4754L256.53 21.4696L254.699 21.4465L251.035 21.3974L249.204 21.3801C248.594 21.3772 247.982 21.3685 247.369 21.3772C246.754 21.3859 246.147 21.4263 245.538 21.435C244.928 21.4494 244.319 21.4494 243.709 21.4523L241.878 21.4581C241.265 21.4581 240.656 21.4928 240.052 21.4725C239.442 21.4379 238.827 21.4379 238.22 21.4263C237.914 21.4205 237.614 21.4061 237.307 21.3859C237.001 21.3714 236.695 21.3685 236.389 21.3685C235.167 21.4032 233.953 21.3541 232.729 21.3396C232.119 21.3223 231.507 21.3252 230.897 21.331L229.065 21.3425C226.624 21.3743 224.183 21.4696 221.742 21.4956C221.133 21.4956 220.523 21.5216 219.913 21.4956L218.082 21.4523C216.863 21.4407 215.641 21.4408 214.422 21.409C211.981 21.3628 209.539 21.3079 207.098 21.2443C205.873 21.2039 204.666 21.2067 203.432 21.1894C202.814 21.201 202.222 21.2183 201.607 21.175C200.991 21.1547 200.379 21.175 199.769 21.1923C199.466 21.201 199.16 21.2068 198.856 21.2039C198.556 21.201 198.241 21.1923 197.938 21.2039C197.322 21.2241 196.721 21.2587 196.115 21.2356C195.502 21.2356 194.884 21.2183 194.28 21.227C193.674 21.2299 193.061 21.1981 192.446 21.227C191.842 21.253 191.235 21.227 190.623 21.2183C190.317 21.2125 190.008 21.2154 189.701 21.227C189.407 21.2385 189.106 21.2154 188.803 21.1865C188.5 21.1605 188.188 21.1345 187.876 21.1432L186.96 21.1663C186.654 21.1721 186.365 21.1547 186.053 21.1345C185.744 21.1172 185.437 21.1143 185.131 21.1172L183.297 21.1316C182.988 21.1316 182.69 21.1461 182.387 21.1374L181.471 21.1143C181.321 21.1085 181.15 21.1143 181.003 21.1287C180.847 21.1403 180.72 21.1432 180.561 21.1287C180.255 21.1114 179.949 21.0999 179.642 21.0941C179.03 21.0796 178.417 21.0854 177.808 21.0883C177.198 21.0883 176.589 21.097 175.979 21.0825C175.37 21.071 174.757 21.0334 174.148 21.0421C172.926 21.0479 171.707 21.071 170.487 21.0334L166.821 21.0219C165.602 21.0305 164.383 20.993 163.158 21.0219C162.549 21.0247 161.939 21.0074 161.327 21.0305C160.714 21.0536 160.111 21.0854 159.498 21.0479C158.886 21.0363 158.276 21.0594 157.664 21.0883C157.36 21.1114 157.054 21.1374 156.757 21.0767C156.447 20.9959 156.141 21.1576 155.847 21.0652L155.838 21.0883C156.144 21.1865 156.453 21.0305 156.748 21.1143C157.051 21.1807 157.363 21.1576 157.667 21.1403C158.273 21.123 158.889 21.1056 159.495 21.1287C160.105 21.175 160.72 21.1519 161.33 21.1374C161.936 21.1259 162.549 21.1461 163.161 21.149C164.377 21.1287 165.599 21.1779 166.821 21.175L170.479 21.2154C171.701 21.2616 172.926 21.2501 174.145 21.253C174.754 21.2501 175.364 21.2905 175.973 21.3079C176.583 21.3281 177.195 21.3252 177.808 21.3281C178.417 21.3281 179.027 21.331 179.637 21.3454C179.94 21.3512 180.243 21.3627 180.547 21.3772C180.691 21.3887 180.873 21.3887 181.02 21.3743C181.176 21.3599 181.312 21.357 181.465 21.3599L182.381 21.383C182.69 21.3887 182.999 21.3743 183.303 21.3743L185.131 21.357C185.435 21.357 185.738 21.357 186.041 21.3743C186.336 21.3945 186.659 21.4119 186.963 21.4061L187.879 21.383C188.179 21.3743 188.474 21.4003 188.78 21.4263C189.083 21.4523 189.395 21.4783 189.71 21.4639C190.011 21.4523 190.314 21.4494 190.62 21.4552C191.227 21.4639 191.842 21.4899 192.457 21.461C193.061 21.4321 193.668 21.4668 194.283 21.461C194.899 21.4552 195.499 21.4667 196.109 21.4696C196.724 21.4927 197.343 21.4581 197.946 21.4379C198.25 21.4263 198.547 21.4321 198.856 21.4379C199.163 21.4379 199.469 21.4321 199.775 21.4263C200.385 21.409 200.994 21.3887 201.598 21.4061C201.895 21.4176 202.21 21.4379 202.517 21.4321C202.826 21.4321 203.129 21.4176 203.432 21.4119C204.64 21.4205 205.873 21.409 207.093 21.4379C209.534 21.4841 211.975 21.5187 214.416 21.5476C215.635 21.5707 216.857 21.565 218.079 21.5707L219.911 21.6054C220.52 21.6256 221.133 21.5967 221.742 21.5939C224.183 21.5534 226.624 21.4407 229.065 21.4379H230.897C231.507 21.4379 232.119 21.4379 232.729 21.461C233.945 21.4841 235.173 21.5419 236.392 21.5159C236.695 21.5159 237.001 21.5187 237.302 21.539C237.605 21.5621 237.914 21.5794 238.217 21.5852C238.83 21.5996 239.437 21.6025 240.046 21.6401C240.661 21.6661 241.271 21.6372 241.881 21.6401L243.712 21.6459C244.322 21.6459 244.934 21.6487 245.544 21.6401C246.156 21.6372 246.769 21.5996 247.372 21.5939L251.033 21.6199L254.693 21.6459L256.524 21.6574H257.44C257.749 21.6574 258.05 21.6487 258.35 21.6805C259.587 21.747 260.794 21.6834 262.016 21.7239C262.626 21.7383 263.238 21.7614 263.851 21.7556C264.463 21.7441 265.07 21.747 265.679 21.7614C266.289 21.773 266.901 21.7932 267.511 21.7816C268.12 21.7701 268.73 21.773 269.339 21.7874L271.168 21.851C271.778 21.8741 272.39 21.8885 273 21.851V21.825V21.8279Z" fill="white"/>
<path d="M115.333 21.7961L113.504 21.7036C112.895 21.6776 112.282 21.6661 111.673 21.669C111.063 21.669 110.454 21.6487 109.844 21.6314C109.235 21.6141 108.619 21.6054 108.013 21.6141C107.403 21.6141 106.794 21.591 106.184 21.5707C104.965 21.5216 103.728 21.5765 102.53 21.5043C102.223 21.4696 101.911 21.4783 101.608 21.4754L100.692 21.4696L98.8607 21.4465L95.1975 21.3974L93.366 21.3801C92.7564 21.3772 92.144 21.3685 91.5315 21.3772C90.9162 21.3859 90.3095 21.4263 89.7 21.435C89.0904 21.4494 88.4809 21.4494 87.8713 21.4523L86.0398 21.4581C85.4273 21.4581 84.8178 21.4928 84.214 21.4725C83.6073 21.4379 82.9891 21.4379 82.3824 21.4263C82.0762 21.4205 81.7758 21.4061 81.4696 21.3859C81.1633 21.3714 80.8571 21.3685 80.5509 21.3685C79.3289 21.4032 78.1156 21.3541 76.8907 21.3396C76.2811 21.3223 75.6687 21.3252 75.0591 21.331L73.2275 21.3425C70.7864 21.3743 68.3453 21.4696 65.9042 21.4956C65.2947 21.4956 64.6851 21.5216 64.0756 21.4956L62.244 21.4523C61.0249 21.4407 59.8029 21.4408 58.5838 21.409C56.1427 21.3628 53.7016 21.3079 51.2604 21.2443C50.0356 21.2039 48.828 21.2067 47.5944 21.1894C46.9762 21.201 46.384 21.2183 45.7687 21.175C45.1533 21.1547 44.5409 21.175 43.9313 21.1923C43.628 21.201 43.3218 21.2068 43.0184 21.2039C42.718 21.201 42.4031 21.1923 42.0998 21.2039C41.4844 21.2241 40.8836 21.2587 40.2769 21.2356C39.6644 21.2356 39.0462 21.2183 38.4424 21.227C37.8358 21.2299 37.2233 21.1981 36.608 21.227C36.0042 21.253 35.3976 21.227 34.7851 21.2183C34.4789 21.2125 34.1727 21.2154 33.8636 21.227C33.5689 21.2385 33.2684 21.2154 32.9651 21.1865C32.6618 21.1605 32.3498 21.1345 32.0378 21.1432L31.122 21.1663C30.8158 21.1721 30.5269 21.1547 30.2149 21.1345C29.9058 21.1172 29.5996 21.1143 29.2933 21.1172L27.4589 21.1316C27.1498 21.1316 26.8522 21.1461 26.5489 21.1374L25.6331 21.1143C25.4829 21.1085 25.3124 21.1143 25.1651 21.1287C25.0091 21.1403 24.882 21.1432 24.7231 21.1287C24.4169 21.1114 24.1107 21.0999 23.8044 21.0941C23.192 21.0796 22.5796 21.0854 21.97 21.0883C21.3604 21.0883 20.7509 21.097 20.1413 21.0825C19.5318 21.071 18.9193 21.0334 18.3098 21.0421C17.0878 21.0479 15.8687 21.071 14.6496 21.0334L10.9836 21.0219C9.76444 21.0305 8.54533 20.993 7.32044 21.0219C6.71089 21.0247 6.10133 21.0074 5.48889 21.0305C4.87644 21.0536 4.27267 21.0854 3.66022 21.0479C3.04778 21.0363 2.43822 21.0594 1.82578 21.0883C1.52244 21.1114 1.21622 21.1374 0.918667 21.0767C0.609556 20.9959 0.303333 21.1576 0.00866667 21.0652L0 21.0883C0.306222 21.1865 0.615333 21.0305 0.91 21.1143C1.21333 21.1807 1.52533 21.1576 1.82867 21.1403C2.43533 21.123 3.05067 21.1056 3.65733 21.1287C4.26689 21.175 4.88222 21.1519 5.49178 21.1374C6.09844 21.1259 6.71089 21.1461 7.32333 21.149C8.53956 21.1287 9.76155 21.1779 10.9836 21.175L14.6409 21.2154C15.8629 21.2616 17.0878 21.2501 18.3069 21.253C18.9164 21.2501 19.526 21.2905 20.1356 21.3079C20.7451 21.3281 21.3576 21.3252 21.97 21.3281C22.5796 21.3281 23.1891 21.331 23.7987 21.3454C24.102 21.3512 24.4053 21.3627 24.7087 21.3772C24.8531 21.3887 25.0351 21.3887 25.1824 21.3743C25.3384 21.3599 25.4742 21.357 25.6273 21.3599L26.5431 21.383C26.8493 21.3887 27.1613 21.3743 27.4647 21.3743L29.2933 21.357C29.5967 21.357 29.9 21.357 30.2004 21.3743C30.4951 21.3945 30.8187 21.4119 31.122 21.4061L32.0378 21.383C32.3382 21.3743 32.6329 21.4003 32.9391 21.4263C33.2424 21.4523 33.5544 21.4783 33.8693 21.4639C34.1698 21.4523 34.4731 21.4494 34.7793 21.4552C35.386 21.4639 36.0013 21.4899 36.6167 21.461C37.2204 21.4321 37.8271 21.4668 38.4424 21.461C39.0578 21.4552 39.6587 21.4667 40.2682 21.4696C40.8836 21.4927 41.5018 21.4581 42.1056 21.4379C42.4089 21.4263 42.7064 21.4321 43.0156 21.4379C43.3218 21.4379 43.628 21.4321 43.9342 21.4263C44.5438 21.409 45.1533 21.3887 45.7571 21.4061C46.0547 21.4176 46.3696 21.4379 46.6758 21.4321C46.9849 21.4321 47.2882 21.4176 47.5916 21.4119C48.7991 21.4205 50.0327 21.409 51.2518 21.4379C53.6929 21.4841 56.134 21.5187 58.5751 21.5476C59.7942 21.5707 61.0162 21.565 62.2382 21.5707L64.0698 21.6054C64.6793 21.6256 65.2918 21.5967 65.9013 21.5939C68.3424 21.5534 70.7836 21.4407 73.2247 21.4379H75.0562C75.6658 21.4379 76.2753 21.4379 76.8878 21.461C78.104 21.4841 79.3318 21.5419 80.5509 21.5159C80.8542 21.5159 81.1604 21.5187 81.4609 21.539C81.7642 21.5621 82.0733 21.5794 82.3767 21.5852C82.9891 21.5996 83.5958 21.6025 84.2053 21.6401C84.8207 21.6661 85.4302 21.6372 86.0398 21.6401L87.8713 21.6459C88.4809 21.6459 89.0933 21.6487 89.7058 21.6401C90.3182 21.6372 90.9307 21.5996 91.5344 21.5939L95.1947 21.6199L98.8549 21.6459L100.686 21.6574H101.602C101.911 21.6574 102.212 21.6487 102.512 21.6805C103.749 21.747 104.956 21.6834 106.178 21.7239C106.788 21.7383 107.4 21.7614 108.013 21.7556C108.625 21.7441 109.232 21.747 109.841 21.7614C110.451 21.773 111.063 21.7932 111.673 21.7816C112.282 21.7701 112.892 21.773 113.502 21.7874L115.33 21.851C115.94 21.8741 116.552 21.8885 117.162 21.851V21.825C116.552 21.851 115.94 21.825 115.333 21.7932V21.7961Z" fill="white"/>
<path d="M133.408 20.1782C133.605 20.1349 133.796 20.0742 133.978 19.9933C134.162 19.9067 134.33 19.8287 134.492 19.6727C133.827 19.7998 133.2 19.8171 132.556 19.7651C131.924 19.7304 131.271 19.586 130.834 19.1642C130.624 18.9562 130.465 18.6847 130.43 18.3987C130.392 18.1184 130.482 17.8064 130.702 17.6591C130.811 17.5869 130.95 17.5551 131.068 17.584C131.184 17.61 131.285 17.7111 131.32 17.8267C131.357 17.9422 131.314 18.0607 131.216 18.156C131.118 18.2484 130.973 18.3178 130.829 18.3727L130.537 18.4853L130.837 18.5518C131.291 18.65 131.753 18.2831 131.742 17.8353C131.736 17.6187 131.623 17.4222 131.467 17.2864C131.311 17.1478 131.08 17.0929 130.881 17.1391C130.473 17.2287 130.164 17.5724 130.049 17.9624C129.922 18.3496 129.959 18.7944 130.153 19.1613C130.34 19.534 130.673 19.8171 131.034 20.0049C131.404 20.1898 131.814 20.2678 132.212 20.288C132.617 20.3082 133.013 20.262 133.406 20.1753L133.408 20.1782ZM132.227 20.0916C131.846 20.0656 131.47 19.976 131.138 19.8084C130.8 19.6438 130.511 19.3896 130.317 19.0747C130.121 18.7598 130.06 18.364 130.153 17.9942C130.245 17.6331 130.525 17.2951 130.898 17.22C131.274 17.1276 131.646 17.4771 131.626 17.8382C131.626 17.9942 131.545 18.1271 131.432 18.2282C131.47 18.182 131.505 18.13 131.528 18.0722C131.565 17.9769 131.568 17.8642 131.542 17.766C131.487 17.5696 131.331 17.4078 131.132 17.3558C130.936 17.3038 130.73 17.3471 130.569 17.4511C130.234 17.6707 130.121 18.0809 130.167 18.4333C130.21 18.7973 130.404 19.1151 130.655 19.3549C130.91 19.5976 131.233 19.7478 131.56 19.8344C131.886 19.9211 132.221 19.95 132.548 19.9558C132.874 19.9587 133.203 19.9471 133.53 19.9096C133.692 19.8893 133.853 19.8604 134.015 19.8258C134.171 19.7882 134.344 19.7536 134.472 19.6871C133.804 20.0598 132.987 20.1407 132.23 20.0973L132.227 20.0916Z" fill="white"/>
<path d="M156.979 18.3755C157.309 18.5431 157.693 18.6558 158.083 18.5893C158.464 18.5229 158.831 18.2917 158.996 17.922C159.163 17.5464 159.036 17.1015 158.762 16.8357C158.482 16.5613 158.071 16.4718 157.707 16.5469L157.499 16.5902L157.702 16.648C157.86 16.6942 158.014 16.7635 158.149 16.8589C158.282 16.9484 158.386 17.09 158.398 17.2431C158.412 17.3962 158.302 17.5464 158.158 17.6129C158.014 17.6822 157.843 17.6735 157.69 17.6186C157.381 17.5031 157.132 17.2575 156.956 16.9744C156.777 16.6913 156.644 16.3764 156.5 16.0673C156.22 15.4346 155.795 14.8626 155.286 14.3889C154.769 13.9209 154.168 13.5424 153.51 13.3026C153.18 13.1813 152.842 13.086 152.496 13.0369C152.455 13.0311 152.418 13.0253 152.377 13.0224C152.27 12.878 152.12 12.7595 151.956 12.6786C151.745 12.5775 151.493 12.5198 151.248 12.5804C150.768 12.6931 150.39 13.0802 150.231 13.528C150.162 13.7302 150.133 13.9382 150.136 14.1462C149.968 14.3137 149.789 14.4669 149.604 14.6084C148.711 14.9291 147.723 14.8771 146.883 14.5044C146.444 14.3166 146.019 14.022 145.759 13.606C145.502 13.1929 145.458 12.6324 145.724 12.228C145.851 12.0229 146.03 11.8553 146.198 11.6646C146.371 11.4769 146.522 11.2573 146.637 11.0262C146.871 10.5611 146.987 10.044 146.998 9.52686C147.013 9.00686 146.903 8.49842 146.761 8.01597C146.626 7.57108 146.458 7.13775 146.267 6.71597C146.273 6.70442 146.282 6.69286 146.288 6.68131C146.38 6.49353 146.438 6.28553 146.452 6.07753C146.487 5.65864 146.357 5.2282 146.091 4.89308L145.588 4.26042L145.863 5.02308C145.944 5.25131 145.889 5.52864 145.756 5.76264C145.626 5.99953 145.424 6.20464 145.219 6.41553C144.794 6.84019 144.436 7.33708 144.176 7.87731C143.65 8.96064 143.497 10.1884 143.664 11.3613C143.835 12.5284 144.306 13.6984 145.178 14.5477C145.866 15.2411 146.874 15.6282 147.836 15.5415C147.553 15.6369 147.261 15.7149 146.969 15.7755C146.368 15.9055 145.747 15.9575 145.126 15.8969C144.508 15.8333 143.901 15.6744 143.324 15.4491C142.526 15.1284 141.761 14.7269 141.044 14.2589C140.848 14.048 140.674 13.8169 140.539 13.5626C140.31 13.1437 140.175 12.6844 140.094 12.2135C140.007 11.7455 139.975 11.2515 140.12 10.7893C140.264 10.3357 140.599 9.92553 141.038 9.75508C141.472 9.59042 141.995 9.65975 142.301 9.96886C142.607 10.2722 142.671 10.824 142.382 11.1186C142.243 11.2689 142.029 11.3526 141.821 11.3555C141.613 11.3584 141.411 11.2544 141.307 11.0666C141.258 10.9771 141.232 10.8731 141.246 10.772C141.261 10.6737 141.319 10.5726 141.402 10.512C141.486 10.4484 141.596 10.4282 141.7 10.4658C141.804 10.5033 141.894 10.5929 141.917 10.7084H141.943C141.948 10.4369 141.584 10.2375 141.333 10.4051C141.212 10.4773 141.122 10.5986 141.085 10.7373C141.047 10.8789 141.07 11.0291 141.131 11.1562C141.249 11.4162 141.53 11.5866 141.81 11.5982C142.09 11.6155 142.37 11.5086 142.572 11.3064C142.778 11.0984 142.856 10.7951 142.821 10.5235C142.786 10.2491 142.659 9.99197 142.463 9.80419C142.052 9.41997 141.434 9.40553 140.981 9.63375C140.516 9.86775 140.209 10.3011 140.042 10.7662C139.871 11.2342 139.831 11.7484 139.886 12.2453C139.941 12.7422 140.102 13.2333 140.371 13.6637C140.432 13.7591 140.498 13.8486 140.568 13.9382C140.417 13.8284 140.267 13.7186 140.12 13.606C139.178 12.878 138.352 11.9795 137.855 10.8731C137.95 10.8066 138.031 10.7229 138.092 10.6217C138.294 10.2751 138.202 9.81864 137.927 9.59042C138.363 9.55864 138.797 9.39686 139.143 9.11953C139.666 8.68042 139.961 8.01308 139.987 7.33997C140.082 7.44108 140.189 7.53642 140.313 7.60286C140.484 7.69242 140.663 7.77331 140.862 7.80797C141.059 7.84264 141.264 7.84264 141.466 7.79353C141.668 7.74442 141.853 7.64331 142.012 7.51619C142.327 7.25619 142.532 6.89797 142.653 6.52531C142.778 6.15264 142.809 5.75686 142.763 5.37553C142.717 4.99419 142.607 4.62442 142.44 4.28353C142.275 3.94264 142.052 3.61331 141.746 3.36486C141.174 2.90842 140.368 2.74375 139.686 2.9662C139.704 2.90842 139.707 2.85353 139.704 2.80442C139.698 2.68308 139.666 2.57331 139.634 2.46931C139.574 2.26708 139.481 2.05331 139.36 1.86842C139.12 1.49286 138.742 1.20686 138.326 1.05664C137.913 0.906417 137.456 0.883306 137.037 0.998862H137.008L137.023 1.00175C136.592 0.92664 136.159 0.984417 135.758 1.12886C135.356 1.27042 134.978 1.52175 134.72 1.88286C134.59 2.05908 134.498 2.26997 134.432 2.46931C134.397 2.57331 134.365 2.6802 134.356 2.80153C134.356 2.85064 134.356 2.90553 134.374 2.96331C133.689 2.74086 132.883 2.90553 132.311 3.36197C132.005 3.60753 131.782 3.93686 131.618 4.28064C131.45 4.62442 131.34 4.99131 131.294 5.37264C131.248 5.75397 131.28 6.15264 131.404 6.52242C131.525 6.89219 131.73 7.25331 132.045 7.51331C132.204 7.64042 132.389 7.74153 132.591 7.79064C132.794 7.83975 132.999 7.83975 133.195 7.80508C133.394 7.77042 133.574 7.68953 133.744 7.59997C133.86 7.53931 133.958 7.45553 134.047 7.36308C134.094 8.03331 134.391 8.68908 134.914 9.11953C135.264 9.39975 135.694 9.55864 136.13 9.58753C135.847 9.81286 135.769 10.2838 135.992 10.6044C136.058 10.694 136.142 10.7604 136.231 10.8153C135.737 11.9449 134.897 12.8635 133.938 13.6031C133.79 13.7186 133.64 13.8284 133.49 13.9353C133.559 13.8486 133.626 13.7562 133.686 13.6609C133.952 13.2333 134.114 12.7422 134.172 12.2424C134.224 11.7455 134.183 11.2313 134.016 10.7633C133.848 10.2982 133.539 9.86197 133.077 9.63086C132.623 9.40264 132.002 9.41708 131.595 9.80131C131.395 9.99197 131.268 10.2462 131.236 10.5206C131.202 10.7922 131.28 11.0955 131.485 11.3035C131.687 11.5057 131.967 11.6126 132.248 11.5953C132.528 11.5838 132.811 11.4133 132.926 11.1533C132.987 11.0262 133.01 10.876 132.973 10.7344C132.935 10.5958 132.846 10.4744 132.724 10.4022C132.473 10.2375 132.112 10.434 132.115 10.7055H132.141C132.161 10.59 132.253 10.5004 132.357 10.4658C132.461 10.4253 132.571 10.4484 132.655 10.512C132.739 10.5726 132.796 10.6709 132.811 10.772C132.825 10.8702 132.799 10.9742 132.75 11.0666C132.649 11.2515 132.447 11.3584 132.236 11.3555C132.028 11.3555 131.814 11.2689 131.676 11.1186C131.387 10.824 131.453 10.2751 131.756 9.96886C132.063 9.65975 132.586 9.58753 133.019 9.75508C133.458 9.92553 133.793 10.3329 133.938 10.7893C134.085 11.2515 134.05 11.7455 133.964 12.2135C133.883 12.6844 133.747 13.1437 133.519 13.5626C133.386 13.8169 133.212 14.048 133.013 14.2589C132.294 14.7269 131.531 15.1284 130.734 15.4491C130.156 15.6744 129.549 15.8362 128.931 15.8969C128.31 15.9575 127.689 15.9055 127.088 15.7755C126.796 15.7149 126.504 15.6369 126.221 15.5415C127.183 15.6282 128.192 15.2411 128.879 14.5477C129.752 13.6984 130.222 12.5284 130.393 11.3613C130.563 10.1884 130.41 8.95775 129.882 7.87731C129.622 7.33708 129.263 6.84019 128.839 6.41553C128.634 6.20464 128.431 5.99953 128.301 5.76264C128.171 5.53153 128.114 5.2542 128.194 5.02308L128.469 4.26042L127.966 4.89308C127.7 5.2282 127.57 5.65864 127.605 6.07753C127.62 6.28842 127.677 6.49353 127.77 6.68131C127.776 6.69286 127.784 6.70442 127.79 6.71597C127.599 7.13775 127.432 7.57108 127.296 8.01597C127.157 8.49842 127.045 9.00686 127.059 9.52686C127.071 10.0411 127.186 10.5611 127.42 11.0262C127.536 11.2573 127.686 11.4769 127.859 11.6646C128.027 11.8553 128.206 12.0229 128.333 12.228C128.599 12.6295 128.553 13.1929 128.298 13.606C128.038 14.0249 127.617 14.3166 127.175 14.5044C126.334 14.8771 125.346 14.9291 124.453 14.6084C124.268 14.4669 124.089 14.3137 123.922 14.1462C123.925 13.9382 123.899 13.7302 123.826 13.528C123.668 13.0802 123.289 12.6931 122.81 12.5804C122.564 12.5198 122.313 12.5804 122.102 12.6786C121.937 12.7595 121.79 12.8751 121.68 13.0224C121.64 13.0282 121.599 13.0311 121.562 13.0369C121.215 13.086 120.874 13.1813 120.548 13.3026C119.889 13.5453 119.288 13.9237 118.771 14.3889C118.262 14.8626 117.838 15.4346 117.558 16.0673C117.413 16.3793 117.28 16.6913 117.101 16.9744C116.925 17.2575 116.676 17.5031 116.367 17.6186C116.214 17.6735 116.041 17.6822 115.899 17.6129C115.755 17.5464 115.648 17.3991 115.66 17.2431C115.671 17.0871 115.775 16.9484 115.908 16.8589C116.044 16.7635 116.197 16.6942 116.356 16.648L116.558 16.5902L116.35 16.5469C115.986 16.4718 115.576 16.5642 115.296 16.8357C115.021 17.1015 114.894 17.5464 115.062 17.922C115.229 18.2917 115.596 18.5229 115.974 18.5893C116.364 18.6558 116.749 18.5431 117.078 18.3755C117.745 18.0289 118.21 17.4597 118.803 17.0842C119.181 16.8415 119.597 16.6509 120.03 16.5209C120.091 16.5151 120.152 16.5093 120.215 16.5064C120.657 16.4718 121.111 16.4429 121.562 16.3649C122.009 16.2926 122.457 16.1511 122.844 15.9055C124.167 16.492 125.499 17.0582 126.762 17.7515C127.4 18.1011 128.027 18.4969 128.495 19.0371C128.726 19.3086 128.92 19.6091 129.044 19.9413C129.168 20.2735 129.232 20.6289 129.22 20.9813C129.214 21.6891 128.833 22.3795 128.223 22.758C127.923 22.9458 127.568 23.0555 127.209 23.044C126.851 23.0295 126.502 22.8938 126.218 22.6742C125.935 22.4546 125.71 22.1484 125.635 21.796C125.557 21.4493 125.615 21.0622 125.837 20.782C126.051 20.5075 126.447 20.366 126.77 20.4902C127.085 20.6058 127.284 21.0102 127.149 21.3106L126.984 21.6717L127.261 21.3857C127.553 21.0853 127.539 20.6029 127.328 20.2706C127.105 19.9211 126.681 19.768 126.294 19.7853C125.496 19.8113 124.803 20.4729 124.696 21.2586C124.638 21.6458 124.71 22.056 124.907 22.3969C125.1 22.7406 125.401 23.0064 125.727 23.2058C126.383 23.5986 127.178 23.7517 127.934 23.6217C128.313 23.5553 128.683 23.4051 128.989 23.1595C129.301 22.9198 129.523 22.5818 129.665 22.2293C129.942 21.5129 129.962 20.7329 129.809 19.9991C129.555 18.7655 128.706 17.7024 127.617 17.1246C128.267 17.2778 128.954 17.2893 129.607 17.1709C130.156 17.0669 130.679 16.8762 131.184 16.6595C131.693 16.4457 132.187 16.206 132.669 15.9402C133.631 15.4057 134.538 14.7471 135.278 13.9122C135.902 13.1929 136.387 12.3233 136.581 11.3931C136.523 11.9911 136.465 12.5891 136.39 13.1871C136.298 13.9353 136.176 14.6806 135.966 15.3971C135.758 16.1106 135.437 16.8069 134.911 17.3124C134.388 17.8064 133.654 18.13 132.944 17.9971L132.898 18.2022H132.903C133.389 18.3293 133.897 18.3495 134.391 18.2802C134.83 18.2195 135.258 18.0809 135.651 17.8786C135.359 18.6355 134.683 19.2364 133.891 19.4386L133.906 19.5138H133.909C134.55 19.4126 135.171 19.1729 135.711 18.8089C136.075 18.5662 136.402 18.2657 136.685 17.9277C136.685 18.5749 136.523 19.2075 136.231 19.7651C135.919 20.3486 135.474 20.8513 134.928 21.2153L134.322 21.6226L135.03 21.4522C135.405 21.3626 135.798 21.2702 136.162 21.0911C136.194 21.0766 136.223 21.0593 136.254 21.042C136.243 21.0622 136.234 21.0824 136.223 21.1026C136.179 21.1777 136.133 21.2558 136.087 21.3309C135.72 21.9202 135.194 22.42 134.538 22.5991C134.215 22.6915 133.871 22.7089 133.548 22.6309C133.227 22.5557 132.918 22.3737 132.808 22.082C132.75 21.9404 132.75 21.7815 132.82 21.6486C132.889 21.5157 133.019 21.4175 133.163 21.4204C133.308 21.4204 133.464 21.5129 133.493 21.6544C133.524 21.796 133.435 21.9722 133.288 22.004L132.978 22.0704L133.288 22.1022C133.288 22.1022 133.299 22.1022 133.305 22.1022C133.472 22.1137 133.631 22.0329 133.73 21.9086C133.836 21.7786 133.865 21.5938 133.81 21.4406C133.764 21.2846 133.654 21.1489 133.507 21.0737C133.363 20.9986 133.189 20.9842 133.03 21.0189C132.704 21.0853 132.458 21.3742 132.375 21.6891C132.288 22.0098 132.34 22.3478 132.47 22.6453C132.606 22.94 132.837 23.2029 133.14 23.3444C133.449 23.486 133.793 23.4657 134.094 23.3964C134.703 23.252 135.243 22.914 135.668 22.4778C135.914 22.2178 136.127 21.9202 136.269 21.588C136.306 21.5042 136.35 21.4291 136.382 21.3337C136.405 21.2442 136.419 21.1546 136.434 21.0622C136.434 21.0391 136.439 21.016 136.439 20.9842C136.439 20.9784 136.439 20.9755 136.439 20.9669C136.439 20.964 136.439 20.9611 136.434 20.9495C136.431 20.9438 136.431 20.9409 136.428 20.9351C136.497 20.8889 136.564 20.8369 136.627 20.782C136.618 21.4406 136.621 22.0993 136.627 22.758C136.633 23.0353 136.639 23.3155 136.644 23.5929L136.636 23.6189C136.503 24.0869 136.367 24.5404 136.003 24.838C135.827 24.9795 135.599 25.072 135.365 25.0402C135.131 25.0142 134.9 24.9044 134.631 24.9304C134.362 24.9593 134.128 25.1615 134.033 25.4244C133.932 25.696 134.039 26.0138 134.241 26.1986C134.443 26.398 134.752 26.4413 134.995 26.3778C135.243 26.3142 135.454 26.1784 135.651 26.034C136.012 25.7595 136.35 25.4331 136.59 25.0257C136.624 24.9651 136.65 24.9015 136.679 24.838C136.679 24.8466 136.679 24.8524 136.679 24.8611C136.696 25.5631 136.769 26.2622 136.717 26.9469C136.694 27.2849 136.613 27.6286 136.601 27.9955C136.587 28.3566 136.673 28.7553 136.951 29.0269L136.959 29.0355H136.965L136.994 29.0558L137.037 29.0789L137.072 29.05L137.092 29.0326H137.098V29.0269C137.361 28.7409 137.41 28.3509 137.393 27.9984C137.37 27.6402 137.277 27.3022 137.26 26.9526C137.205 26.2564 137.306 25.5573 137.344 24.8582C137.344 24.8351 137.344 24.8091 137.346 24.786C137.381 24.8697 137.416 24.9506 137.462 25.0286C137.702 25.436 138.04 25.7624 138.401 26.0369C138.597 26.1813 138.808 26.3142 139.057 26.3806C139.299 26.4442 139.608 26.4009 139.811 26.2015C140.013 26.0166 140.12 25.7017 140.019 25.4273C139.923 25.1644 139.689 24.9622 139.421 24.9333C139.155 24.9073 138.921 25.0171 138.687 25.0431C138.453 25.0749 138.225 24.9824 138.048 24.8409C137.684 24.5462 137.549 24.0898 137.416 23.6217L137.398 23.5611C137.407 23.2924 137.416 23.0209 137.422 22.7522C137.433 22.0733 137.439 21.3944 137.424 20.7155C137.578 20.8398 137.748 20.9409 137.924 21.0217C138.282 21.1893 138.664 21.2875 139.039 21.3886L139.418 21.4926L139.094 21.2615C138.823 21.068 138.586 20.8311 138.372 20.5798C138.161 20.3284 137.97 20.054 137.823 19.7593C137.537 19.2046 137.384 18.5864 137.372 17.948C137.638 18.2831 137.947 18.5835 138.297 18.8291C138.843 19.2133 139.476 19.4762 140.14 19.5802L140.183 19.3577C139.473 19.1786 138.854 18.6615 138.534 18.0057C139.351 18.3726 140.29 18.4449 141.157 18.2166C141.157 18.2166 141.163 18.2166 141.166 18.2166L141.108 17.9653C140.409 18.104 139.672 17.7891 139.152 17.298C138.623 16.7953 138.3 16.0991 138.092 15.3884C137.878 14.672 137.757 13.9266 137.661 13.1784C137.586 12.5833 137.528 11.9882 137.474 11.3902C137.67 12.3175 138.155 13.1842 138.776 13.9035C139.516 14.7413 140.426 15.4 141.385 15.9315C141.868 16.1973 142.362 16.44 142.87 16.6537C143.376 16.8675 143.898 17.0582 144.447 17.1651C145.1 17.2835 145.791 17.272 146.441 17.1189C145.352 17.6966 144.502 18.7598 144.248 19.9933C144.098 20.7271 144.118 21.5071 144.392 22.2235C144.534 22.5789 144.756 22.914 145.068 23.1538C145.375 23.3993 145.744 23.5466 146.123 23.616C146.88 23.746 147.674 23.5929 148.33 23.2C148.656 23.0035 148.957 22.7377 149.15 22.3911C149.347 22.0502 149.419 21.64 149.361 21.2529C149.254 20.4671 148.558 19.8084 147.764 19.7795C147.377 19.7622 146.949 19.9124 146.73 20.2649C146.516 20.5971 146.504 21.0795 146.796 21.38L147.073 21.666L146.909 21.3049C146.773 21.0044 146.972 20.6 147.287 20.4844C147.611 20.3602 148.006 20.5018 148.22 20.7762C148.44 21.0535 148.498 21.4435 148.422 21.7902C148.35 22.1426 148.122 22.4518 147.842 22.6684C147.559 22.8851 147.206 23.0238 146.851 23.0382C146.493 23.0498 146.14 22.94 145.837 22.7522C145.227 22.3737 144.846 21.6833 144.84 20.9755C144.826 20.6231 144.889 20.2677 145.016 19.9355C145.144 19.6033 145.334 19.3029 145.565 19.0313C146.033 18.4882 146.66 18.0953 147.299 17.7457C148.561 17.0524 149.896 16.4862 151.216 15.8997C151.603 16.1453 152.051 16.2869 152.499 16.3591C152.949 16.4342 153.403 16.4631 153.845 16.5006C153.906 16.5064 153.966 16.5122 154.03 16.5151C154.466 16.6451 154.879 16.8329 155.258 17.0784C155.85 17.454 156.312 18.0231 156.982 18.3697L156.979 18.3755ZM146.776 15.2786C146.224 15.1111 145.733 14.7933 145.328 14.3831C144.918 13.9786 144.586 13.4991 144.312 12.9878C144.043 12.4735 143.838 11.9189 143.748 11.3411C143.647 10.7633 143.659 10.1682 143.763 9.59619C143.87 9.02131 144.075 8.46953 144.349 7.96108C144.624 7.45264 144.973 6.98753 145.392 6.58308C145.6 6.37797 145.825 6.16708 145.987 5.88397C146.051 5.77131 146.103 5.6442 146.132 5.51419C146.189 5.68753 146.215 5.87242 146.207 6.05442C146.201 6.23642 146.158 6.41264 146.085 6.58019C146.01 6.74486 145.9 6.90086 145.785 7.05686C145.669 7.21286 145.551 7.37464 145.453 7.55375C145.357 7.73575 145.288 7.92642 145.253 8.12575C145.175 8.52153 145.23 8.93753 145.389 9.29575L145.412 9.28708C145.288 8.91731 145.282 8.51864 145.378 8.15175C145.424 7.96686 145.499 7.79353 145.597 7.63464C145.695 7.47575 145.82 7.32842 145.944 7.17531C146.048 7.04531 146.146 6.90664 146.233 6.75642C146.351 7.18975 146.472 7.62308 146.565 8.05642C146.672 8.54175 146.747 9.02708 146.724 9.50953C146.706 9.99197 146.617 10.4773 146.418 10.9135C146.316 11.1331 146.192 11.3353 146.039 11.526C145.886 11.7195 145.718 11.916 145.6 12.15C145.349 12.6266 145.435 13.1986 145.687 13.6349C145.941 14.0797 146.331 14.4437 146.79 14.6835C147.585 15.0851 148.561 15.1111 149.364 14.7702C148.974 15.036 148.555 15.2526 148.119 15.4231C147.666 15.4664 147.209 15.4 146.779 15.2729L146.776 15.2786ZM139.663 3.01242C140.368 2.93153 141.059 3.13375 141.619 3.52086C141.92 3.71731 142.188 3.98308 142.364 4.30664C142.541 4.63308 142.622 5.00575 142.624 5.37264C142.619 6.09775 142.37 6.84597 141.839 7.29664C141.353 7.74731 140.544 7.67219 139.984 7.25331C139.984 7.20131 139.987 7.14931 139.984 7.09442C139.964 6.71886 139.866 6.35197 139.689 6.02264C139.513 5.69619 139.25 5.41308 138.927 5.23108C138.638 5.0722 138.3 4.99708 137.97 5.03464C138.092 4.86131 138.216 4.71686 138.36 4.59553C138.514 4.45397 138.69 4.34419 138.898 4.25753C139.002 4.21708 139.117 4.20264 139.23 4.22864C139.343 4.25175 139.438 4.32397 139.525 4.38175C139.71 4.49153 139.883 4.59553 140.076 4.74575L140.097 4.73131C140.048 4.48286 139.848 4.27486 139.611 4.19108C139.49 4.15353 139.36 4.15642 139.242 4.14775C139.21 4.14775 139.175 4.14197 139.143 4.13908C139.086 3.95131 139.103 3.75486 139.172 3.58442C139.21 3.49486 139.259 3.4082 139.322 3.33597C139.383 3.25797 139.455 3.22331 139.551 3.1482C139.591 3.11642 139.637 3.06731 139.669 3.00664L139.663 3.01242ZM137.032 5.60953C136.965 5.46797 136.867 5.33508 136.743 5.23686C136.59 5.11264 136.405 5.03464 136.217 4.99708C136.194 4.99131 136.174 4.98842 136.15 4.98553C136.139 4.79197 136.055 4.60708 135.925 4.45686C135.98 4.39042 136.035 4.32975 136.093 4.27775C136.174 4.20553 136.263 4.15064 136.356 4.09864C136.445 4.04664 136.555 3.98886 136.673 3.98597C136.792 3.98597 136.904 4.03508 136.988 4.1102L136.994 4.11597L137.023 4.12175H137.04L137.043 4.12464L137.075 4.11308C137.292 4.04375 137.508 4.04953 137.696 4.12464C137.858 4.18242 138.008 4.29508 138.138 4.45397C137.994 4.61864 137.901 4.82953 137.91 5.0462C137.892 5.0462 137.875 5.0462 137.855 5.05197C137.673 5.08375 137.494 5.15597 137.338 5.26286C137.211 5.35242 137.11 5.47375 137.037 5.60953H137.032ZM134.57 2.8102C134.579 2.72353 134.608 2.6282 134.642 2.53286C134.715 2.33642 134.79 2.1602 134.894 1.98975C135.096 1.64597 135.402 1.35131 135.786 1.19531C136.168 1.0422 136.604 1.0162 136.994 1.12597H136.997H137.008H137.046H137.049H137.06C137.459 1.05953 137.872 1.11731 138.239 1.26464C138.606 1.41486 138.918 1.67486 139.135 2.00131C139.25 2.16308 139.325 2.33931 139.403 2.53286C139.441 2.62531 139.47 2.72064 139.481 2.80731C139.49 2.90264 139.487 2.93442 139.415 3.00086C139.065 3.24064 138.906 3.76353 139.097 4.13619C139.022 4.13042 138.947 4.12175 138.869 4.12175C138.629 4.1102 138.389 4.2142 138.204 4.37308C138.158 4.1622 138.002 3.96575 137.791 3.87042C137.531 3.76064 137.216 3.80397 137.011 3.97731C136.899 3.93975 136.786 3.91664 136.673 3.89931C136.549 3.88197 136.408 3.85886 136.272 3.89931C136.136 3.93975 136.023 4.0322 135.942 4.14486C135.893 4.2142 135.862 4.2922 135.844 4.37308C135.662 4.21708 135.422 4.11308 135.183 4.12464C135.105 4.12464 135.03 4.13331 134.954 4.13908C135.151 3.76642 134.989 3.24064 134.637 3.00375C134.564 2.93731 134.562 2.90553 134.567 2.8102H134.57ZM132.222 7.29953C131.693 6.84597 131.442 6.09775 131.436 5.37553C131.436 5.00864 131.52 4.63597 131.696 4.30953C131.872 3.98308 132.141 3.7202 132.441 3.52375C133.002 3.13664 133.695 2.93442 134.4 3.01531C134.432 3.07597 134.475 3.1222 134.515 3.15686C134.611 3.23197 134.683 3.26664 134.744 3.34464C134.804 3.41686 134.856 3.50353 134.894 3.59308C134.963 3.76353 134.98 3.95997 134.926 4.14775C134.894 4.15064 134.859 4.15353 134.827 4.15642C134.709 4.16508 134.579 4.16219 134.458 4.19975C134.221 4.28353 134.021 4.49153 133.972 4.73997L133.992 4.75442C134.189 4.60708 134.359 4.5002 134.544 4.39042C134.634 4.33264 134.729 4.26042 134.839 4.23731C134.949 4.21131 135.067 4.22575 135.171 4.2662C135.376 4.34997 135.552 4.46264 135.706 4.6042C135.83 4.7082 135.94 4.82664 136.044 4.97108C135.72 4.93642 135.382 5.01153 135.102 5.17331C134.764 5.36108 134.495 5.66442 134.322 6.00242C134.146 6.34331 134.062 6.72175 134.05 7.10019C134.05 7.15797 134.05 7.21864 134.056 7.27642C133.498 7.67797 132.704 7.74442 132.227 7.30242L132.222 7.29953ZM134.313 7.10597C134.333 6.42997 134.625 5.71931 135.214 5.37553C135.503 5.20508 135.844 5.12708 136.179 5.19064C136.512 5.24264 136.821 5.43619 136.948 5.75686L136.965 5.80308H137.011H137.049H137.098L137.112 5.75975C137.219 5.43619 137.523 5.19931 137.869 5.13864C138.213 5.06064 138.583 5.12708 138.883 5.31197C139.19 5.48819 139.421 5.77131 139.565 6.09197C139.71 6.40975 139.776 6.76219 139.779 7.10597C139.788 7.79353 139.533 8.50419 139.016 8.96353C138.499 9.41708 137.742 9.61353 137.046 9.42286H137.017H137.014C136.324 9.62219 135.561 9.41708 135.05 8.96353C134.536 8.50131 134.29 7.78775 134.316 7.10886L134.313 7.10597ZM136.191 9.58464C136.474 9.59619 136.76 9.55286 137.02 9.44597H137.04C137.3 9.55575 137.586 9.59908 137.869 9.58464C138.031 9.88797 138.011 10.2346 137.858 10.4715C137.705 10.7229 137.384 10.8789 137.06 10.8384H137.04H137.017H137C136.85 10.9049 136.662 10.9078 136.509 10.8355C136.353 10.7633 136.24 10.6246 136.176 10.4831C136.044 10.2173 136.035 9.88797 136.191 9.57886V9.58464ZM127.27 14.6922C127.729 14.4524 128.119 14.0884 128.374 13.6435C128.625 13.2044 128.709 12.6353 128.46 12.1586C128.339 11.9246 128.174 11.7282 128.021 11.5346C127.868 11.344 127.744 11.1389 127.643 10.9222C127.443 10.4831 127.354 10.0006 127.336 9.5182C127.313 9.03286 127.388 8.55042 127.495 8.06508C127.591 7.62886 127.709 7.19842 127.828 6.76508C127.914 6.91531 128.015 7.05397 128.116 7.18397C128.238 7.33708 128.362 7.48442 128.463 7.64331C128.558 7.8022 128.636 7.97842 128.683 8.16042C128.778 8.52731 128.772 8.92597 128.648 9.29575L128.671 9.30442C128.83 8.94331 128.885 8.53019 128.807 8.13442C128.772 7.93508 128.7 7.74442 128.608 7.56242C128.512 7.38331 128.391 7.22153 128.275 7.06553C128.16 6.90953 128.05 6.75353 127.975 6.58886C127.903 6.42419 127.859 6.24508 127.854 6.06308C127.845 5.88108 127.874 5.6962 127.929 5.52286C127.96 5.65575 128.012 5.77997 128.073 5.89264C128.235 6.17286 128.46 6.38375 128.668 6.59175C129.087 6.99331 129.434 7.45842 129.711 7.96975C129.986 8.47819 130.191 9.02997 130.298 9.60486C130.402 10.1769 130.416 10.7749 130.315 11.3497C130.222 11.9275 130.02 12.4851 129.749 12.9964C129.474 13.5077 129.142 13.9873 128.732 14.3918C128.327 14.802 127.833 15.1169 127.284 15.2873C126.857 15.4173 126.398 15.4809 125.944 15.4375C125.505 15.2671 125.086 15.0504 124.699 14.7846C125.505 15.1255 126.478 15.0995 127.273 14.698L127.27 14.6922ZM121.527 16.1309C121.091 16.1886 120.643 16.1944 120.192 16.2378C119.742 16.2782 119.282 16.3591 118.852 16.5237C118.424 16.6884 118.017 16.9542 117.754 17.3269L117.774 17.3442C118.095 17.0293 118.496 16.8329 118.915 16.7086C119.112 16.648 119.314 16.6075 119.519 16.5786C119.242 16.6769 118.973 16.7982 118.722 16.9484C118.083 17.3124 117.607 17.8844 116.986 18.1849C116.679 18.3351 116.338 18.4189 116.015 18.3726C115.694 18.3235 115.385 18.1242 115.249 17.8382C115.102 17.5551 115.186 17.1824 115.408 16.9426C115.582 16.752 115.842 16.648 116.107 16.6364C116.021 16.6769 115.937 16.726 115.859 16.7837C115.714 16.8877 115.593 17.0495 115.584 17.2402C115.573 17.4366 115.712 17.6042 115.87 17.6822C116.038 17.766 116.232 17.7544 116.399 17.6995C116.737 17.5811 116.997 17.3182 117.194 17.0351C117.393 16.7491 117.537 16.4342 117.693 16.1309C118.306 14.9262 119.38 13.9873 120.64 13.5395C120.955 13.4269 121.278 13.3489 121.608 13.2969C121.934 13.2449 122.266 13.2333 122.544 13.3575C122.821 13.4789 123.023 13.7417 122.986 14.0335C122.96 14.3022 122.789 14.5535 122.57 14.7442C122.616 14.5969 122.63 14.4322 122.57 14.282C122.544 14.2069 122.518 14.1375 122.509 14.0624C122.498 13.9902 122.509 13.9035 122.489 13.8255C122.44 13.6753 122.301 13.5482 122.131 13.5337L122.116 13.554C122.18 13.7071 122.226 13.8111 122.301 13.918C122.342 13.9671 122.405 14.0191 122.428 14.0826C122.454 14.1462 122.448 14.2213 122.428 14.2878L122.307 14.6633C122.284 14.7557 122.264 14.854 122.252 14.958C122.093 15.0475 121.923 15.1197 121.746 15.1775C121.79 15.1255 121.827 15.0706 121.853 15.01C121.914 14.8395 121.923 14.6575 121.871 14.4929C121.848 14.4091 121.827 14.3311 121.827 14.2502C121.827 14.1693 121.853 14.0826 121.85 13.996C121.845 13.9093 121.81 13.8197 121.749 13.7446C121.692 13.6695 121.588 13.606 121.492 13.6291L121.484 13.6522C121.59 13.7851 121.585 13.8977 121.645 14.0393C121.677 14.1086 121.729 14.1809 121.746 14.2589C121.767 14.3369 121.755 14.4177 121.735 14.4929C121.686 14.646 121.654 14.7875 121.602 14.9175C121.57 15.0244 121.533 15.1342 121.486 15.2526C121.4 15.2758 121.313 15.296 121.224 15.3133C121.241 15.2931 121.258 15.2729 121.273 15.2526C121.342 15.1284 121.368 14.9753 121.319 14.8395C121.299 14.7731 121.276 14.7124 121.27 14.646C121.261 14.5824 121.278 14.5073 121.258 14.4351C121.215 14.3022 121.088 14.1982 120.935 14.1982L120.92 14.2184C120.969 14.3571 121.004 14.4438 121.073 14.5304C121.111 14.568 121.169 14.6084 121.192 14.6633C121.215 14.7182 121.206 14.7789 121.183 14.8337C121.131 14.9435 121.091 15.0302 121.039 15.1197L120.935 15.3682C120.831 15.3855 120.73 15.4058 120.628 15.4231C120.617 15.4231 120.605 15.426 120.594 15.4289C120.623 15.3913 120.646 15.3509 120.66 15.3104C120.683 15.2093 120.683 15.0995 120.631 15.0013C120.608 14.9522 120.591 14.906 120.594 14.8569C120.594 14.8077 120.626 14.7529 120.628 14.698C120.623 14.594 120.556 14.4986 120.435 14.4582L120.412 14.4697C120.38 14.5911 120.383 14.672 120.423 14.7471C120.449 14.7846 120.496 14.8193 120.51 14.8626C120.524 14.906 120.51 14.9522 120.49 14.9955C120.441 15.0822 120.418 15.1602 120.394 15.2382C120.389 15.3018 120.392 15.374 120.403 15.4549C120.264 15.4809 120.126 15.5098 119.99 15.5473C119.999 15.5329 120.007 15.5184 120.013 15.5011C120.036 15.4375 120.022 15.3682 119.996 15.3046C119.955 15.2382 119.906 15.1862 119.95 15.1169C119.999 15.0446 119.981 14.9753 119.926 14.9262L119.753 14.7817L119.759 14.9406C119.759 14.958 119.765 14.9724 119.77 14.984H119.762C119.744 15.0475 119.759 15.0909 119.825 15.1371C119.889 15.1833 119.848 15.2497 119.805 15.3017C119.776 15.3566 119.753 15.4029 119.756 15.4549C119.759 15.4953 119.776 15.5415 119.802 15.5964C119.742 15.6137 119.678 15.634 119.617 15.6571C119.291 15.7726 118.979 15.946 118.739 16.1944L118.756 16.2118C119.011 15.9835 119.323 15.8391 119.646 15.7495C119.97 15.66 120.305 15.6051 120.643 15.5646C121.313 15.4809 122.035 15.3971 122.63 14.9637C122.914 14.75 123.174 14.4409 123.223 14.0451C123.246 13.8515 123.197 13.6349 123.081 13.4731C122.968 13.3084 122.81 13.1871 122.636 13.1091C122.353 12.982 122.053 12.9733 121.77 12.9964C121.885 12.904 122.015 12.8346 122.148 12.7855C122.347 12.7133 122.564 12.6931 122.755 12.7537C123.15 12.8751 123.462 13.2073 123.627 13.5915C123.798 13.9729 123.838 14.4409 123.679 14.8511C123.52 15.2642 123.171 15.5791 122.778 15.7697C122.382 15.9633 121.954 16.0644 121.518 16.1193L121.527 16.1309ZM119.903 14.9869C119.903 14.9869 119.926 14.9753 119.935 14.9869H119.903ZM135.082 13.7389C134.368 14.5477 133.504 15.218 132.603 15.8275C132.149 16.128 131.667 16.3937 131.161 16.5902C130.653 16.7866 130.116 16.9022 129.584 16.9686C128.521 17.1131 127.42 17.0351 126.406 16.6104L126.395 16.6335C126.704 16.8242 127.042 16.9657 127.391 17.0697C127.894 17.3297 128.336 17.6995 128.7 18.1242C129.174 18.6702 129.492 19.3433 129.624 20.0453C129.754 20.7444 129.717 21.4926 129.448 22.1426C129.31 22.4633 129.11 22.758 128.839 22.966C128.57 23.1798 128.241 23.3126 127.897 23.3704C127.206 23.4889 126.473 23.3358 125.869 22.9833C125.568 22.8071 125.3 22.5702 125.129 22.2755C124.956 21.9838 124.89 21.6313 124.936 21.2933C125.017 20.6173 125.62 20.0222 126.308 19.9875C126.643 19.9644 127.004 20.0915 127.189 20.366C127.313 20.5451 127.362 20.7849 127.316 20.9986C127.27 20.7242 127.074 20.4815 126.814 20.3891C126.432 20.262 126.01 20.4266 125.774 20.7271C125.537 21.0333 125.482 21.4464 125.566 21.8133C125.649 22.1831 125.875 22.5124 126.169 22.7435C126.464 22.9775 126.831 23.1249 127.209 23.148C127.588 23.174 127.972 23.07 128.298 22.8793C128.96 22.5009 129.405 21.7642 129.431 20.9929C129.468 20.2273 129.177 19.4589 128.665 18.8955C128.16 18.3264 127.507 17.9306 126.857 17.584C125.574 16.9137 124.228 16.3909 122.879 15.8882C123.26 15.6484 123.587 15.3133 123.766 14.8944C123.861 14.6777 123.916 14.4409 123.928 14.1982C124.682 15.1631 125.852 15.7726 127.056 15.9749C127.371 16.0211 127.689 16.0413 128.004 16.0413C128.322 16.0355 128.634 16.0066 128.946 15.972C129.57 15.894 130.185 15.7611 130.786 15.5733C131.387 15.3884 131.97 15.1371 132.525 14.8366C133.08 14.5362 133.617 14.2011 134.111 13.8053C135.076 13.0311 135.914 12.0171 136.266 10.8211C136.335 10.8586 136.408 10.8904 136.48 10.9135C136.529 10.9309 136.578 10.9424 136.63 10.954C136.361 12.0084 135.798 12.9444 135.084 13.736L135.082 13.7389ZM135.656 22.4662C135.24 22.9111 134.66 23.1798 134.073 23.2606C133.782 23.2982 133.481 23.2838 133.238 23.1566C132.993 23.0324 132.799 22.8129 132.675 22.5586C132.554 22.3044 132.49 22.0126 132.542 21.7353C132.594 21.4638 132.782 21.2009 133.056 21.1257C133.192 21.0882 133.342 21.094 133.472 21.1546C133.597 21.2153 133.698 21.3338 133.738 21.4695C133.782 21.6053 133.753 21.7555 133.663 21.8624C133.628 21.9058 133.582 21.9404 133.533 21.9664C133.602 21.8769 133.637 21.7555 133.62 21.64C133.585 21.4175 133.374 21.2731 133.169 21.2615C132.95 21.2413 132.744 21.38 132.643 21.562C132.536 21.744 132.528 21.9751 132.597 22.1658C132.664 22.3593 132.799 22.524 132.958 22.6395C133.117 22.7551 133.299 22.8331 133.481 22.8822C133.851 22.9833 134.247 22.9718 134.608 22.8649C134.972 22.7638 135.307 22.5644 135.584 22.316C135.859 22.0618 136.072 21.7526 136.24 21.4291C136.249 21.4089 136.257 21.3886 136.269 21.3684C136.249 21.432 136.223 21.5013 136.2 21.5677C136.096 21.9086 135.89 22.2091 135.651 22.4691L135.656 22.4662ZM135.639 26.0224C135.448 26.1669 135.217 26.2738 134.983 26.2882C134.749 26.3084 134.533 26.216 134.397 26.0571C134.255 25.9011 134.183 25.6902 134.232 25.4938C134.276 25.2915 134.437 25.1009 134.654 25.0489C134.876 24.9969 135.113 25.0951 135.359 25.1326C135.61 25.1789 135.879 25.1124 136.096 24.9737C136.278 24.864 136.425 24.7051 136.538 24.526C136.5 24.6646 136.454 24.8033 136.399 24.942C136.24 25.3464 136 25.7509 135.639 26.0253V26.0224ZM137.965 24.9709C138.181 25.1095 138.45 25.176 138.701 25.1297C138.947 25.0922 139.184 24.994 139.406 25.046C139.623 25.098 139.785 25.2915 139.828 25.4909C139.877 25.6902 139.805 25.9011 139.663 26.0542C139.528 26.2131 139.311 26.3055 139.077 26.2853C138.843 26.2738 138.615 26.164 138.421 26.0195C138.06 25.7451 137.82 25.3406 137.661 24.9362C137.606 24.8004 137.563 24.6618 137.523 24.5202C137.638 24.6964 137.786 24.8582 137.965 24.968V24.9709ZM137.231 22.7522C137.219 22.9515 137.211 23.1509 137.199 23.3502L137.164 23.6564C137.147 23.8009 137.15 23.9482 137.164 24.0926C137.153 24.3469 137.141 24.6011 137.136 24.8553C137.13 25.5544 137.11 26.2622 137.173 26.9671C137.208 27.3195 137.294 27.6633 137.306 28.01C137.323 28.3364 137.24 28.6773 137.029 28.9055C136.829 28.6658 136.783 28.3306 136.803 28.0129C136.826 27.6778 136.922 27.3369 136.954 26.9757C137.023 26.2622 136.971 25.5573 136.948 24.8582C136.933 24.5635 136.916 24.2689 136.899 23.9771C136.904 23.8702 136.902 23.7633 136.89 23.6593L136.867 23.4657C136.852 23.2318 136.838 22.9978 136.824 22.7609C136.777 22.0935 136.722 21.4291 136.659 20.7646C136.812 20.626 136.942 20.4642 137.032 20.2735C137.127 20.4382 137.254 20.5798 137.396 20.6982C137.323 21.3829 137.274 22.0675 137.231 22.7551V22.7522ZM137.63 19.8633C137.78 20.1782 137.97 20.4757 138.207 20.7358C138.366 20.9091 138.545 21.0622 138.733 21.2009C138.467 21.146 138.204 21.0795 137.959 20.964C137.615 20.7993 137.303 20.548 137.144 20.2071L137.089 20.106L137.037 20.0106L136.974 20.106L136.91 20.1984V20.2042C136.72 20.522 136.408 20.7502 136.07 20.8975C135.905 20.9697 135.732 21.0275 135.555 21.0737C135.928 20.7358 136.228 20.3226 136.434 19.8691C136.72 19.2537 136.824 18.5546 136.722 17.896C136.832 17.7602 136.936 17.6186 137.032 17.4713C137.124 17.6273 137.225 17.7746 137.335 17.9162C137.234 18.5691 137.346 19.2595 137.63 19.8662V19.8633ZM137.901 15.452C138.103 16.1858 138.421 16.9195 138.984 17.48C139.242 17.7342 139.556 17.9451 139.9 18.0837C139.36 18.0462 138.826 17.896 138.349 17.636L138.06 17.4771L138.164 17.7862C138.326 18.2686 138.629 18.6904 139.016 19.014C138.805 18.9186 138.6 18.8089 138.407 18.6789C137.878 18.3235 137.419 17.8497 137.089 17.3037L137.023 17.1911L136.968 17.3066L136.951 17.3442C136.63 17.8931 136.191 18.3726 135.665 18.7366C135.298 18.988 134.888 19.1844 134.46 19.3115C135.09 18.9966 135.599 18.4391 135.836 17.7689L135.89 17.6157L135.746 17.6938C135.321 17.922 134.853 18.0606 134.377 18.1126C134.244 18.1271 134.108 18.1329 133.972 18.1329C134.385 18.0057 134.767 17.7717 135.07 17.4713C135.633 16.9166 135.954 16.1829 136.159 15.4491C136.364 14.7124 136.457 13.9526 136.529 13.2015C136.595 12.4562 136.627 11.708 136.659 10.9598C136.783 10.9829 136.907 10.9915 137.04 10.9713H137.023L137.029 10.9742C137.147 11.0233 137.28 11.0406 137.41 11.0291C137.445 11.7542 137.474 12.4764 137.54 13.2015C137.612 13.9555 137.705 14.7124 137.907 15.452H137.901ZM147.203 17.584C146.553 17.9306 145.9 18.3264 145.395 18.8955C144.884 19.4589 144.592 20.2273 144.629 20.9929C144.655 21.7642 145.1 22.5009 145.762 22.8793C146.091 23.07 146.472 23.174 146.851 23.148C147.229 23.1249 147.596 22.9775 147.891 22.7435C148.186 22.5124 148.411 22.1831 148.495 21.8133C148.578 21.4464 148.524 21.0362 148.287 20.7271C148.05 20.4266 147.628 20.2591 147.247 20.3891C146.987 20.4815 146.79 20.7242 146.744 20.9986C146.698 20.7849 146.744 20.5451 146.871 20.366C147.056 20.0915 147.417 19.9644 147.752 19.9875C148.44 20.0222 149.044 20.6173 149.124 21.2933C149.171 21.6313 149.104 21.9838 148.931 22.2755C148.76 22.5702 148.492 22.8071 148.191 22.9833C147.588 23.3358 146.854 23.4889 146.163 23.3704C145.82 23.3126 145.49 23.1798 145.222 22.966C144.95 22.758 144.751 22.4633 144.612 22.1426C144.343 21.4926 144.306 20.7444 144.436 20.0453C144.569 19.3404 144.884 18.6702 145.36 18.1242C145.724 17.6995 146.166 17.3326 146.669 17.0697C147.018 16.9686 147.356 16.8271 147.666 16.6335L147.654 16.6104C146.643 17.0351 145.542 17.116 144.476 16.9686C143.942 16.9022 143.407 16.7866 142.899 16.5902C142.39 16.3937 141.911 16.128 141.457 15.8275C140.556 15.218 139.689 14.5477 138.979 13.7389C138.282 12.9646 137.731 12.0546 137.453 11.0291C137.508 11.0204 137.563 11.0089 137.615 10.9886C137.687 10.9626 137.757 10.928 137.82 10.8846C138.181 12.0517 139.005 13.0455 139.952 13.8053C140.446 14.2011 140.984 14.5362 141.538 14.8366C142.093 15.1371 142.676 15.3884 143.277 15.5733C143.878 15.7611 144.494 15.894 145.118 15.972C145.43 16.0095 145.742 16.0384 146.059 16.0413C146.374 16.0413 146.692 16.0211 147.007 15.9749C148.212 15.7697 149.384 15.1602 150.136 14.1982C150.147 14.438 150.205 14.6777 150.297 14.8944C150.474 15.3104 150.803 15.6484 151.184 15.8882C149.835 16.3909 148.492 16.9137 147.206 17.584H147.203ZM155.206 16.5237C154.775 16.3591 154.316 16.2782 153.865 16.2378C153.414 16.1944 152.967 16.1857 152.53 16.1309C152.094 16.076 151.667 15.9749 151.271 15.7813C150.881 15.5906 150.531 15.2757 150.37 14.8626C150.211 14.4524 150.248 13.9844 150.422 13.6031C150.586 13.2189 150.895 12.8866 151.294 12.7653C151.485 12.7046 151.701 12.7249 151.901 12.7971C152.036 12.8462 152.166 12.9155 152.279 13.008C151.996 12.982 151.696 12.9935 151.412 13.1206C151.239 13.1986 151.08 13.32 150.968 13.4846C150.852 13.6464 150.803 13.8631 150.826 14.0566C150.875 14.4524 151.132 14.7586 151.418 14.9753C152.013 15.4086 152.736 15.4953 153.406 15.5762C153.744 15.6166 154.079 15.6715 154.402 15.7611C154.726 15.8535 155.038 15.998 155.292 16.2233L155.31 16.206C155.07 15.9575 154.758 15.7871 154.431 15.6686C154.371 15.6455 154.307 15.6282 154.246 15.608C154.275 15.5531 154.29 15.5069 154.293 15.4664C154.296 15.4144 154.272 15.3653 154.244 15.3133C154.2 15.2613 154.163 15.1949 154.223 15.1486C154.29 15.1053 154.304 15.0591 154.287 14.9955H154.278C154.278 14.9955 154.29 14.9666 154.29 14.9522L154.296 14.7933L154.122 14.9377C154.064 14.984 154.05 15.0562 154.099 15.1284C154.142 15.1978 154.093 15.2497 154.053 15.3162C154.027 15.3797 154.012 15.452 154.036 15.5126C154.041 15.5271 154.05 15.5444 154.059 15.5589C153.92 15.5242 153.784 15.4953 153.646 15.4664C153.657 15.3855 153.66 15.3133 153.654 15.2497C153.634 15.1689 153.611 15.0937 153.559 15.0071C153.539 14.9637 153.524 14.9175 153.539 14.8742C153.553 14.8309 153.599 14.7933 153.625 14.7586C153.666 14.6806 153.669 14.6026 153.637 14.4813L153.614 14.4697C153.492 14.5102 153.426 14.6055 153.42 14.7095C153.42 14.7644 153.455 14.8193 153.455 14.8684C153.458 14.9175 153.44 14.9637 153.417 15.0129C153.365 15.1111 153.365 15.2209 153.388 15.322C153.403 15.3653 153.426 15.4029 153.455 15.4404C153.443 15.4404 153.432 15.4375 153.42 15.4346C153.319 15.4173 153.215 15.4 153.114 15.3797L153.01 15.1313C152.961 15.0417 152.92 14.9522 152.866 14.8453C152.842 14.7904 152.834 14.7297 152.857 14.6749C152.877 14.62 152.938 14.5795 152.975 14.542C153.042 14.4582 153.079 14.3715 153.128 14.23L153.114 14.2098C152.961 14.2098 152.834 14.3138 152.79 14.4466C152.773 14.516 152.788 14.594 152.779 14.6575C152.773 14.7211 152.75 14.7818 152.73 14.8511C152.681 14.9869 152.707 15.14 152.776 15.2642C152.79 15.2873 152.808 15.3075 152.825 15.3249C152.736 15.3075 152.649 15.2844 152.562 15.2642C152.516 15.1457 152.478 15.036 152.447 14.9291C152.398 14.7962 152.366 14.6575 152.314 14.5044C152.294 14.4264 152.282 14.3455 152.302 14.2704C152.32 14.1953 152.372 14.1202 152.403 14.0509C152.464 13.9093 152.458 13.7966 152.565 13.6637L152.556 13.6406C152.458 13.6175 152.357 13.6811 152.299 13.7562C152.239 13.8313 152.204 13.9209 152.198 14.0075C152.195 14.0971 152.224 14.1809 152.221 14.2618C152.221 14.3426 152.198 14.4235 152.178 14.5044C152.126 14.6691 152.135 14.854 152.195 15.0215C152.221 15.0822 152.259 15.1371 152.302 15.1891C152.126 15.1313 151.956 15.0591 151.797 14.9695C151.782 14.8626 151.762 14.7644 151.742 14.6749L151.62 14.2993C151.6 14.2329 151.597 14.1577 151.62 14.0942C151.644 14.0277 151.707 13.9786 151.748 13.9295C151.823 13.8226 151.869 13.7186 151.932 13.5655L151.918 13.5453C151.748 13.5598 151.609 13.6869 151.56 13.8371C151.54 13.9151 151.551 14.0017 151.54 14.074C151.531 14.1491 151.505 14.2184 151.479 14.2935C151.421 14.4409 151.433 14.6084 151.479 14.7557C151.259 14.5651 151.092 14.3109 151.063 14.0451C151.022 13.7562 151.225 13.4904 151.505 13.3691C151.782 13.2449 152.114 13.2593 152.441 13.3084C152.77 13.3604 153.094 13.4413 153.409 13.5511C154.668 13.996 155.743 14.9377 156.355 16.1424C156.511 16.4429 156.656 16.7577 156.855 17.0466C157.052 17.3298 157.312 17.5926 157.65 17.7111C157.817 17.766 158.014 17.7775 158.178 17.6938C158.34 17.6157 158.479 17.4482 158.464 17.2517C158.456 17.0611 158.334 16.8993 158.19 16.7953C158.112 16.7375 158.028 16.6913 157.941 16.648C158.207 16.6595 158.464 16.7635 158.64 16.9542C158.866 17.194 158.947 17.5666 158.799 17.8497C158.664 18.1357 158.354 18.3351 158.034 18.3842C157.71 18.4304 157.369 18.3495 157.063 18.1964C156.442 17.896 155.965 17.324 155.327 16.96C155.073 16.8097 154.804 16.6884 154.53 16.5902C154.735 16.622 154.934 16.6624 155.133 16.7202C155.552 16.8415 155.954 17.0409 156.274 17.3557L156.295 17.3384C156.032 16.9629 155.627 16.7 155.197 16.5353L155.206 16.5237ZM154.125 14.984C154.125 14.984 154.145 14.9753 154.157 14.984H154.125Z" fill="white"/>
<path d="M143.177 17.1424C142.974 17.0962 142.746 17.1482 142.59 17.2897C142.434 17.4255 142.319 17.622 142.316 17.8386C142.304 18.2864 142.766 18.6533 143.22 18.5551L143.52 18.4886L143.229 18.376C143.081 18.3182 142.94 18.2517 142.841 18.1593C142.74 18.064 142.7 17.9426 142.737 17.83C142.772 17.7144 142.873 17.6133 142.989 17.5873C143.107 17.5584 143.246 17.5873 143.356 17.6624C143.575 17.8097 143.665 18.1217 143.627 18.402C143.593 18.688 143.434 18.9595 143.223 19.1675C142.789 19.5893 142.134 19.7337 141.501 19.7684C140.854 19.8204 140.227 19.8031 139.565 19.676C139.727 19.832 139.895 19.91 140.08 19.9966C140.262 20.0775 140.455 20.1382 140.649 20.1815C141.039 20.2653 141.437 20.3144 141.842 20.2942C142.243 20.274 142.651 20.1988 143.021 20.0111C143.385 19.8204 143.714 19.5402 143.902 19.1675C144.098 18.8006 144.136 18.3557 144.006 17.9686C143.89 17.5815 143.581 17.2348 143.174 17.1453L143.177 17.1424ZM143.743 19.0722C143.546 19.3871 143.257 19.6442 142.922 19.806C142.59 19.9764 142.215 20.0631 141.833 20.0891C141.076 20.1295 140.259 20.0486 139.591 19.6788C139.719 19.7453 139.895 19.7771 140.048 19.8175C140.207 19.8522 140.369 19.8811 140.533 19.9013C140.86 19.9389 141.186 19.9533 141.515 19.9475C141.842 19.9417 142.177 19.9128 142.503 19.8262C142.83 19.7395 143.151 19.5922 143.408 19.3466C143.662 19.1097 143.855 18.7891 143.896 18.4251C143.942 18.0726 143.829 17.6624 143.494 17.4428C143.333 17.3417 143.127 17.2955 142.931 17.3475C142.732 17.4024 142.576 17.5642 142.521 17.7577C142.492 17.856 142.498 17.9686 142.535 18.064C142.558 18.1246 142.593 18.1737 142.631 18.22C142.518 18.1217 142.44 17.986 142.437 17.83C142.42 17.4688 142.792 17.1164 143.168 17.2117C143.541 17.2868 143.821 17.6248 143.913 17.986C144.006 18.3528 143.942 18.7515 143.749 19.0664L143.743 19.0722Z" fill="white"/>
<path d="M141.024 21.0274C140.865 20.9927 140.695 21.0072 140.547 21.0823C140.4 21.1574 140.29 21.2932 140.244 21.4492C140.192 21.6023 140.221 21.7901 140.325 21.9172C140.423 22.0414 140.582 22.1223 140.75 22.1107C140.755 22.1107 140.761 22.1107 140.767 22.1107L141.076 22.079L140.767 22.0125C140.62 21.9807 140.53 21.8016 140.562 21.663C140.591 21.5214 140.747 21.4261 140.891 21.429C141.036 21.429 141.166 21.5272 141.235 21.6572C141.304 21.7901 141.304 21.9461 141.247 22.0905C141.137 22.3823 140.828 22.5643 140.507 22.6394C140.183 22.7174 139.84 22.7001 139.516 22.6076C138.86 22.4285 138.335 21.9287 137.968 21.3394C137.921 21.2643 137.875 21.1892 137.832 21.1112C137.812 21.0736 137.789 21.0332 137.771 20.9985L137.754 20.961C137.754 20.961 137.751 20.9523 137.742 20.9436C137.737 20.9378 137.734 20.935 137.728 20.9292C137.708 20.9147 137.685 20.9061 137.653 20.9205C137.615 20.9436 137.627 20.9494 137.618 20.9581C137.612 20.9696 137.615 20.9696 137.612 20.9754C137.612 20.9841 137.612 20.987 137.612 20.9927C137.612 21.0245 137.612 21.0476 137.618 21.0707C137.63 21.1632 137.647 21.2498 137.67 21.3423C137.702 21.4376 137.745 21.5098 137.783 21.5965C137.924 21.9287 138.138 22.2263 138.384 22.4863C138.808 22.9225 139.349 23.2605 139.958 23.405C140.259 23.4772 140.602 23.4945 140.911 23.353C141.218 23.2114 141.449 22.9514 141.582 22.6538C141.715 22.3563 141.764 22.0183 141.677 21.6976C141.593 21.3827 141.351 21.0938 141.021 21.0274H141.024ZM141.382 22.5585C141.258 22.8127 141.065 23.0323 140.819 23.1565C140.576 23.2836 140.276 23.301 139.984 23.2605C139.398 23.1796 138.817 22.9081 138.401 22.4661C138.161 22.2061 137.956 21.9027 137.852 21.5647C137.829 21.4983 137.803 21.4318 137.783 21.3654C137.791 21.3856 137.8 21.4058 137.812 21.4261C137.982 21.7496 138.193 22.0587 138.467 22.313C138.745 22.5614 139.08 22.7607 139.444 22.8618C139.808 22.9658 140.201 22.9774 140.571 22.8792C140.755 22.8301 140.935 22.7521 141.093 22.6365C141.252 22.521 141.391 22.3563 141.455 22.1627C141.524 21.9721 141.515 21.741 141.408 21.559C141.31 21.3798 141.102 21.2383 140.883 21.2585C140.675 21.273 140.467 21.4174 140.432 21.637C140.415 21.7525 140.449 21.8738 140.519 21.9634C140.469 21.9374 140.423 21.9027 140.389 21.8594C140.299 21.7525 140.27 21.6023 140.313 21.4665C140.354 21.3307 140.455 21.2123 140.579 21.1516C140.706 21.091 140.857 21.0852 140.992 21.1227C141.267 21.2007 141.457 21.4607 141.507 21.7323C141.559 22.0067 141.495 22.3014 141.374 22.5556L141.382 22.5585Z" fill="white"/>
</g>
<defs>
<clipPath id="clip0_114_2123">
<rect width="273" height="28.1696" fill="white" transform="translate(0 0.915039)"/>
</clipPath>
</defs>
</svg>
