<svg width="273" height="29" viewBox="0 0 273 29" fill="none" xmlns="http://www.w3.org/2000/svg">
<g clip-path="url(#clip0_78_478)">
<path d="M273 21.4092C272.39 21.4352 271.781 21.4092 271.171 21.3774L269.342 21.2849C268.733 21.2589 268.12 21.2474 267.511 21.2503C266.901 21.2503 266.292 21.23 265.682 21.2127C265.073 21.1954 264.457 21.1867 263.851 21.1954C263.241 21.1954 262.631 21.1723 262.022 21.152C260.803 21.1029 259.566 21.1578 258.367 21.0856C258.061 21.0509 257.749 21.0596 257.446 21.0567L256.53 21.0509L254.699 21.0278L251.035 20.9787L249.204 20.9614C248.594 20.9585 247.982 20.9498 247.369 20.9585C246.754 20.9672 246.147 21.0076 245.538 21.0163C244.928 21.0307 244.319 21.0307 243.709 21.0336L241.878 21.0394C241.265 21.0394 240.656 21.074 240.052 21.0538C239.442 21.0192 238.827 21.0192 238.22 21.0076C237.914 21.0018 237.614 20.9874 237.307 20.9672C237.001 20.9527 236.695 20.9498 236.389 20.9498C235.167 20.9845 233.953 20.9354 232.729 20.9209C232.119 20.9036 231.507 20.9065 230.897 20.9123L229.065 20.9238C226.624 20.9556 224.183 21.0509 221.742 21.0769C221.133 21.0769 220.523 21.1029 219.913 21.0769L218.082 21.0336C216.863 21.022 215.641 21.022 214.422 20.9903C211.981 20.944 209.539 20.8892 207.098 20.8256C205.873 20.7852 204.666 20.788 203.432 20.7707C202.814 20.7823 202.222 20.7996 201.607 20.7563C200.991 20.736 200.379 20.7563 199.769 20.7736C199.466 20.7823 199.16 20.788 198.856 20.7852C198.556 20.7823 198.241 20.7736 197.938 20.7852C197.322 20.8054 196.721 20.84 196.115 20.8169C195.502 20.8169 194.884 20.7996 194.28 20.8083C193.674 20.8112 193.061 20.7794 192.446 20.8083C191.842 20.8343 191.235 20.8083 190.623 20.7996C190.317 20.7938 190.008 20.7967 189.701 20.8083C189.407 20.8198 189.106 20.7967 188.803 20.7678C188.5 20.7418 188.188 20.7158 187.876 20.7245L186.96 20.7476C186.654 20.7534 186.365 20.736 186.053 20.7158C185.744 20.6985 185.437 20.6956 185.131 20.6985L183.297 20.7129C182.988 20.7129 182.69 20.7274 182.387 20.7187L181.471 20.6956C181.321 20.6898 181.15 20.6956 181.003 20.71C180.847 20.7216 180.72 20.7245 180.561 20.71C180.255 20.6927 179.949 20.6812 179.642 20.6754C179.03 20.6609 178.417 20.6667 177.808 20.6696C177.198 20.6696 176.589 20.6783 175.979 20.6638C175.37 20.6523 174.757 20.6147 174.148 20.6234C172.926 20.6292 171.707 20.6523 170.487 20.6147L166.821 20.6032C165.602 20.6118 164.383 20.5743 163.158 20.6032C162.549 20.606 161.939 20.5887 161.327 20.6118C160.714 20.6349 160.111 20.6667 159.498 20.6292C158.886 20.6176 158.276 20.6407 157.664 20.6696C157.36 20.6927 157.054 20.7187 156.757 20.658C156.447 20.5772 156.141 20.7389 155.847 20.6465L155.838 20.6696C156.144 20.7678 156.453 20.6118 156.748 20.6956C157.051 20.762 157.363 20.7389 157.667 20.7216C158.273 20.7043 158.889 20.6869 159.495 20.71C160.105 20.7563 160.72 20.7332 161.33 20.7187C161.936 20.7072 162.549 20.7274 163.161 20.7303C164.377 20.71 165.599 20.7592 166.821 20.7563L170.479 20.7967C171.701 20.8429 172.926 20.8314 174.145 20.8343C174.754 20.8314 175.364 20.8718 175.973 20.8892C176.583 20.9094 177.195 20.9065 177.808 20.9094C178.417 20.9094 179.027 20.9123 179.637 20.9267C179.94 20.9325 180.243 20.944 180.547 20.9585C180.691 20.97 180.873 20.97 181.02 20.9556C181.176 20.9412 181.312 20.9383 181.465 20.9412L182.381 20.9643C182.69 20.97 182.999 20.9556 183.303 20.9556L185.131 20.9383C185.435 20.9383 185.738 20.9383 186.041 20.9556C186.336 20.9758 186.659 20.9932 186.963 20.9874L187.879 20.9643C188.179 20.9556 188.474 20.9816 188.78 21.0076C189.083 21.0336 189.395 21.0596 189.71 21.0452C190.011 21.0336 190.314 21.0307 190.62 21.0365C191.227 21.0452 191.842 21.0712 192.457 21.0423C193.061 21.0134 193.668 21.048 194.283 21.0423C194.899 21.0365 195.499 21.048 196.109 21.0509C196.724 21.074 197.343 21.0394 197.946 21.0192C198.25 21.0076 198.547 21.0134 198.856 21.0192C199.163 21.0192 199.469 21.0134 199.775 21.0076C200.385 20.9903 200.994 20.97 201.598 20.9874C201.895 20.9989 202.21 21.0192 202.517 21.0134C202.826 21.0134 203.129 20.9989 203.432 20.9932C204.64 21.0018 205.873 20.9903 207.093 21.0192C209.534 21.0654 211.975 21.1 214.416 21.1289C215.635 21.152 216.857 21.1463 218.079 21.152L219.911 21.1867C220.52 21.2069 221.133 21.178 221.742 21.1752C224.183 21.1347 226.624 21.022 229.065 21.0192H230.897C231.507 21.0192 232.119 21.0192 232.729 21.0423C233.945 21.0654 235.173 21.1232 236.392 21.0972C236.695 21.0972 237.001 21.1 237.302 21.1203C237.605 21.1434 237.914 21.1607 238.217 21.1665C238.83 21.1809 239.437 21.1838 240.046 21.2214C240.661 21.2474 241.271 21.2185 241.881 21.2214L243.712 21.2272C244.322 21.2272 244.934 21.23 245.544 21.2214C246.156 21.2185 246.769 21.1809 247.372 21.1752L251.033 21.2012L254.693 21.2272L256.524 21.2387H257.44C257.749 21.2387 258.05 21.23 258.35 21.2618C259.587 21.3283 260.794 21.2647 262.016 21.3052C262.626 21.3196 263.238 21.3427 263.851 21.3369C264.463 21.3254 265.07 21.3283 265.679 21.3427C266.289 21.3543 266.901 21.3745 267.511 21.3629C268.12 21.3514 268.73 21.3543 269.339 21.3687L271.168 21.4323C271.778 21.4554 272.39 21.4698 273 21.4323V21.4063V21.4092Z" fill="#4F392B"/>
<path d="M115.333 21.3774L113.504 21.2849C112.895 21.2589 112.282 21.2474 111.673 21.2503C111.063 21.2503 110.454 21.23 109.844 21.2127C109.235 21.1954 108.619 21.1867 108.013 21.1954C107.403 21.1954 106.794 21.1723 106.184 21.152C104.965 21.1029 103.728 21.1578 102.53 21.0856C102.223 21.0509 101.911 21.0596 101.608 21.0567L100.692 21.0509L98.8607 21.0278L95.1975 20.9787L93.366 20.9614C92.7564 20.9585 92.144 20.9498 91.5315 20.9585C90.9162 20.9672 90.3095 21.0076 89.7 21.0163C89.0904 21.0307 88.4809 21.0307 87.8713 21.0336L86.0398 21.0394C85.4273 21.0394 84.8178 21.074 84.214 21.0538C83.6073 21.0192 82.9891 21.0192 82.3824 21.0076C82.0762 21.0018 81.7758 20.9874 81.4696 20.9672C81.1633 20.9527 80.8571 20.9498 80.5509 20.9498C79.3289 20.9845 78.1156 20.9354 76.8907 20.9209C76.2811 20.9036 75.6687 20.9065 75.0591 20.9123L73.2275 20.9238C70.7864 20.9556 68.3453 21.0509 65.9042 21.0769C65.2947 21.0769 64.6851 21.1029 64.0756 21.0769L62.244 21.0336C61.0249 21.022 59.8029 21.022 58.5838 20.9903C56.1427 20.944 53.7016 20.8892 51.2604 20.8256C50.0356 20.7852 48.828 20.788 47.5944 20.7707C46.9762 20.7823 46.384 20.7996 45.7687 20.7563C45.1533 20.736 44.5409 20.7563 43.9313 20.7736C43.628 20.7823 43.3218 20.788 43.0184 20.7852C42.718 20.7823 42.4031 20.7736 42.0998 20.7852C41.4844 20.8054 40.8836 20.84 40.2769 20.8169C39.6644 20.8169 39.0462 20.7996 38.4424 20.8083C37.8358 20.8112 37.2233 20.7794 36.608 20.8083C36.0042 20.8343 35.3976 20.8083 34.7851 20.7996C34.4789 20.7938 34.1727 20.7967 33.8636 20.8083C33.5689 20.8198 33.2684 20.7967 32.9651 20.7678C32.6618 20.7418 32.3498 20.7158 32.0378 20.7245L31.122 20.7476C30.8158 20.7534 30.5269 20.736 30.2149 20.7158C29.9058 20.6985 29.5996 20.6956 29.2933 20.6985L27.4589 20.7129C27.1498 20.7129 26.8522 20.7274 26.5489 20.7187L25.6331 20.6956C25.4829 20.6898 25.3124 20.6956 25.1651 20.71C25.0091 20.7216 24.882 20.7245 24.7231 20.71C24.4169 20.6927 24.1107 20.6812 23.8044 20.6754C23.192 20.6609 22.5796 20.6667 21.97 20.6696C21.3604 20.6696 20.7509 20.6783 20.1413 20.6638C19.5318 20.6523 18.9193 20.6147 18.3098 20.6234C17.0878 20.6292 15.8687 20.6523 14.6496 20.6147L10.9836 20.6032C9.76444 20.6118 8.54533 20.5743 7.32044 20.6032C6.71089 20.606 6.10133 20.5887 5.48889 20.6118C4.87644 20.6349 4.27267 20.6667 3.66022 20.6292C3.04778 20.6176 2.43822 20.6407 1.82578 20.6696C1.52244 20.6927 1.21622 20.7187 0.918667 20.658C0.609556 20.5772 0.303333 20.7389 0.00866667 20.6465L0 20.6696C0.306222 20.7678 0.615333 20.6118 0.91 20.6956C1.21333 20.762 1.52533 20.7389 1.82867 20.7216C2.43533 20.7043 3.05067 20.6869 3.65733 20.71C4.26689 20.7563 4.88222 20.7332 5.49178 20.7187C6.09844 20.7072 6.71089 20.7274 7.32333 20.7303C8.53956 20.71 9.76155 20.7592 10.9836 20.7563L14.6409 20.7967C15.8629 20.8429 17.0878 20.8314 18.3069 20.8343C18.9164 20.8314 19.526 20.8718 20.1356 20.8892C20.7451 20.9094 21.3576 20.9065 21.97 20.9094C22.5796 20.9094 23.1891 20.9123 23.7987 20.9267C24.102 20.9325 24.4053 20.944 24.7087 20.9585C24.8531 20.97 25.0351 20.97 25.1824 20.9556C25.3384 20.9412 25.4742 20.9383 25.6273 20.9412L26.5431 20.9643C26.8493 20.97 27.1613 20.9556 27.4647 20.9556L29.2933 20.9383C29.5967 20.9383 29.9 20.9383 30.2004 20.9556C30.4951 20.9758 30.8187 20.9932 31.122 20.9874L32.0378 20.9643C32.3382 20.9556 32.6329 20.9816 32.9391 21.0076C33.2424 21.0336 33.5544 21.0596 33.8693 21.0452C34.1698 21.0336 34.4731 21.0307 34.7793 21.0365C35.386 21.0452 36.0013 21.0712 36.6167 21.0423C37.2204 21.0134 37.8271 21.048 38.4424 21.0423C39.0578 21.0365 39.6587 21.048 40.2682 21.0509C40.8836 21.074 41.5018 21.0394 42.1056 21.0192C42.4089 21.0076 42.7064 21.0134 43.0156 21.0192C43.3218 21.0192 43.628 21.0134 43.9342 21.0076C44.5438 20.9903 45.1533 20.97 45.7571 20.9874C46.0547 20.9989 46.3696 21.0192 46.6758 21.0134C46.9849 21.0134 47.2882 20.9989 47.5916 20.9932C48.7991 21.0018 50.0327 20.9903 51.2518 21.0192C53.6929 21.0654 56.134 21.1 58.5751 21.1289C59.7942 21.152 61.0162 21.1463 62.2382 21.152L64.0698 21.1867C64.6793 21.2069 65.2918 21.178 65.9013 21.1752C68.3424 21.1347 70.7836 21.022 73.2247 21.0192H75.0562C75.6658 21.0192 76.2753 21.0192 76.8878 21.0423C78.104 21.0654 79.3318 21.1232 80.5509 21.0972C80.8542 21.0972 81.1604 21.1 81.4609 21.1203C81.7642 21.1434 82.0733 21.1607 82.3767 21.1665C82.9891 21.1809 83.5958 21.1838 84.2053 21.2214C84.8207 21.2474 85.4302 21.2185 86.0398 21.2214L87.8713 21.2272C88.4809 21.2272 89.0933 21.23 89.7058 21.2214C90.3182 21.2185 90.9307 21.1809 91.5344 21.1752L95.1947 21.2012L98.8549 21.2272L100.686 21.2387H101.602C101.911 21.2387 102.212 21.23 102.512 21.2618C103.749 21.3283 104.956 21.2647 106.178 21.3052C106.788 21.3196 107.4 21.3427 108.013 21.3369C108.625 21.3254 109.232 21.3283 109.841 21.3427C110.451 21.3543 111.063 21.3745 111.673 21.3629C112.282 21.3514 112.892 21.3543 113.502 21.3687L115.33 21.4323C115.94 21.4554 116.552 21.4698 117.162 21.4323V21.4063C116.552 21.4323 115.94 21.4063 115.333 21.3745V21.3774Z" fill="#4F392B"/>
<path d="M133.408 19.7598C133.605 19.7164 133.796 19.6558 133.978 19.5749C134.162 19.4882 134.33 19.4102 134.492 19.2542C133.827 19.3813 133.2 19.3987 132.556 19.3467C131.924 19.312 131.271 19.1675 130.834 18.7458C130.624 18.5378 130.465 18.2662 130.43 17.9802C130.392 17.7 130.482 17.388 130.702 17.2407C130.811 17.1684 130.95 17.1367 131.068 17.1655C131.184 17.1915 131.285 17.2927 131.32 17.4082C131.357 17.5238 131.314 17.6422 131.216 17.7375C131.118 17.83 130.973 17.8993 130.829 17.9542L130.537 18.0669L130.837 18.1333C131.291 18.2315 131.753 17.8647 131.742 17.4169C131.736 17.2002 131.623 17.0038 131.467 16.868C131.311 16.7293 131.08 16.6744 130.881 16.7207C130.473 16.8102 130.164 17.154 130.049 17.544C129.922 17.9311 129.959 18.376 130.153 18.7429C130.34 19.1155 130.673 19.3987 131.034 19.5864C131.404 19.7713 131.814 19.8493 132.212 19.8695C132.617 19.8898 133.013 19.8435 133.406 19.7569L133.408 19.7598ZM132.227 19.6731C131.846 19.6471 131.47 19.5575 131.138 19.39C130.8 19.2253 130.511 18.9711 130.317 18.6562C130.121 18.3413 130.06 17.9455 130.153 17.5758C130.245 17.2147 130.525 16.8767 130.898 16.8015C131.274 16.7091 131.646 17.0587 131.626 17.4198C131.626 17.5758 131.545 17.7087 131.432 17.8098C131.47 17.7635 131.505 17.7115 131.528 17.6538C131.565 17.5584 131.568 17.4458 131.542 17.3475C131.487 17.1511 131.331 16.9893 131.132 16.9373C130.936 16.8853 130.73 16.9287 130.569 17.0327C130.234 17.2522 130.121 17.6624 130.167 18.0149C130.21 18.3789 130.404 18.6967 130.655 18.9364C130.91 19.1791 131.233 19.3293 131.56 19.416C131.886 19.5027 132.221 19.5315 132.548 19.5373C132.874 19.5402 133.203 19.5287 133.53 19.4911C133.692 19.4709 133.853 19.442 134.015 19.4073C134.171 19.3698 134.344 19.3351 134.472 19.2687C133.804 19.6413 132.987 19.7222 132.23 19.6789L132.227 19.6731Z" fill="#4F392B"/>
<path d="M156.979 17.9571C157.309 18.1246 157.693 18.2373 158.083 18.1708C158.464 18.1044 158.831 17.8733 158.996 17.5035C159.163 17.128 159.036 16.6831 158.762 16.4173C158.482 16.1428 158.071 16.0533 157.707 16.1284L157.499 16.1717L157.702 16.2295C157.86 16.2757 158.014 16.3451 158.149 16.4404C158.282 16.53 158.386 16.6715 158.398 16.8246C158.412 16.9777 158.302 17.128 158.158 17.1944C158.014 17.2637 157.843 17.2551 157.69 17.2002C157.381 17.0846 157.132 16.8391 156.956 16.556C156.777 16.2728 156.644 15.958 156.5 15.6488C156.22 15.0162 155.795 14.4442 155.286 13.9704C154.769 13.5024 154.168 13.124 153.51 12.8842C153.18 12.7628 152.842 12.6675 152.496 12.6184C152.455 12.6126 152.418 12.6068 152.377 12.604C152.27 12.4595 152.12 12.3411 151.956 12.2602C151.745 12.1591 151.493 12.1013 151.248 12.162C150.768 12.2746 150.39 12.6617 150.231 13.1095C150.162 13.3117 150.133 13.5197 150.136 13.7277C149.968 13.8953 149.789 14.0484 149.604 14.19C148.711 14.5106 147.723 14.4586 146.883 14.086C146.444 13.8982 146.019 13.6035 145.759 13.1875C145.502 12.7744 145.458 12.214 145.724 11.8095C145.851 11.6044 146.03 11.4368 146.198 11.2462C146.371 11.0584 146.522 10.8388 146.637 10.6077C146.871 10.1426 146.987 9.62551 146.998 9.1084C147.013 8.5884 146.903 8.07996 146.761 7.59752C146.626 7.15263 146.458 6.71929 146.267 6.29752C146.273 6.28596 146.282 6.2744 146.288 6.26285C146.38 6.07507 146.438 5.86707 146.452 5.65907C146.487 5.24018 146.357 4.80974 146.091 4.47463L145.588 3.84196L145.863 4.60463C145.944 4.83285 145.889 5.11018 145.756 5.34418C145.626 5.58107 145.424 5.78618 145.219 5.99707C144.794 6.42174 144.436 6.91863 144.176 7.45885C143.65 8.54218 143.497 9.76996 143.664 10.9428C143.835 12.11 144.306 13.28 145.178 14.1293C145.866 14.8226 146.874 15.2097 147.836 15.1231C147.553 15.2184 147.261 15.2964 146.969 15.3571C146.368 15.4871 145.747 15.5391 145.126 15.4784C144.508 15.4148 143.901 15.256 143.324 15.0306C142.526 14.71 141.761 14.3084 141.044 13.8404C140.848 13.6295 140.674 13.3984 140.539 13.1442C140.31 12.7253 140.175 12.266 140.094 11.7951C140.007 11.3271 139.975 10.8331 140.12 10.3708C140.264 9.91729 140.599 9.50707 141.038 9.33663C141.472 9.17196 141.995 9.24129 142.301 9.5504C142.607 9.85374 142.671 10.4055 142.382 10.7002C142.243 10.8504 142.029 10.9342 141.821 10.9371C141.613 10.94 141.411 10.836 141.307 10.6482C141.258 10.5586 141.232 10.4546 141.246 10.3535C141.261 10.2553 141.319 10.1542 141.402 10.0935C141.486 10.03 141.596 10.0097 141.7 10.0473C141.804 10.0848 141.894 10.1744 141.917 10.29H141.943C141.948 10.0184 141.584 9.81907 141.333 9.98663C141.212 10.0588 141.122 10.1802 141.085 10.3188C141.047 10.4604 141.07 10.6106 141.131 10.7377C141.249 10.9977 141.53 11.1682 141.81 11.1797C142.09 11.1971 142.37 11.0902 142.572 10.888C142.778 10.68 142.856 10.3766 142.821 10.1051C142.786 9.83063 142.659 9.57351 142.463 9.38574C142.052 9.00152 141.434 8.98707 140.981 9.21529C140.516 9.44929 140.209 9.88263 140.042 10.3477C139.871 10.8157 139.831 11.33 139.886 11.8268C139.941 12.3237 140.102 12.8148 140.371 13.2453C140.432 13.3406 140.498 13.4302 140.568 13.5197C140.417 13.41 140.267 13.3002 140.12 13.1875C139.178 12.4595 138.352 11.5611 137.855 10.4546C137.95 10.3882 138.031 10.3044 138.092 10.2033C138.294 9.85663 138.202 9.40018 137.927 9.17196C138.363 9.14018 138.797 8.9784 139.143 8.70107C139.666 8.26196 139.961 7.59463 139.987 6.92152C140.082 7.02263 140.189 7.11796 140.313 7.1844C140.484 7.27396 140.663 7.35485 140.862 7.38952C141.059 7.42418 141.264 7.42418 141.466 7.37507C141.668 7.32596 141.853 7.22485 142.012 7.09774C142.327 6.83774 142.532 6.47952 142.653 6.10685C142.778 5.73418 142.809 5.3384 142.763 4.95707C142.717 4.57574 142.607 4.20596 142.44 3.86507C142.275 3.52418 142.052 3.19485 141.746 2.9464C141.174 2.48996 140.368 2.32529 139.686 2.54774C139.704 2.48996 139.707 2.43507 139.704 2.38596C139.698 2.26463 139.666 2.15485 139.634 2.05085C139.574 1.84863 139.481 1.63485 139.36 1.44996C139.12 1.0744 138.742 0.788405 138.326 0.638183C137.913 0.48796 137.456 0.464849 137.037 0.580405H137.008L137.023 0.583294C136.592 0.508183 136.159 0.56596 135.758 0.710405C135.356 0.85196 134.978 1.10329 134.72 1.4644C134.59 1.64063 134.498 1.85152 134.432 2.05085C134.397 2.15485 134.365 2.26174 134.356 2.38307C134.356 2.43218 134.356 2.48707 134.374 2.54485C133.689 2.3224 132.883 2.48707 132.311 2.94352C132.005 3.18907 131.782 3.5184 131.618 3.86218C131.45 4.20596 131.34 4.57285 131.294 4.95418C131.248 5.33552 131.28 5.73418 131.404 6.10396C131.525 6.47374 131.73 6.83485 132.045 7.09485C132.204 7.22196 132.389 7.32307 132.591 7.37218C132.794 7.42129 132.999 7.42129 133.195 7.38663C133.394 7.35196 133.574 7.27107 133.744 7.18152C133.86 7.12085 133.958 7.03707 134.047 6.94463C134.094 7.61485 134.391 8.27063 134.914 8.70107C135.264 8.98129 135.694 9.14018 136.13 9.16907C135.847 9.3944 135.769 9.86529 135.992 10.186C136.058 10.2755 136.142 10.342 136.231 10.3968C135.737 11.5264 134.897 12.4451 133.938 13.1846C133.79 13.3002 133.64 13.41 133.49 13.5168C133.559 13.4302 133.626 13.3377 133.686 13.2424C133.952 12.8148 134.114 12.3237 134.172 11.824C134.224 11.3271 134.183 10.8128 134.016 10.3448C133.848 9.87974 133.539 9.44351 133.077 9.2124C132.623 8.98418 132.002 8.99863 131.595 9.38285C131.395 9.57351 131.268 9.82774 131.236 10.1022C131.202 10.3737 131.28 10.6771 131.485 10.8851C131.687 11.0873 131.967 11.1942 132.248 11.1768C132.528 11.1653 132.811 10.9948 132.926 10.7348C132.987 10.6077 133.01 10.4575 132.973 10.316C132.935 10.1773 132.846 10.056 132.724 9.98374C132.473 9.81907 132.112 10.0155 132.115 10.2871H132.141C132.161 10.1715 132.253 10.082 132.357 10.0473C132.461 10.0068 132.571 10.03 132.655 10.0935C132.739 10.1542 132.796 10.2524 132.811 10.3535C132.825 10.4517 132.799 10.5557 132.75 10.6482C132.649 10.8331 132.447 10.94 132.236 10.9371C132.028 10.9371 131.814 10.8504 131.676 10.7002C131.387 10.4055 131.453 9.85663 131.756 9.5504C132.063 9.24129 132.586 9.16907 133.019 9.33663C133.458 9.50707 133.793 9.9144 133.938 10.3708C134.085 10.8331 134.05 11.3271 133.964 11.7951C133.883 12.266 133.747 12.7253 133.519 13.1442C133.386 13.3984 133.212 13.6295 133.013 13.8404C132.294 14.3084 131.531 14.71 130.734 15.0306C130.156 15.256 129.549 15.4177 128.931 15.4784C128.31 15.5391 127.689 15.4871 127.088 15.3571C126.796 15.2964 126.504 15.2184 126.221 15.1231C127.183 15.2097 128.192 14.8226 128.879 14.1293C129.752 13.28 130.222 12.11 130.393 10.9428C130.563 9.76996 130.41 8.53929 129.882 7.45885C129.622 6.91863 129.263 6.42174 128.839 5.99707C128.634 5.78618 128.431 5.58107 128.301 5.34418C128.171 5.11307 128.114 4.83574 128.194 4.60463L128.469 3.84196L127.966 4.47463C127.7 4.80974 127.57 5.24018 127.605 5.65907C127.62 5.86996 127.677 6.07507 127.77 6.26285C127.776 6.2744 127.784 6.28596 127.79 6.29752C127.599 6.71929 127.432 7.15263 127.296 7.59752C127.157 8.07996 127.045 8.5884 127.059 9.1084C127.071 9.62263 127.186 10.1426 127.42 10.6077C127.536 10.8388 127.686 11.0584 127.859 11.2462C128.027 11.4368 128.206 11.6044 128.333 11.8095C128.599 12.2111 128.553 12.7744 128.298 13.1875C128.038 13.6064 127.617 13.8982 127.175 14.086C126.334 14.4586 125.346 14.5106 124.453 14.19C124.268 14.0484 124.089 13.8953 123.922 13.7277C123.925 13.5197 123.899 13.3117 123.826 13.1095C123.668 12.6617 123.289 12.2746 122.81 12.162C122.564 12.1013 122.313 12.162 122.102 12.2602C121.937 12.3411 121.79 12.4566 121.68 12.604C121.64 12.6097 121.599 12.6126 121.562 12.6184C121.215 12.6675 120.874 12.7628 120.548 12.8842C119.889 13.1268 119.288 13.5053 118.771 13.9704C118.262 14.4442 117.838 15.0162 117.558 15.6488C117.413 15.9608 117.28 16.2728 117.101 16.556C116.925 16.8391 116.676 17.0846 116.367 17.2002C116.214 17.2551 116.041 17.2637 115.899 17.1944C115.755 17.128 115.648 16.9806 115.66 16.8246C115.671 16.6686 115.775 16.53 115.908 16.4404C116.044 16.3451 116.197 16.2757 116.356 16.2295L116.558 16.1717L116.35 16.1284C115.986 16.0533 115.576 16.1457 115.296 16.4173C115.021 16.6831 114.894 17.128 115.062 17.5035C115.229 17.8733 115.596 18.1044 115.974 18.1708C116.364 18.2373 116.749 18.1246 117.078 17.9571C117.745 17.6104 118.21 17.0413 118.803 16.6657C119.181 16.4231 119.597 16.2324 120.03 16.1024C120.091 16.0966 120.152 16.0908 120.215 16.088C120.657 16.0533 121.111 16.0244 121.562 15.9464C122.009 15.8742 122.457 15.7326 122.844 15.4871C124.167 16.0735 125.499 16.6397 126.762 17.3331C127.4 17.6826 128.027 18.0784 128.495 18.6186C128.726 18.8902 128.92 19.1906 129.044 19.5229C129.168 19.8551 129.232 20.2104 129.22 20.5628C129.214 21.2706 128.833 21.9611 128.223 22.3395C127.923 22.5273 127.568 22.6371 127.209 22.6255C126.851 22.6111 126.502 22.4753 126.218 22.2557C125.935 22.0362 125.71 21.73 125.635 21.3775C125.557 21.0308 125.615 20.6437 125.837 20.3635C126.051 20.0891 126.447 19.9475 126.77 20.0717C127.085 20.1873 127.284 20.5917 127.149 20.8922L126.984 21.2533L127.261 20.9673C127.553 20.6668 127.539 20.1844 127.328 19.8522C127.105 19.5026 126.681 19.3495 126.294 19.3668C125.496 19.3928 124.803 20.0544 124.696 20.8402C124.638 21.2273 124.71 21.6375 124.907 21.9784C125.1 22.3222 125.401 22.588 125.727 22.7873C126.383 23.1802 127.178 23.3333 127.934 23.2033C128.313 23.1368 128.683 22.9866 128.989 22.7411C129.301 22.5013 129.523 22.1633 129.665 21.8108C129.942 21.0944 129.962 20.3144 129.809 19.5806C129.555 18.3471 128.706 17.284 127.617 16.7062C128.267 16.8593 128.954 16.8708 129.607 16.7524C130.156 16.6484 130.679 16.4577 131.184 16.2411C131.693 16.0273 132.187 15.7875 132.669 15.5217C133.631 14.9873 134.538 14.3286 135.278 13.4937C135.902 12.7744 136.387 11.9048 136.581 10.9746C136.523 11.5726 136.465 12.1706 136.39 12.7686C136.298 13.5168 136.176 14.2622 135.966 14.9786C135.758 15.6922 135.437 16.3884 134.911 16.894C134.388 17.388 133.654 17.7115 132.944 17.5786L132.898 17.7837H132.903C133.389 17.9108 133.897 17.9311 134.391 17.8617C134.83 17.8011 135.258 17.6624 135.651 17.4602C135.359 18.2171 134.683 18.818 133.891 19.0202L133.906 19.0953H133.909C134.55 18.9942 135.171 18.7544 135.711 18.3904C136.075 18.1477 136.402 17.8473 136.685 17.5093C136.685 18.1564 136.523 18.7891 136.231 19.3466C135.919 19.9302 135.474 20.4328 134.928 20.7968L134.322 21.2042L135.03 21.0337C135.405 20.9442 135.798 20.8517 136.162 20.6726C136.194 20.6582 136.223 20.6408 136.254 20.6235C136.243 20.6437 136.234 20.664 136.223 20.6842C136.179 20.7593 136.133 20.8373 136.087 20.9124C135.72 21.5017 135.194 22.0015 134.538 22.1806C134.215 22.2731 133.871 22.2904 133.548 22.2124C133.227 22.1373 132.918 21.9553 132.808 21.6635C132.75 21.522 132.75 21.3631 132.82 21.2302C132.889 21.0973 133.019 20.9991 133.163 21.002C133.308 21.002 133.464 21.0944 133.493 21.236C133.524 21.3775 133.435 21.5537 133.288 21.5855L132.978 21.652L133.288 21.6837C133.288 21.6837 133.299 21.6837 133.305 21.6837C133.472 21.6953 133.631 21.6144 133.73 21.4902C133.836 21.3602 133.865 21.1753 133.81 21.0222C133.764 20.8662 133.654 20.7304 133.507 20.6553C133.363 20.5802 133.189 20.5657 133.03 20.6004C132.704 20.6668 132.458 20.9557 132.375 21.2706C132.288 21.5913 132.34 21.9293 132.47 22.2268C132.606 22.5215 132.837 22.7844 133.14 22.926C133.449 23.0675 133.793 23.0473 134.094 22.978C134.703 22.8335 135.243 22.4955 135.668 22.0593C135.914 21.7993 136.127 21.5017 136.269 21.1695C136.306 21.0857 136.35 21.0106 136.382 20.9153C136.405 20.8257 136.419 20.7362 136.434 20.6437C136.434 20.6206 136.439 20.5975 136.439 20.5657C136.439 20.56 136.439 20.5571 136.439 20.5484C136.439 20.5455 136.439 20.5426 136.434 20.5311C136.431 20.5253 136.431 20.5224 136.428 20.5166C136.497 20.4704 136.564 20.4184 136.627 20.3635C136.618 21.0222 136.621 21.6808 136.627 22.3395C136.633 22.6168 136.639 22.8971 136.644 23.1744L136.636 23.2004C136.503 23.6684 136.367 24.122 136.003 24.4195C135.827 24.5611 135.599 24.6535 135.365 24.6217C135.131 24.5957 134.9 24.486 134.631 24.512C134.362 24.5408 134.128 24.7431 134.033 25.006C133.932 25.2775 134.039 25.5953 134.241 25.7802C134.443 25.9795 134.752 26.0228 134.995 25.9593C135.243 25.8957 135.454 25.76 135.651 25.6155C136.012 25.3411 136.35 25.0146 136.59 24.6073C136.624 24.5466 136.65 24.4831 136.679 24.4195C136.679 24.4282 136.679 24.434 136.679 24.4426C136.696 25.1446 136.769 25.8437 136.717 26.5284C136.694 26.8664 136.613 27.2102 136.601 27.5771C136.587 27.9382 136.673 28.3368 136.951 28.6084L136.959 28.6171H136.965L136.994 28.6373L137.037 28.6604L137.072 28.6315L137.092 28.6142H137.098V28.6084C137.361 28.3224 137.41 27.9324 137.393 27.58C137.37 27.2217 137.277 26.8837 137.26 26.5342C137.205 25.838 137.306 25.1388 137.344 24.4397C137.344 24.4166 137.344 24.3906 137.346 24.3675C137.381 24.4513 137.416 24.5322 137.462 24.6102C137.702 25.0175 138.04 25.344 138.401 25.6184C138.597 25.7628 138.808 25.8957 139.057 25.9622C139.299 26.0257 139.608 25.9824 139.811 25.7831C140.013 25.5982 140.12 25.2833 140.019 25.0088C139.923 24.746 139.689 24.5437 139.421 24.5148C139.155 24.4888 138.921 24.5986 138.687 24.6246C138.453 24.6564 138.225 24.564 138.048 24.4224C137.684 24.1277 137.549 23.6713 137.416 23.2033L137.398 23.1426C137.407 22.874 137.416 22.6024 137.422 22.3337C137.433 21.6548 137.439 20.976 137.424 20.2971C137.578 20.4213 137.748 20.5224 137.924 20.6033C138.282 20.7708 138.664 20.8691 139.039 20.9702L139.418 21.0742L139.094 20.8431C138.823 20.6495 138.586 20.4126 138.372 20.1613C138.161 19.91 137.97 19.6355 137.823 19.3409C137.537 18.7862 137.384 18.168 137.372 17.5295C137.638 17.8646 137.947 18.1651 138.297 18.4106C138.843 18.7948 139.476 19.0577 140.14 19.1617L140.183 18.9393C139.473 18.7602 138.854 18.2431 138.534 17.5873C139.351 17.9542 140.29 18.0264 141.157 17.7982C141.157 17.7982 141.163 17.7982 141.166 17.7982L141.108 17.5468C140.409 17.6855 139.672 17.3706 139.152 16.8795C138.623 16.3768 138.3 15.6806 138.092 14.97C137.878 14.2535 137.757 13.5082 137.661 12.76C137.586 12.1648 137.528 11.5697 137.474 10.9717C137.67 11.8991 138.155 12.7657 138.776 13.4851C139.516 14.3228 140.426 14.9815 141.385 15.5131C141.868 15.7788 142.362 16.0215 142.87 16.2353C143.376 16.4491 143.898 16.6397 144.447 16.7466C145.1 16.8651 145.791 16.8535 146.441 16.7004C145.352 17.2782 144.502 18.3413 144.248 19.5749C144.098 20.3086 144.118 21.0886 144.392 21.8051C144.534 22.1604 144.756 22.4955 145.068 22.7353C145.375 22.9809 145.744 23.1282 146.123 23.1975C146.88 23.3275 147.674 23.1744 148.33 22.7815C148.656 22.5851 148.957 22.3193 149.15 21.9726C149.347 21.6317 149.419 21.2215 149.361 20.8344C149.254 20.0486 148.558 19.39 147.764 19.3611C147.377 19.3437 146.949 19.494 146.73 19.8464C146.516 20.1786 146.504 20.6611 146.796 20.9615L147.073 21.2475L146.909 20.8864C146.773 20.586 146.972 20.1815 147.287 20.066C147.611 19.9417 148.006 20.0833 148.22 20.3577C148.44 20.6351 148.498 21.0251 148.422 21.3717C148.35 21.7242 148.122 22.0333 147.842 22.25C147.559 22.4666 147.206 22.6053 146.851 22.6197C146.493 22.6313 146.14 22.5215 145.837 22.3337C145.227 21.9553 144.846 21.2649 144.84 20.5571C144.826 20.2046 144.889 19.8493 145.016 19.5171C145.144 19.1848 145.334 18.8844 145.565 18.6128C146.033 18.0697 146.66 17.6768 147.299 17.3273C148.561 16.634 149.896 16.0677 151.216 15.4813C151.603 15.7268 152.051 15.8684 152.499 15.9406C152.949 16.0157 153.403 16.0446 153.845 16.0822C153.906 16.088 153.966 16.0937 154.03 16.0966C154.466 16.2266 154.879 16.4144 155.258 16.66C155.85 17.0355 156.312 17.6046 156.982 17.9513L156.979 17.9571ZM146.776 14.8602C146.224 14.6926 145.733 14.3748 145.328 13.9646C144.918 13.5602 144.586 13.0806 144.312 12.5693C144.043 12.0551 143.838 11.5004 143.748 10.9226C143.647 10.3448 143.659 9.74974 143.763 9.17774C143.87 8.60285 144.075 8.05107 144.349 7.54263C144.624 7.03418 144.973 6.56907 145.392 6.16463C145.6 5.95952 145.825 5.74863 145.987 5.46552C146.051 5.35285 146.103 5.22574 146.132 5.09574C146.189 5.26907 146.215 5.45396 146.207 5.63596C146.201 5.81796 146.158 5.99418 146.085 6.16174C146.01 6.3264 145.9 6.4824 145.785 6.6384C145.669 6.7944 145.551 6.95618 145.453 7.13529C145.357 7.31729 145.288 7.50796 145.253 7.70729C145.175 8.10307 145.23 8.51907 145.389 8.87729L145.412 8.86863C145.288 8.49885 145.282 8.10018 145.378 7.73329C145.424 7.5484 145.499 7.37507 145.597 7.21618C145.695 7.05729 145.82 6.90996 145.944 6.75685C146.048 6.62685 146.146 6.48818 146.233 6.33796C146.351 6.77129 146.472 7.20463 146.565 7.63796C146.672 8.12329 146.747 8.60863 146.724 9.09107C146.706 9.57351 146.617 10.0588 146.418 10.4951C146.316 10.7146 146.192 10.9168 146.039 11.1075C145.886 11.3011 145.718 11.4975 145.6 11.7315C145.349 12.2082 145.435 12.7802 145.687 13.2164C145.941 13.6613 146.331 14.0253 146.79 14.2651C147.585 14.6666 148.561 14.6926 149.364 14.3517C148.974 14.6175 148.555 14.8342 148.119 15.0046C147.666 15.048 147.209 14.9815 146.779 14.8544L146.776 14.8602ZM139.663 2.59396C140.368 2.51307 141.059 2.71529 141.619 3.1024C141.92 3.29885 142.188 3.56463 142.364 3.88818C142.541 4.21463 142.622 4.58729 142.624 4.95418C142.619 5.67929 142.37 6.42752 141.839 6.87818C141.353 7.32885 140.544 7.25374 139.984 6.83485C139.984 6.78285 139.987 6.73085 139.984 6.67596C139.964 6.3004 139.866 5.93352 139.689 5.60418C139.513 5.27774 139.25 4.99463 138.927 4.81263C138.638 4.65374 138.3 4.57863 137.97 4.61618C138.092 4.44285 138.216 4.2984 138.36 4.17707C138.514 4.03552 138.69 3.92574 138.898 3.83907C139.002 3.79863 139.117 3.78418 139.23 3.81018C139.343 3.83329 139.438 3.90552 139.525 3.96329C139.71 4.07307 139.883 4.17707 140.076 4.32729L140.097 4.31285C140.048 4.0644 139.848 3.8564 139.611 3.77263C139.49 3.73507 139.36 3.73796 139.242 3.72929C139.21 3.72929 139.175 3.72352 139.143 3.72063C139.086 3.53285 139.103 3.3364 139.172 3.16596C139.21 3.0764 139.259 2.98974 139.322 2.91752C139.383 2.83952 139.455 2.80485 139.551 2.72974C139.591 2.69796 139.637 2.64885 139.669 2.58818L139.663 2.59396ZM137.032 5.19107C136.965 5.04952 136.867 4.91663 136.743 4.8184C136.59 4.69418 136.405 4.61618 136.217 4.57863C136.194 4.57285 136.174 4.56996 136.15 4.56707C136.139 4.37352 136.055 4.18863 135.925 4.0384C135.98 3.97196 136.035 3.91129 136.093 3.85929C136.174 3.78707 136.263 3.73218 136.356 3.68018C136.445 3.62818 136.555 3.5704 136.673 3.56752C136.792 3.56752 136.904 3.61663 136.988 3.69174L136.994 3.69752L137.023 3.70329H137.04L137.043 3.70618L137.075 3.69463C137.292 3.62529 137.508 3.63107 137.696 3.70618C137.858 3.76396 138.008 3.87663 138.138 4.03552C137.994 4.20018 137.901 4.41107 137.91 4.62774C137.892 4.62774 137.875 4.62774 137.855 4.63352C137.673 4.66529 137.494 4.73752 137.338 4.8444C137.211 4.93396 137.11 5.05529 137.037 5.19107H137.032ZM134.57 2.39174C134.579 2.30507 134.608 2.20974 134.642 2.1144C134.715 1.91796 134.79 1.74174 134.894 1.57129C135.096 1.22752 135.402 0.932849 135.786 0.776849C136.168 0.623738 136.604 0.597738 136.994 0.707516H136.997H137.008H137.046H137.049H137.06C137.459 0.641072 137.872 0.698849 138.239 0.846183C138.606 0.996405 138.918 1.2564 139.135 1.58285C139.25 1.74463 139.325 1.92085 139.403 2.1144C139.441 2.20685 139.47 2.30218 139.481 2.38885C139.49 2.48418 139.487 2.51596 139.415 2.5824C139.065 2.82218 138.906 3.34507 139.097 3.71774C139.022 3.71196 138.947 3.70329 138.869 3.70329C138.629 3.69174 138.389 3.79574 138.204 3.95463C138.158 3.74374 138.002 3.54729 137.791 3.45196C137.531 3.34218 137.216 3.38552 137.011 3.55885C136.899 3.52129 136.786 3.49818 136.673 3.48085C136.549 3.46352 136.408 3.4404 136.272 3.48085C136.136 3.52129 136.023 3.61374 135.942 3.7264C135.893 3.79574 135.862 3.87374 135.844 3.95463C135.662 3.79863 135.422 3.69463 135.183 3.70618C135.105 3.70618 135.03 3.71485 134.954 3.72063C135.151 3.34796 134.989 2.82218 134.637 2.58529C134.564 2.51885 134.562 2.48707 134.567 2.39174H134.57ZM132.222 6.88107C131.693 6.42752 131.442 5.67929 131.436 4.95707C131.436 4.59018 131.52 4.21752 131.696 3.89107C131.872 3.56463 132.141 3.30174 132.441 3.10529C133.002 2.71818 133.695 2.51596 134.4 2.59685C134.432 2.65752 134.475 2.70374 134.515 2.7384C134.611 2.81352 134.683 2.84818 134.744 2.92618C134.804 2.9984 134.856 3.08507 134.894 3.17463C134.963 3.34507 134.98 3.54152 134.926 3.72929C134.894 3.73218 134.859 3.73507 134.827 3.73796C134.709 3.74663 134.579 3.74374 134.458 3.78129C134.221 3.86507 134.021 4.07307 133.972 4.32152L133.992 4.33596C134.189 4.18863 134.359 4.08174 134.544 3.97196C134.634 3.91418 134.729 3.84196 134.839 3.81885C134.949 3.79285 135.067 3.80729 135.171 3.84774C135.376 3.93152 135.552 4.04418 135.706 4.18574C135.83 4.28974 135.94 4.40818 136.044 4.55263C135.72 4.51796 135.382 4.59307 135.102 4.75485C134.764 4.94263 134.495 5.24596 134.322 5.58396C134.146 5.92485 134.062 6.30329 134.05 6.68174C134.05 6.73952 134.05 6.80018 134.056 6.85796C133.498 7.25952 132.704 7.32596 132.227 6.88396L132.222 6.88107ZM134.313 6.68752C134.333 6.01152 134.625 5.30085 135.214 4.95707C135.503 4.78663 135.844 4.70863 136.179 4.77218C136.512 4.82418 136.821 5.01774 136.948 5.3384L136.965 5.38463H137.011H137.049H137.098L137.112 5.34129C137.219 5.01774 137.523 4.78085 137.869 4.72018C138.213 4.64218 138.583 4.70863 138.883 4.89352C139.19 5.06974 139.421 5.35285 139.565 5.67352C139.71 5.99129 139.776 6.34374 139.779 6.68752C139.788 7.37507 139.533 8.08574 139.016 8.54507C138.499 8.99863 137.742 9.19507 137.046 9.0044H137.017H137.014C136.324 9.20374 135.561 8.99863 135.05 8.54507C134.536 8.08285 134.29 7.36929 134.316 6.6904L134.313 6.68752ZM136.191 9.16618C136.474 9.17774 136.76 9.1344 137.02 9.02752H137.04C137.3 9.13729 137.586 9.18063 137.869 9.16618C138.031 9.46951 138.011 9.81618 137.858 10.0531C137.705 10.3044 137.384 10.4604 137.06 10.42H137.04H137.017H137C136.85 10.4864 136.662 10.4893 136.509 10.4171C136.353 10.3448 136.24 10.2062 136.176 10.0646C136.044 9.79885 136.035 9.46951 136.191 9.1604V9.16618ZM127.27 14.2737C127.729 14.034 128.119 13.67 128.374 13.2251C128.625 12.786 128.709 12.2168 128.46 11.7402C128.339 11.5062 128.174 11.3097 128.021 11.1162C127.868 10.9255 127.744 10.7204 127.643 10.5037C127.443 10.0646 127.354 9.58218 127.336 9.09974C127.313 8.6144 127.388 8.13196 127.495 7.64663C127.591 7.2104 127.709 6.77996 127.828 6.34663C127.914 6.49685 128.015 6.63552 128.116 6.76552C128.238 6.91863 128.362 7.06596 128.463 7.22485C128.558 7.38374 128.636 7.55996 128.683 7.74196C128.778 8.10885 128.772 8.50751 128.648 8.87729L128.671 8.88596C128.83 8.52485 128.885 8.11174 128.807 7.71596C128.772 7.51663 128.7 7.32596 128.608 7.14396C128.512 6.96485 128.391 6.80307 128.275 6.64707C128.16 6.49107 128.05 6.33507 127.975 6.1704C127.903 6.00574 127.859 5.82663 127.854 5.64463C127.845 5.46263 127.874 5.27774 127.929 5.1044C127.96 5.23729 128.012 5.36152 128.073 5.47418C128.235 5.7544 128.46 5.96529 128.668 6.17329C129.087 6.57485 129.434 7.03996 129.711 7.55129C129.986 8.05974 130.191 8.61152 130.298 9.1864C130.402 9.7584 130.416 10.3564 130.315 10.9313C130.222 11.5091 130.02 12.0666 129.749 12.578C129.474 13.0893 129.142 13.5688 128.732 13.9733C128.327 14.3835 127.833 14.6984 127.284 14.8688C126.857 14.9988 126.398 15.0624 125.944 15.0191C125.505 14.8486 125.086 14.632 124.699 14.3662C125.505 14.7071 126.478 14.6811 127.273 14.2795L127.27 14.2737ZM121.527 15.7124C121.091 15.7702 120.643 15.776 120.192 15.8193C119.742 15.8597 119.282 15.9406 118.852 16.1053C118.424 16.27 118.017 16.5357 117.754 16.9084L117.774 16.9257C118.095 16.6108 118.496 16.4144 118.915 16.2902C119.112 16.2295 119.314 16.1891 119.519 16.1602C119.242 16.2584 118.973 16.3797 118.722 16.53C118.083 16.894 117.607 17.466 116.986 17.7664C116.679 17.9166 116.338 18.0004 116.015 17.9542C115.694 17.9051 115.385 17.7057 115.249 17.4197C115.102 17.1366 115.186 16.764 115.408 16.5242C115.582 16.3335 115.842 16.2295 116.107 16.218C116.021 16.2584 115.937 16.3075 115.859 16.3653C115.714 16.4693 115.593 16.6311 115.584 16.8217C115.573 17.0182 115.712 17.1857 115.87 17.2637C116.038 17.3475 116.232 17.336 116.399 17.2811C116.737 17.1626 116.997 16.8997 117.194 16.6166C117.393 16.3306 117.537 16.0157 117.693 15.7124C118.306 14.5077 119.38 13.5688 120.64 13.1211C120.955 13.0084 121.278 12.9304 121.608 12.8784C121.934 12.8264 122.266 12.8148 122.544 12.9391C122.821 13.0604 123.023 13.3233 122.986 13.6151C122.96 13.8837 122.789 14.1351 122.57 14.3257C122.616 14.1784 122.63 14.0137 122.57 13.8635C122.544 13.7884 122.518 13.7191 122.509 13.644C122.498 13.5717 122.509 13.4851 122.489 13.4071C122.44 13.2568 122.301 13.1297 122.131 13.1153L122.116 13.1355C122.18 13.2886 122.226 13.3926 122.301 13.4995C122.342 13.5486 122.405 13.6006 122.428 13.6642C122.454 13.7277 122.448 13.8028 122.428 13.8693L122.307 14.2448C122.284 14.3373 122.264 14.4355 122.252 14.5395C122.093 14.6291 121.923 14.7013 121.746 14.7591C121.79 14.7071 121.827 14.6522 121.853 14.5915C121.914 14.4211 121.923 14.2391 121.871 14.0744C121.848 13.9906 121.827 13.9126 121.827 13.8317C121.827 13.7508 121.853 13.6642 121.85 13.5775C121.845 13.4908 121.81 13.4013 121.749 13.3262C121.692 13.2511 121.588 13.1875 121.492 13.2106L121.484 13.2337C121.59 13.3666 121.585 13.4793 121.645 13.6208C121.677 13.6902 121.729 13.7624 121.746 13.8404C121.767 13.9184 121.755 13.9993 121.735 14.0744C121.686 14.2275 121.654 14.3691 121.602 14.4991C121.57 14.606 121.533 14.7157 121.486 14.8342C121.4 14.8573 121.313 14.8775 121.224 14.8948C121.241 14.8746 121.258 14.8544 121.273 14.8342C121.342 14.71 121.368 14.5568 121.319 14.4211C121.299 14.3546 121.276 14.294 121.27 14.2275C121.261 14.164 121.278 14.0888 121.258 14.0166C121.215 13.8837 121.088 13.7797 120.935 13.7797L120.92 13.8C120.969 13.9386 121.004 14.0253 121.073 14.112C121.111 14.1495 121.169 14.19 121.192 14.2448C121.215 14.2997 121.206 14.3604 121.183 14.4153C121.131 14.5251 121.091 14.6117 121.039 14.7013L120.935 14.9497C120.831 14.9671 120.73 14.9873 120.628 15.0046C120.617 15.0046 120.605 15.0075 120.594 15.0104C120.623 14.9728 120.646 14.9324 120.66 14.892C120.683 14.7908 120.683 14.6811 120.631 14.5828C120.608 14.5337 120.591 14.4875 120.594 14.4384C120.594 14.3893 120.626 14.3344 120.628 14.2795C120.623 14.1755 120.556 14.0802 120.435 14.0397L120.412 14.0513C120.38 14.1726 120.383 14.2535 120.423 14.3286C120.449 14.3662 120.496 14.4008 120.51 14.4442C120.524 14.4875 120.51 14.5337 120.49 14.5771C120.441 14.6637 120.418 14.7417 120.394 14.8197C120.389 14.8833 120.392 14.9555 120.403 15.0364C120.264 15.0624 120.126 15.0913 119.99 15.1288C119.999 15.1144 120.007 15.1 120.013 15.0826C120.036 15.0191 120.022 14.9497 119.996 14.8862C119.955 14.8197 119.906 14.7677 119.95 14.6984C119.999 14.6262 119.981 14.5568 119.926 14.5077L119.753 14.3633L119.759 14.5222C119.759 14.5395 119.765 14.554 119.77 14.5655H119.762C119.744 14.6291 119.759 14.6724 119.825 14.7186C119.889 14.7648 119.848 14.8313 119.805 14.8833C119.776 14.9382 119.753 14.9844 119.756 15.0364C119.759 15.0768 119.776 15.1231 119.802 15.178C119.742 15.1953 119.678 15.2155 119.617 15.2386C119.291 15.3542 118.979 15.5275 118.739 15.776L118.756 15.7933C119.011 15.5651 119.323 15.4206 119.646 15.3311C119.97 15.2415 120.305 15.1866 120.643 15.1462C121.313 15.0624 122.035 14.9786 122.63 14.5453C122.914 14.3315 123.174 14.0224 123.223 13.6266C123.246 13.4331 123.197 13.2164 123.081 13.0546C122.968 12.89 122.81 12.7686 122.636 12.6906C122.353 12.5635 122.053 12.5548 121.77 12.578C121.885 12.4855 122.015 12.4162 122.148 12.3671C122.347 12.2948 122.564 12.2746 122.755 12.3353C123.15 12.4566 123.462 12.7888 123.627 13.1731C123.798 13.5544 123.838 14.0224 123.679 14.4326C123.52 14.8457 123.171 15.1606 122.778 15.3513C122.382 15.5448 121.954 15.646 121.518 15.7008L121.527 15.7124ZM119.903 14.5684C119.903 14.5684 119.926 14.5568 119.935 14.5684H119.903ZM135.082 13.3204C134.368 14.1293 133.504 14.7995 132.603 15.4091C132.149 15.7095 131.667 15.9753 131.161 16.1717C130.653 16.3682 130.116 16.4837 129.584 16.5502C128.521 16.6946 127.42 16.6166 126.406 16.192L126.395 16.2151C126.704 16.4057 127.042 16.5473 127.391 16.6513C127.894 16.9113 128.336 17.2811 128.7 17.7057C129.174 18.2517 129.492 18.9248 129.624 19.6269C129.754 20.326 129.717 21.0742 129.448 21.7242C129.31 22.0448 129.11 22.3395 128.839 22.5475C128.57 22.7613 128.241 22.8942 127.897 22.952C127.206 23.0704 126.473 22.9173 125.869 22.5648C125.568 22.3886 125.3 22.1517 125.129 21.8571C124.956 21.5653 124.89 21.2128 124.936 20.8748C125.017 20.1988 125.62 19.6037 126.308 19.5691C126.643 19.546 127.004 19.6731 127.189 19.9475C127.313 20.1266 127.362 20.3664 127.316 20.5802C127.27 20.3057 127.074 20.0631 126.814 19.9706C126.432 19.8435 126.01 20.0082 125.774 20.3086C125.537 20.6148 125.482 21.028 125.566 21.3948C125.649 21.7646 125.875 22.094 126.169 22.3251C126.464 22.5591 126.831 22.7064 127.209 22.7295C127.588 22.7555 127.972 22.6515 128.298 22.4608C128.96 22.0824 129.405 21.3457 129.431 20.5744C129.468 19.8088 129.177 19.0404 128.665 18.4771C128.16 17.908 127.507 17.5122 126.857 17.1655C125.574 16.4953 124.228 15.9724 122.879 15.4697C123.26 15.23 123.587 14.8948 123.766 14.476C123.861 14.2593 123.916 14.0224 123.928 13.7797C124.682 14.7446 125.852 15.3542 127.056 15.5564C127.371 15.6026 127.689 15.6228 128.004 15.6228C128.322 15.6171 128.634 15.5882 128.946 15.5535C129.57 15.4755 130.185 15.3426 130.786 15.1548C131.387 14.97 131.97 14.7186 132.525 14.4182C133.08 14.1177 133.617 13.7826 134.111 13.3868C135.076 12.6126 135.914 11.5986 136.266 10.4026C136.335 10.4402 136.408 10.472 136.48 10.4951C136.529 10.5124 136.578 10.524 136.63 10.5355C136.361 11.59 135.798 12.526 135.084 13.3175L135.082 13.3204ZM135.656 22.0477C135.24 22.4926 134.66 22.7613 134.073 22.8422C133.782 22.8797 133.481 22.8653 133.238 22.7382C132.993 22.614 132.799 22.3944 132.675 22.1402C132.554 21.886 132.49 21.5942 132.542 21.3168C132.594 21.0453 132.782 20.7824 133.056 20.7073C133.192 20.6697 133.342 20.6755 133.472 20.7362C133.597 20.7968 133.698 20.9153 133.738 21.0511C133.782 21.1868 133.753 21.3371 133.663 21.444C133.628 21.4873 133.582 21.522 133.533 21.548C133.602 21.4584 133.637 21.3371 133.62 21.2215C133.585 20.9991 133.374 20.8546 133.169 20.8431C132.95 20.8228 132.744 20.9615 132.643 21.1435C132.536 21.3255 132.528 21.5566 132.597 21.7473C132.664 21.9408 132.799 22.1055 132.958 22.2211C133.117 22.3366 133.299 22.4146 133.481 22.4637C133.851 22.5648 134.247 22.5533 134.608 22.4464C134.972 22.3453 135.307 22.146 135.584 21.8975C135.859 21.6433 136.072 21.3342 136.24 21.0106C136.249 20.9904 136.257 20.9702 136.269 20.95C136.249 21.0135 136.223 21.0828 136.2 21.1493C136.096 21.4902 135.89 21.7906 135.651 22.0506L135.656 22.0477ZM135.639 25.604C135.448 25.7484 135.217 25.8553 134.983 25.8697C134.749 25.89 134.533 25.7975 134.397 25.6386C134.255 25.4826 134.183 25.2717 134.232 25.0753C134.276 24.8731 134.437 24.6824 134.654 24.6304C134.876 24.5784 135.113 24.6766 135.359 24.7142C135.61 24.7604 135.879 24.694 136.096 24.5553C136.278 24.4455 136.425 24.2866 136.538 24.1075C136.5 24.2462 136.454 24.3848 136.399 24.5235C136.24 24.928 136 25.3324 135.639 25.6068V25.604ZM137.965 24.5524C138.181 24.6911 138.45 24.7575 138.701 24.7113C138.947 24.6737 139.184 24.5755 139.406 24.6275C139.623 24.6795 139.785 24.8731 139.828 25.0724C139.877 25.2717 139.805 25.4826 139.663 25.6357C139.528 25.7946 139.311 25.8871 139.077 25.8668C138.843 25.8553 138.615 25.7455 138.421 25.6011C138.06 25.3266 137.82 24.9222 137.661 24.5177C137.606 24.382 137.563 24.2433 137.523 24.1017C137.638 24.278 137.786 24.4397 137.965 24.5495V24.5524ZM137.231 22.3337C137.219 22.5331 137.211 22.7324 137.199 22.9317L137.164 23.238C137.147 23.3824 137.15 23.5297 137.164 23.6742C137.153 23.9284 137.141 24.1826 137.136 24.4368C137.13 25.136 137.11 25.8437 137.173 26.5486C137.208 26.9011 137.294 27.2448 137.306 27.5915C137.323 27.918 137.24 28.2588 137.029 28.4871C136.829 28.2473 136.783 27.9122 136.803 27.5944C136.826 27.2593 136.922 26.9184 136.954 26.5573C137.023 25.8437 136.971 25.1388 136.948 24.4397C136.933 24.1451 136.916 23.8504 136.899 23.5586C136.904 23.4517 136.902 23.3449 136.89 23.2409L136.867 23.0473C136.852 22.8133 136.838 22.5793 136.824 22.3424C136.777 21.6751 136.722 21.0106 136.659 20.3462C136.812 20.2075 136.942 20.0457 137.032 19.8551C137.127 20.0197 137.254 20.1613 137.396 20.2797C137.323 20.9644 137.274 21.6491 137.231 22.3366V22.3337ZM137.63 19.4448C137.78 19.7597 137.97 20.0573 138.207 20.3173C138.366 20.4906 138.545 20.6437 138.733 20.7824C138.467 20.7275 138.204 20.6611 137.959 20.5455C137.615 20.3808 137.303 20.1295 137.144 19.7886L137.089 19.6875L137.037 19.5922L136.974 19.6875L136.91 19.78V19.7857C136.72 20.1035 136.408 20.3317 136.07 20.4791C135.905 20.5513 135.732 20.6091 135.555 20.6553C135.928 20.3173 136.228 19.9042 136.434 19.4506C136.72 18.8353 136.824 18.1362 136.722 17.4775C136.832 17.3417 136.936 17.2002 137.032 17.0528C137.124 17.2088 137.225 17.3562 137.335 17.4977C137.234 18.1506 137.346 18.8411 137.63 19.4477V19.4448ZM137.901 15.0335C138.103 15.7673 138.421 16.5011 138.984 17.0615C139.242 17.3157 139.556 17.5266 139.9 17.6653C139.36 17.6277 138.826 17.4775 138.349 17.2175L138.06 17.0586L138.164 17.3677C138.326 17.8502 138.629 18.272 139.016 18.5955C138.805 18.5002 138.6 18.3904 138.407 18.2604C137.878 17.9051 137.419 17.4313 137.089 16.8853L137.023 16.7726L136.968 16.8882L136.951 16.9257C136.63 17.4746 136.191 17.9542 135.665 18.3182C135.298 18.5695 134.888 18.766 134.46 18.8931C135.09 18.5782 135.599 18.0206 135.836 17.3504L135.89 17.1973L135.746 17.2753C135.321 17.5035 134.853 17.6422 134.377 17.6942C134.244 17.7086 134.108 17.7144 133.972 17.7144C134.385 17.5873 134.767 17.3533 135.07 17.0528C135.633 16.4982 135.954 15.7644 136.159 15.0306C136.364 14.294 136.457 13.5342 136.529 12.7831C136.595 12.0377 136.627 11.2895 136.659 10.5413C136.783 10.5644 136.907 10.5731 137.04 10.5528H137.023L137.029 10.5557C137.147 10.6048 137.28 10.6222 137.41 10.6106C137.445 11.3357 137.474 12.058 137.54 12.7831C137.612 13.5371 137.705 14.294 137.907 15.0335H137.901ZM147.203 17.1655C146.553 17.5122 145.9 17.908 145.395 18.4771C144.884 19.0404 144.592 19.8088 144.629 20.5744C144.655 21.3457 145.1 22.0824 145.762 22.4608C146.091 22.6515 146.472 22.7555 146.851 22.7295C147.229 22.7064 147.596 22.5591 147.891 22.3251C148.186 22.094 148.411 21.7646 148.495 21.3948C148.578 21.028 148.524 20.6177 148.287 20.3086C148.05 20.0082 147.628 19.8406 147.247 19.9706C146.987 20.0631 146.79 20.3057 146.744 20.5802C146.698 20.3664 146.744 20.1266 146.871 19.9475C147.056 19.6731 147.417 19.546 147.752 19.5691C148.44 19.6037 149.044 20.1988 149.124 20.8748C149.171 21.2128 149.104 21.5653 148.931 21.8571C148.76 22.1517 148.492 22.3886 148.191 22.5648C147.588 22.9173 146.854 23.0704 146.163 22.952C145.82 22.8942 145.49 22.7613 145.222 22.5475C144.95 22.3395 144.751 22.0448 144.612 21.7242C144.343 21.0742 144.306 20.326 144.436 19.6269C144.569 18.922 144.884 18.2517 145.36 17.7057C145.724 17.2811 146.166 16.9142 146.669 16.6513C147.018 16.5502 147.356 16.4086 147.666 16.2151L147.654 16.192C146.643 16.6166 145.542 16.6975 144.476 16.5502C143.942 16.4837 143.407 16.3682 142.899 16.1717C142.39 15.9753 141.911 15.7095 141.457 15.4091C140.556 14.7995 139.689 14.1293 138.979 13.3204C138.282 12.5462 137.731 11.6362 137.453 10.6106C137.508 10.602 137.563 10.5904 137.615 10.5702C137.687 10.5442 137.757 10.5095 137.82 10.4662C138.181 11.6333 139.005 12.6271 139.952 13.3868C140.446 13.7826 140.984 14.1177 141.538 14.4182C142.093 14.7186 142.676 14.97 143.277 15.1548C143.878 15.3426 144.494 15.4755 145.118 15.5535C145.43 15.5911 145.742 15.62 146.059 15.6228C146.374 15.6228 146.692 15.6026 147.007 15.5564C148.212 15.3513 149.384 14.7417 150.136 13.7797C150.147 14.0195 150.205 14.2593 150.297 14.476C150.474 14.892 150.803 15.23 151.184 15.4697C149.835 15.9724 148.492 16.4953 147.206 17.1655H147.203ZM155.206 16.1053C154.775 15.9406 154.316 15.8597 153.865 15.8193C153.414 15.776 152.967 15.7673 152.53 15.7124C152.094 15.6575 151.667 15.5564 151.271 15.3628C150.881 15.1722 150.531 14.8573 150.37 14.4442C150.211 14.034 150.248 13.566 150.422 13.1846C150.586 12.8004 150.895 12.4682 151.294 12.3468C151.485 12.2862 151.701 12.3064 151.901 12.3786C152.036 12.4277 152.166 12.4971 152.279 12.5895C151.996 12.5635 151.696 12.5751 151.412 12.7022C151.239 12.7802 151.08 12.9015 150.968 13.0662C150.852 13.228 150.803 13.4446 150.826 13.6382C150.875 14.034 151.132 14.3402 151.418 14.5568C152.013 14.9902 152.736 15.0768 153.406 15.1577C153.744 15.1982 154.079 15.2531 154.402 15.3426C154.726 15.4351 155.038 15.5795 155.292 15.8048L155.31 15.7875C155.07 15.5391 154.758 15.3686 154.431 15.2502C154.371 15.2271 154.307 15.2097 154.246 15.1895C154.275 15.1346 154.29 15.0884 154.293 15.048C154.296 14.996 154.272 14.9468 154.244 14.8948C154.2 14.8428 154.163 14.7764 154.223 14.7302C154.29 14.6868 154.304 14.6406 154.287 14.5771H154.278C154.278 14.5771 154.29 14.5482 154.29 14.5337L154.296 14.3748L154.122 14.5193C154.064 14.5655 154.05 14.6377 154.099 14.71C154.142 14.7793 154.093 14.8313 154.053 14.8977C154.027 14.9613 154.012 15.0335 154.036 15.0942C154.041 15.1086 154.05 15.126 154.059 15.1404C153.92 15.1057 153.784 15.0768 153.646 15.048C153.657 14.9671 153.66 14.8948 153.654 14.8313C153.634 14.7504 153.611 14.6753 153.559 14.5886C153.539 14.5453 153.524 14.4991 153.539 14.4557C153.553 14.4124 153.599 14.3748 153.625 14.3402C153.666 14.2622 153.669 14.1842 153.637 14.0628L153.614 14.0513C153.492 14.0917 153.426 14.1871 153.42 14.2911C153.42 14.346 153.455 14.4008 153.455 14.45C153.458 14.4991 153.44 14.5453 153.417 14.5944C153.365 14.6926 153.365 14.8024 153.388 14.9035C153.403 14.9468 153.426 14.9844 153.455 15.022C153.443 15.022 153.432 15.0191 153.42 15.0162C153.319 14.9988 153.215 14.9815 153.114 14.9613L153.01 14.7128C152.961 14.6233 152.92 14.5337 152.866 14.4268C152.842 14.372 152.834 14.3113 152.857 14.2564C152.877 14.2015 152.938 14.1611 152.975 14.1235C153.042 14.0397 153.079 13.9531 153.128 13.8115L153.114 13.7913C152.961 13.7913 152.834 13.8953 152.79 14.0282C152.773 14.0975 152.788 14.1755 152.779 14.2391C152.773 14.3026 152.75 14.3633 152.73 14.4326C152.681 14.5684 152.707 14.7215 152.776 14.8457C152.79 14.8688 152.808 14.8891 152.825 14.9064C152.736 14.8891 152.649 14.866 152.562 14.8457C152.516 14.7273 152.478 14.6175 152.447 14.5106C152.398 14.3777 152.366 14.2391 152.314 14.086C152.294 14.008 152.282 13.9271 152.302 13.852C152.32 13.7768 152.372 13.7017 152.403 13.6324C152.464 13.4908 152.458 13.3782 152.565 13.2453L152.556 13.2222C152.458 13.1991 152.357 13.2626 152.299 13.3377C152.239 13.4128 152.204 13.5024 152.198 13.5891C152.195 13.6786 152.224 13.7624 152.221 13.8433C152.221 13.9242 152.198 14.0051 152.178 14.086C152.126 14.2506 152.135 14.4355 152.195 14.6031C152.221 14.6637 152.259 14.7186 152.302 14.7706C152.126 14.7128 151.956 14.6406 151.797 14.5511C151.782 14.4442 151.762 14.346 151.742 14.2564L151.62 13.8808C151.6 13.8144 151.597 13.7393 151.62 13.6757C151.644 13.6093 151.707 13.5602 151.748 13.5111C151.823 13.4042 151.869 13.3002 151.932 13.1471L151.918 13.1268C151.748 13.1413 151.609 13.2684 151.56 13.4186C151.54 13.4966 151.551 13.5833 151.54 13.6555C151.531 13.7306 151.505 13.8 151.479 13.8751C151.421 14.0224 151.433 14.19 151.479 14.3373C151.259 14.1466 151.092 13.8924 151.063 13.6266C151.022 13.3377 151.225 13.072 151.505 12.9506C151.782 12.8264 152.114 12.8408 152.441 12.89C152.77 12.942 153.094 13.0228 153.409 13.1326C154.668 13.5775 155.743 14.5193 156.355 15.724C156.511 16.0244 156.656 16.3393 156.855 16.6282C157.052 16.9113 157.312 17.1742 157.65 17.2926C157.817 17.3475 158.014 17.3591 158.178 17.2753C158.34 17.1973 158.479 17.0297 158.464 16.8333C158.456 16.6426 158.334 16.4808 158.19 16.3768C158.112 16.3191 158.028 16.2728 157.941 16.2295C158.207 16.2411 158.464 16.3451 158.64 16.5357C158.866 16.7755 158.947 17.1482 158.799 17.4313C158.664 17.7173 158.354 17.9166 158.034 17.9657C157.71 18.012 157.369 17.9311 157.063 17.778C156.442 17.4775 155.965 16.9055 155.327 16.5415C155.073 16.3913 154.804 16.27 154.53 16.1717C154.735 16.2035 154.934 16.244 155.133 16.3017C155.552 16.4231 155.954 16.6224 156.274 16.9373L156.295 16.92C156.032 16.5444 155.627 16.2815 155.197 16.1168L155.206 16.1053ZM154.125 14.5655C154.125 14.5655 154.145 14.5568 154.157 14.5655H154.125Z" fill="#4F392B"/>
<path d="M143.177 16.7235C142.974 16.6772 142.746 16.7292 142.59 16.8708C142.434 17.0066 142.319 17.203 142.316 17.4197C142.304 17.8675 142.766 18.2343 143.22 18.1361L143.52 18.0697L143.229 17.957C143.081 17.8992 142.94 17.8328 142.841 17.7403C142.74 17.645 142.7 17.5237 142.737 17.411C142.772 17.2955 142.873 17.1943 142.989 17.1683C143.107 17.1395 143.246 17.1683 143.356 17.2435C143.575 17.3908 143.665 17.7028 143.627 17.983C143.593 18.269 143.434 18.5406 143.223 18.7486C142.789 19.1703 142.134 19.3148 141.501 19.3495C140.854 19.4015 140.227 19.3841 139.565 19.257C139.727 19.413 139.895 19.491 140.08 19.5777C140.262 19.6586 140.455 19.7192 140.649 19.7626C141.039 19.8463 141.437 19.8955 141.842 19.8752C142.243 19.855 142.651 19.7799 143.021 19.5921C143.385 19.4015 143.714 19.1212 143.902 18.7486C144.098 18.3817 144.136 17.9368 144.006 17.5497C143.89 17.1626 143.581 16.8159 143.174 16.7263L143.177 16.7235ZM143.743 18.6532C143.546 18.9681 143.257 19.2252 142.922 19.387C142.59 19.5575 142.215 19.6441 141.833 19.6701C141.076 19.7106 140.259 19.6297 139.591 19.2599C139.719 19.3263 139.895 19.3581 140.048 19.3986C140.207 19.4332 140.369 19.4621 140.533 19.4823C140.86 19.5199 141.186 19.5343 141.515 19.5286C141.842 19.5228 142.177 19.4939 142.503 19.4072C142.83 19.3206 143.151 19.1732 143.408 18.9277C143.662 18.6908 143.855 18.3701 143.896 18.0061C143.942 17.6537 143.829 17.2435 143.494 17.0239C143.333 16.9228 143.127 16.8766 142.931 16.9286C142.732 16.9835 142.576 17.1452 142.521 17.3388C142.492 17.437 142.498 17.5497 142.535 17.645C142.558 17.7057 142.593 17.7548 142.631 17.801C142.518 17.7028 142.44 17.567 142.437 17.411C142.42 17.0499 142.792 16.6975 143.168 16.7928C143.541 16.8679 143.821 17.2059 143.913 17.567C144.006 17.9339 143.942 18.3326 143.749 18.6475L143.743 18.6532Z" fill="#4F392B"/>
<path d="M141.024 20.6089C140.865 20.5743 140.695 20.5887 140.547 20.6638C140.4 20.7389 140.29 20.8747 140.244 21.0307C140.192 21.1838 140.221 21.3716 140.325 21.4987C140.423 21.6229 140.582 21.7038 140.75 21.6923C140.755 21.6923 140.761 21.6923 140.767 21.6923L141.076 21.6605L140.767 21.5941C140.62 21.5623 140.53 21.3832 140.562 21.2445C140.591 21.1029 140.747 21.0076 140.891 21.0105C141.036 21.0105 141.166 21.1087 141.235 21.2387C141.304 21.3716 141.304 21.5276 141.247 21.6721C141.137 21.9638 140.828 22.1458 140.507 22.2209C140.183 22.2989 139.84 22.2816 139.516 22.1892C138.86 22.0101 138.335 21.5103 137.968 20.9209C137.921 20.8458 137.875 20.7707 137.832 20.6927C137.812 20.6552 137.789 20.6147 137.771 20.5801L137.754 20.5425C137.754 20.5425 137.751 20.5338 137.742 20.5252C137.737 20.5194 137.734 20.5165 137.728 20.5107C137.708 20.4963 137.685 20.4876 137.653 20.5021C137.615 20.5252 137.627 20.5309 137.618 20.5396C137.612 20.5512 137.615 20.5512 137.612 20.5569C137.612 20.5656 137.612 20.5685 137.612 20.5743C137.612 20.6061 137.612 20.6292 137.618 20.6523C137.63 20.7447 137.647 20.8314 137.67 20.9238C137.702 21.0192 137.745 21.0914 137.783 21.1781C137.924 21.5103 138.138 21.8078 138.384 22.0678C138.808 22.5041 139.349 22.8421 139.958 22.9865C140.259 23.0587 140.602 23.0761 140.911 22.9345C141.218 22.7929 141.449 22.5329 141.582 22.2354C141.715 21.9378 141.764 21.5998 141.677 21.2792C141.593 20.9643 141.351 20.6754 141.021 20.6089H141.024ZM141.382 22.1401C141.258 22.3943 141.065 22.6138 140.819 22.7381C140.576 22.8652 140.276 22.8825 139.984 22.8421C139.398 22.7612 138.817 22.4896 138.401 22.0476C138.161 21.7876 137.956 21.4843 137.852 21.1463C137.829 21.0798 137.803 21.0134 137.783 20.9469C137.791 20.9672 137.8 20.9874 137.812 21.0076C137.982 21.3312 138.193 21.6403 138.467 21.8945C138.745 22.1429 139.08 22.3423 139.444 22.4434C139.808 22.5474 140.201 22.5589 140.571 22.4607C140.755 22.4116 140.935 22.3336 141.093 22.2181C141.252 22.1025 141.391 21.9378 141.455 21.7443C141.524 21.5536 141.515 21.3225 141.408 21.1405C141.31 20.9614 141.102 20.8198 140.883 20.8401C140.675 20.8545 140.467 20.9989 140.432 21.2185C140.415 21.3341 140.449 21.4554 140.519 21.5449C140.469 21.5189 140.423 21.4843 140.389 21.4409C140.299 21.3341 140.27 21.1838 140.313 21.0481C140.354 20.9123 140.455 20.7938 140.579 20.7332C140.706 20.6725 140.857 20.6667 140.992 20.7043C141.267 20.7823 141.457 21.0423 141.507 21.3138C141.559 21.5883 141.495 21.8829 141.374 22.1372L141.382 22.1401Z" fill="#4F392B"/>
</g>
<defs>
<clipPath id="clip0_78_478">
<rect width="273" height="28.1696" fill="white" transform="translate(0 0.496582)"/>
</clipPath>
</defs>
</svg>
