<svg width="48" height="43" viewBox="0 0 48 43" fill="none" xmlns="http://www.w3.org/2000/svg">
<path d="M11.0987 21.4548L11.0987 21.4548L11.1068 21.458C11.5725 21.6391 12.0446 21.756 12.488 21.756C13.3393 21.756 14.0636 21.51 14.5665 20.9516C15.061 20.4027 15.268 19.6323 15.268 18.736V12.544C15.268 11.7641 15.4726 11.2676 15.7923 10.9607C16.1157 10.6502 16.6417 10.452 17.456 10.452C18.2736 10.452 18.7939 10.6459 19.1104 10.9452C19.4217 11.2397 19.62 11.7164 19.62 12.472V21.232V21.732H20.12H22.208H22.708V21.232V12.496C22.708 10.9552 22.2858 9.70856 21.3586 8.85512C20.4392 8.00884 19.1078 7.628 17.456 7.628C15.7986 7.628 14.4602 8.02958 13.5361 8.90502C12.6072 9.78508 12.18 11.0647 12.18 12.64V18.568C12.18 18.6477 12.173 18.7033 12.1648 18.7398C12.1431 18.7395 12.1238 18.7387 12.1053 18.7367C12.0993 18.7361 12.0946 18.7355 12.0911 18.7349L12.0786 18.7297L9.61517 17.7143C11.075 16.0836 11.836 14.0992 11.836 11.8C11.836 10.5194 11.5388 9.45885 10.8585 8.71706C10.1709 7.96727 9.1707 7.628 7.952 7.628H2.408H2.11664L1.97299 7.88149L1.56499 8.60149L1.41047 8.87418L1.58855 9.1321L3.67655 12.1561L3.82563 12.372H4.088H6.368H7.34989L6.77237 11.5779L5.81388 10.26H7.832C7.96647 10.26 8.06047 10.2922 8.13422 10.3417C8.21121 10.3933 8.29634 10.4845 8.37658 10.6472C8.54423 10.9871 8.652 11.5601 8.652 12.424V12.616C8.652 14.3049 7.6689 16.0277 5.67719 17.7851L5.508 17.9344V18.16V18.832V19.1677L5.81868 19.2948L11.0987 21.4548ZM14.4764 7.46809L14.668 7.50258L14.8325 7.39841L15.5525 6.94241L15.7849 6.79518V6.52V4.312C15.7849 3.18944 15.4705 2.22228 14.8041 1.53416C14.1353 0.843528 13.1759 0.5 12.0209 0.5C11.0753 0.5 10.1741 0.749017 9.49858 1.29518C8.80931 1.85246 8.40094 2.68341 8.40094 3.736C8.40094 4.65336 8.82965 5.40584 9.50521 5.95889C10.1699 6.50301 11.0741 6.8584 12.0771 7.03622C12.0773 7.03626 12.0775 7.03629 12.0777 7.03633L14.4764 7.46809ZM12.8889 4.168V4.54669L12.2354 4.42099L12.2331 4.42057C11.8811 4.35458 11.6252 4.25509 11.4633 4.12142C11.3261 4.0082 11.2249 3.84649 11.2249 3.544C11.2249 3.37999 11.2869 3.2793 11.3825 3.20634C11.4921 3.12256 11.6718 3.06 11.9009 3.06C12.2165 3.06 12.4514 3.15753 12.6064 3.31255C12.7597 3.46587 12.8889 3.7295 12.8889 4.168ZM28.9325 30.1476L28.9322 30.1479C26.9456 32.4821 25.9329 35.0421 25.9329 37.792C25.9329 38.8317 26.2294 39.7681 26.8275 40.4521C27.4326 41.1441 28.3071 41.532 29.3609 41.532C31.1463 41.532 33.3008 40.3107 34.4117 38.1922L34.4124 38.191L36.2114 34.7369C36.2116 34.7364 36.2119 34.7359 36.2121 34.7355C36.8723 33.4823 38.2135 32.484 39.5129 32.484C40.2373 32.484 40.8577 32.8145 41.3529 33.5574L41.3546 33.5599C41.6192 33.9515 41.9917 34.7481 42.4787 36.0047C42.9602 37.2471 43.5392 38.8999 44.222 40.9725L44.3847 41.4662L44.8717 41.2845L46.4797 40.6845L46.9019 40.5269L46.789 40.0907C45.7333 36.0119 44.7098 33.1096 43.703 31.524L43.702 31.5223C43.1781 30.7045 42.5966 30.1095 41.8574 29.7277C41.1221 29.348 40.2783 29.204 39.2729 29.204C38.2573 29.204 37.1185 29.6239 36.0852 30.3032C35.0455 30.9868 34.0712 31.9597 33.3929 33.1244L33.3928 33.1245L30.7548 37.6571C30.7545 37.6577 30.7541 37.6582 30.7538 37.6588C30.6128 37.8959 30.3864 38.1043 30.1363 38.2539C29.8777 38.4086 29.6489 38.468 29.5289 38.468C29.3966 38.468 29.3255 38.4422 29.2867 38.4199C29.2506 38.3991 29.2112 38.3636 29.1715 38.2872C29.0785 38.1085 29.0209 37.7832 29.0209 37.24C29.0209 35.8658 29.7833 34.1253 31.2061 32.1569C32.5747 30.2638 35.2471 28.2679 39.3296 26.2147C41.4108 25.168 43.0437 24.045 44.1626 22.8662C45.2823 21.6866 45.9169 20.4176 45.9169 19.096V11.92C45.9169 10.5793 45.5714 9.48163 44.802 8.72296C44.0338 7.96555 42.926 7.628 41.5769 7.628H35.4569H34.9569V8.128V9.736V10.2051L35.4251 10.235C36.453 10.3006 37.1598 10.6427 37.6201 11.2048C38.09 11.7786 38.3649 12.6564 38.3649 13.912V18.088C38.3649 18.5208 38.2615 18.7543 38.1437 18.8795C38.0313 18.999 37.8301 19.1 37.4489 19.1H34.3049C33.9238 19.1 33.7226 18.999 33.6102 18.8795C33.4924 18.7543 33.3889 18.5208 33.3889 18.088V11.8C33.3889 10.4964 33.0559 9.42622 32.2953 8.68736C31.5375 7.95116 30.4413 7.628 29.0969 7.628C27.7479 7.628 26.6401 7.96555 25.8719 8.72296C25.1024 9.48163 24.7569 10.5793 24.7569 11.92V17.608C24.7569 18.8241 25.1128 19.8138 25.8196 20.5278C26.5202 21.2354 27.5081 21.614 28.6632 21.7295L29.0872 21.7719L29.1963 21.3599L29.6283 19.7279L29.7697 19.1936L29.2239 19.1063C28.698 19.0221 28.3705 18.8439 28.1708 18.6163C27.9731 18.3908 27.8449 18.0533 27.8449 17.536V11.848C27.8449 11.2821 27.979 10.9522 28.1545 10.7642C28.324 10.5825 28.6086 10.452 29.0969 10.452C29.5905 10.452 29.8689 10.5794 30.0305 10.7495C30.1968 10.9244 30.3249 11.2337 30.3249 11.776V18.04C30.3249 19.1789 30.6237 20.1294 31.3132 20.7892C31.9986 21.4452 32.9852 21.732 34.1849 21.732H37.5689C38.7687 21.732 39.7552 21.4452 40.4406 20.7892C41.1301 20.1294 41.4289 19.1789 41.4289 18.04V13.528C41.4289 12.4851 41.2605 11.5943 40.8785 10.8968C40.7908 10.7368 40.6927 10.5885 40.5844 10.452H41.5769C42.0799 10.452 42.3618 10.5838 42.5267 10.7623C42.6987 10.9485 42.8289 11.2773 42.8289 11.848V18.832C42.8289 19.5612 42.4623 20.3465 41.5899 21.202C40.7164 22.0585 39.377 22.9428 37.5391 23.8559C33.8022 25.7002 30.9328 27.8015 28.9325 30.1476Z" fill="url(#paint0_linear_580_180)" stroke="url(#paint1_linear_580_180)"/>
<defs>
<linearGradient id="paint0_linear_580_180" x1="39.0076" y1="41.032" x2="39.0076" y2="1" gradientUnits="userSpaceOnUse">
<stop offset="0.0104167" stop-color="#FFF0DA"/>
<stop offset="0.0416667" stop-color="#94641E"/>
<stop offset="0.828125" stop-color="#FFF2DB"/>
<stop offset="0.9375" stop-color="#EAC885"/>
<stop offset="0.979167" stop-color="#FBF5D1"/>
<stop offset="0.9999" stop-color="#BD9A4B"/>
<stop offset="1" stop-color="#ECD8A3"/>
</linearGradient>
<linearGradient id="paint1_linear_580_180" x1="104.924" y1="7.23193" x2="104.924" y2="37.2319" gradientUnits="userSpaceOnUse">
<stop stop-color="#FCF6D1"/>
<stop offset="0.104167" stop-color="#BD9457"/>
<stop offset="0.25" stop-color="#E3CA89"/>
<stop offset="0.697917" stop-color="#FEE8C8"/>
<stop offset="0.854167" stop-color="#4D3A1A"/>
<stop offset="1" stop-color="#FCF0D1"/>
</linearGradient>
</defs>
</svg>
