<svg width="56" height="53" viewBox="0 0 56 53" fill="none" xmlns="http://www.w3.org/2000/svg">
<g filter="url(#filter0_dd_459_414)">
<path d="M13.488 23.256C13.128 23.256 12.72 23.16 12.288 22.992L7.008 20.832V20.16C9.048 18.36 10.152 16.512 10.152 14.616V14.424C10.152 12.648 9.72 11.76 8.832 11.76H5.832L7.368 13.872H5.088L3 10.848L3.408 10.128H8.952C11.208 10.128 12.336 11.376 12.336 13.8C12.336 16.224 11.448 18.264 9.744 19.896L12.888 21.192C12.984 21.24 13.128 21.24 13.2 21.24C13.512 21.24 13.68 21.024 13.68 20.568V14.64C13.68 11.664 15.288 10.128 18.456 10.128C21.624 10.128 23.208 11.592 23.208 14.496V23.232H21.12V14.472C21.12 12.792 20.232 11.952 18.456 11.952C16.68 11.952 15.768 12.816 15.768 14.544V20.736C15.768 22.392 15 23.256 13.488 23.256Z" fill="url(#paint0_linear_459_414)"/>
<path d="M15.5649 8.976L13.1649 8.544C11.2689 8.208 9.90094 7.224 9.90094 5.736C9.90094 3.912 11.2929 3 13.0209 3C15.1329 3 16.2849 4.248 16.2849 6.312V8.52L15.5649 8.976ZM14.3889 7.152V6.168C14.3889 5.088 13.7409 4.56 12.9009 4.56C12.2769 4.56 11.7249 4.896 11.7249 5.544C11.7249 6.432 12.3729 6.768 13.1409 6.912L14.3889 7.152Z" fill="url(#paint1_linear_459_414)"/>
<path d="M30.3609 43.032C28.5129 43.032 27.4329 41.688 27.4329 39.792C27.4329 37.176 28.3929 34.728 30.3129 32.472C32.2569 30.192 35.0649 28.128 38.7609 26.304C42.4809 24.456 44.3289 22.656 44.3289 20.832V13.848C44.3289 12.576 43.7529 11.952 42.5769 11.952H39.9609C41.2809 12.336 41.9289 13.536 41.9289 15.528V20.04C41.9289 22.152 40.8249 23.232 38.5689 23.232H35.1849C32.9289 23.232 31.8249 22.152 31.8249 20.04V13.776C31.8249 12.552 31.2489 11.952 30.0969 11.952C28.9449 11.952 28.3449 12.576 28.3449 13.848V19.536C28.3449 20.736 28.9449 21.408 30.1449 21.6L29.7129 23.232C27.5529 23.016 26.2569 21.84 26.2569 19.608V13.92C26.2569 11.4 27.5529 10.128 30.0969 10.128C32.6409 10.128 33.8889 11.352 33.8889 13.8V20.088C33.8889 21.096 34.3689 21.6 35.3049 21.6H38.4489C39.3849 21.6 39.8649 21.096 39.8649 20.088V15.912C39.8649 13.272 38.7129 11.88 36.4569 11.736V10.128H42.5769C45.1209 10.128 46.4169 11.4 46.4169 13.92V21.096C46.4169 23.4 44.2089 25.704 40.1049 27.768C36.0009 29.832 33.2409 31.872 31.8009 33.864C30.3609 35.856 29.5209 37.704 29.5209 39.24C29.5209 40.344 29.7369 40.968 30.5289 40.968C31.0089 40.968 31.8009 40.56 32.1849 39.912L34.8249 35.376C36.0969 33.192 38.4969 31.704 40.2729 31.704C42.1929 31.704 43.2969 32.256 44.2809 33.792C45.2409 35.304 46.2489 38.136 47.3049 42.216L45.6969 42.816C44.3289 38.664 43.3689 36.168 42.7689 35.28C42.1929 34.416 41.4249 33.984 40.5129 33.984C38.9769 33.984 37.4889 35.136 36.7689 36.504L34.9689 39.96C33.9369 41.928 31.9449 43.032 30.3609 43.032Z" fill="url(#paint2_linear_459_414)"/>
<path d="M12.0987 23.4548L12.0987 23.4548L12.1068 23.458C12.5725 23.6391 13.0446 23.756 13.488 23.756C14.3393 23.756 15.0636 23.51 15.5665 22.9516C16.061 22.4027 16.268 21.6323 16.268 20.736V14.544C16.268 13.7641 16.4726 13.2676 16.7923 12.9607C17.1157 12.6502 17.6417 12.452 18.456 12.452C19.2736 12.452 19.7939 12.6459 20.1104 12.9452C20.4217 13.2397 20.62 13.7164 20.62 14.472V23.232V23.732H21.12H23.208H23.708V23.232V14.496C23.708 12.9552 23.2858 11.7086 22.3586 10.8551C21.4392 10.0088 20.1078 9.628 18.456 9.628C16.7986 9.628 15.4602 10.0296 14.5361 10.905C13.6072 11.7851 13.18 13.0647 13.18 14.64V20.568C13.18 20.6477 13.173 20.7033 13.1648 20.7398C13.1431 20.7395 13.1238 20.7387 13.1053 20.7367C13.0993 20.7361 13.0946 20.7355 13.0911 20.7349L13.0786 20.7297L10.6152 19.7143C12.075 18.0836 12.836 16.0992 12.836 13.8C12.836 12.5194 12.5388 11.4589 11.8585 10.7171C11.1709 9.96727 10.1707 9.628 8.952 9.628H3.408H3.11664L2.97299 9.88149L2.56499 10.6015L2.41047 10.8742L2.58855 11.1321L4.67655 14.1561L4.82563 14.372H5.088H7.368H8.34989L7.77237 13.5779L6.81388 12.26H8.832C8.96647 12.26 9.06047 12.2922 9.13422 12.3417C9.21121 12.3933 9.29634 12.4845 9.37658 12.6472C9.54423 12.9871 9.652 13.5601 9.652 14.424V14.616C9.652 16.3049 8.6689 18.0277 6.67719 19.7851L6.508 19.9344V20.16V20.832V21.1677L6.81868 21.2948L12.0987 23.4548ZM15.4764 9.46809L15.668 9.50258L15.8325 9.39841L16.5525 8.94241L16.7849 8.79518V8.52V6.312C16.7849 5.18944 16.4705 4.22228 15.8041 3.53416C15.1353 2.84353 14.1759 2.5 13.0209 2.5C12.0753 2.5 11.1741 2.74902 10.4986 3.29518C9.80931 3.85246 9.40094 4.68341 9.40094 5.736C9.40094 6.65336 9.82965 7.40584 10.5052 7.95889C11.1699 8.50301 12.0741 8.8584 13.0771 9.03622C13.0773 9.03626 13.0775 9.03629 13.0777 9.03633L15.4764 9.46809ZM13.8889 6.168V6.54669L13.2354 6.42099L13.2331 6.42057C12.8811 6.35458 12.6252 6.25509 12.4633 6.12142C12.3261 6.0082 12.2249 5.84649 12.2249 5.544C12.2249 5.37999 12.2869 5.2793 12.3825 5.20634C12.4921 5.12256 12.6718 5.06 12.9009 5.06C13.2165 5.06 13.4514 5.15753 13.6064 5.31255C13.7597 5.46586 13.8889 5.7295 13.8889 6.168ZM29.9325 32.1476L29.9322 32.1479C27.9456 34.4821 26.9329 37.0421 26.9329 39.792C26.9329 40.8317 27.2294 41.7681 27.8275 42.4521C28.4326 43.1441 29.3071 43.532 30.3609 43.532C32.1463 43.532 34.3008 42.3107 35.4117 40.1922L35.4124 40.191L37.2114 36.7369C37.2116 36.7364 37.2119 36.7359 37.2121 36.7355C37.8723 35.4823 39.2135 34.484 40.5129 34.484C41.2373 34.484 41.8577 34.8145 42.3529 35.5574L42.3546 35.5599C42.6192 35.9515 42.9917 36.7481 43.4787 38.0047C43.9602 39.2471 44.5392 40.8999 45.222 42.9725L45.3847 43.4662L45.8717 43.2845L47.4797 42.6845L47.9019 42.5269L47.789 42.0907C46.7333 38.0119 45.7098 35.1096 44.703 33.524L44.702 33.5223C44.1781 32.7045 43.5966 32.1095 42.8574 31.7277C42.1221 31.348 41.2783 31.204 40.2729 31.204C39.2573 31.204 38.1185 31.6239 37.0852 32.3032C36.0455 32.9868 35.0712 33.9597 34.3929 35.1244L34.3928 35.1245L31.7548 39.6571C31.7545 39.6577 31.7541 39.6582 31.7538 39.6588C31.6128 39.8959 31.3864 40.1043 31.1363 40.2539C30.8777 40.4086 30.6489 40.468 30.5289 40.468C30.3966 40.468 30.3255 40.4422 30.2867 40.4199C30.2506 40.3991 30.2112 40.3636 30.1715 40.2872C30.0785 40.1085 30.0209 39.7832 30.0209 39.24C30.0209 37.8658 30.7832 36.1253 32.2061 34.1569C33.5747 32.2638 36.2471 30.2679 40.3296 28.2147C42.4108 27.168 44.0437 26.045 45.1626 24.8662C46.2823 23.6866 46.9169 22.4176 46.9169 21.096V13.92C46.9169 12.5793 46.5714 11.4816 45.802 10.723C45.0338 9.96555 43.926 9.628 42.5769 9.628H36.4569H35.9569V10.128V11.736V12.2051L36.4251 12.235C37.453 12.3006 38.1598 12.6427 38.6201 13.2048C39.09 13.7786 39.3649 14.6564 39.3649 15.912V20.088C39.3649 20.5208 39.2615 20.7543 39.1437 20.8795C39.0313 20.999 38.8301 21.1 38.4489 21.1H35.3049C34.9238 21.1 34.7226 20.999 34.6102 20.8795C34.4924 20.7543 34.3889 20.5208 34.3889 20.088V13.8C34.3889 12.4964 34.0559 11.4262 33.2953 10.6874C32.5375 9.95116 31.4413 9.628 30.0969 9.628C28.7479 9.628 27.6401 9.96555 26.8719 10.723C26.1024 11.4816 25.7569 12.5793 25.7569 13.92V19.608C25.7569 20.8241 26.1128 21.8138 26.8196 22.5278C27.5202 23.2354 28.5081 23.614 29.6632 23.7295L30.0872 23.7719L30.1963 23.3599L30.6283 21.7279L30.7697 21.1936L30.2239 21.1063C29.698 21.0221 29.3705 20.8439 29.1708 20.6163C28.9731 20.3908 28.8449 20.0533 28.8449 19.536V13.848C28.8449 13.2821 28.979 12.9522 29.1545 12.7642C29.324 12.5825 29.6086 12.452 30.0969 12.452C30.5905 12.452 30.8689 12.5794 31.0305 12.7495C31.1968 12.9244 31.3249 13.2337 31.3249 13.776V20.04C31.3249 21.1789 31.6237 22.1294 32.3132 22.7892C32.9986 23.4452 33.9852 23.732 35.1849 23.732H38.5689C39.7687 23.732 40.7552 23.4452 41.4406 22.7892C42.1301 22.1294 42.4289 21.1789 42.4289 20.04V15.528C42.4289 14.4851 42.2605 13.5943 41.8785 12.8968C41.7908 12.7368 41.6927 12.5885 41.5844 12.452H42.5769C43.0799 12.452 43.3618 12.5838 43.5267 12.7623C43.6987 12.9485 43.8289 13.2773 43.8289 13.848V20.832C43.8289 21.5612 43.4623 22.3465 42.5899 23.202C41.7164 24.0585 40.377 24.9428 38.5391 25.8559C34.8022 27.7002 31.9328 29.8015 29.9325 32.1476Z" stroke="url(#paint3_linear_459_414)"/>
</g>
<defs>
<filter id="filter0_dd_459_414" x="0.821289" y="0.9" width="54.6777" height="51.2162" filterUnits="userSpaceOnUse" color-interpolation-filters="sRGB">
<feFlood flood-opacity="0" result="BackgroundImageFix"/>
<feColorMatrix in="SourceAlpha" type="matrix" values="0 0 0 0 0 0 0 0 0 0 0 0 0 0 0 0 0 0 127 0" result="hardAlpha"/>
<feOffset dx="3" dy="4"/>
<feGaussianBlur stdDeviation="2"/>
<feComposite in2="hardAlpha" operator="out"/>
<feColorMatrix type="matrix" values="0 0 0 0 0 0 0 0 0 0 0 0 0 0 0 0 0 0 0.25 0"/>
<feBlend mode="normal" in2="BackgroundImageFix" result="effect1_dropShadow_459_414"/>
<feColorMatrix in="SourceAlpha" type="matrix" values="0 0 0 0 0 0 0 0 0 0 0 0 0 0 0 0 0 0 127 0" result="hardAlpha"/>
<feOffset dy="-1"/>
<feGaussianBlur stdDeviation="0.05"/>
<feComposite in2="hardAlpha" operator="out"/>
<feColorMatrix type="matrix" values="0 0 0 0 0 0 0 0 0 0 0 0 0 0 0 0 0 0 0.25 0"/>
<feBlend mode="normal" in2="effect1_dropShadow_459_414" result="effect2_dropShadow_459_414"/>
<feBlend mode="normal" in="SourceGraphic" in2="effect2_dropShadow_459_414" result="shape"/>
</filter>
<linearGradient id="paint0_linear_459_414" x1="40.0076" y1="43.032" x2="40.0076" y2="3" gradientUnits="userSpaceOnUse">
<stop offset="0.0104167" stop-color="#FFF0DA"/>
<stop offset="0.0416667" stop-color="#94641E"/>
<stop offset="0.828125" stop-color="#FFF2DB"/>
<stop offset="0.9375" stop-color="#EAC885"/>
<stop offset="0.979167" stop-color="#FBF5D1"/>
<stop offset="0.9999" stop-color="#BD9A4B"/>
<stop offset="1" stop-color="#ECD8A3"/>
</linearGradient>
<linearGradient id="paint1_linear_459_414" x1="40.0076" y1="43.032" x2="40.0076" y2="3" gradientUnits="userSpaceOnUse">
<stop offset="0.0104167" stop-color="#FFF0DA"/>
<stop offset="0.0416667" stop-color="#94641E"/>
<stop offset="0.828125" stop-color="#FFF2DB"/>
<stop offset="0.9375" stop-color="#EAC885"/>
<stop offset="0.979167" stop-color="#FBF5D1"/>
<stop offset="0.9999" stop-color="#BD9A4B"/>
<stop offset="1" stop-color="#ECD8A3"/>
</linearGradient>
<linearGradient id="paint2_linear_459_414" x1="40.0076" y1="43.032" x2="40.0076" y2="3" gradientUnits="userSpaceOnUse">
<stop offset="0.0104167" stop-color="#FFF0DA"/>
<stop offset="0.0416667" stop-color="#94641E"/>
<stop offset="0.828125" stop-color="#FFF2DB"/>
<stop offset="0.9375" stop-color="#EAC885"/>
<stop offset="0.979167" stop-color="#FBF5D1"/>
<stop offset="0.9999" stop-color="#BD9A4B"/>
<stop offset="1" stop-color="#ECD8A3"/>
</linearGradient>
<linearGradient id="paint3_linear_459_414" x1="105.924" y1="9.23193" x2="105.924" y2="39.2319" gradientUnits="userSpaceOnUse">
<stop stop-color="#FCF6D1"/>
<stop offset="0.104167" stop-color="#BD9457"/>
<stop offset="0.25" stop-color="#E3CA89"/>
<stop offset="0.697917" stop-color="#FEE8C8"/>
<stop offset="0.854167" stop-color="#4D3A1A"/>
<stop offset="1" stop-color="#FCF0D1"/>
</linearGradient>
</defs>
</svg>
